{"glyphs":{"0":{"ha":911,"x_min":46,"x_max":894,"o":"m 369 -36 q 46 268 46 -36 q 65 436 46 342 q 233 790 115 671 q 571 908 351 908 q 894 607 894 908 q 874 436 894 531 q 707 83 825 201 q 369 -36 589 -36 m 404 125 q 585 202 521 125 q 683 436 650 279 q 703 589 703 526 q 664 708 703 669 q 536 747 625 747 q 353 670 419 747 q 256 436 288 593 q 236 282 236 343 q 275 163 236 201 q 404 125 314 125 z "},"1":{"ha":464,"x_min":119,"x_max":500,"o":"m 272 725 l 122 701 l 156 858 l 500 908 l 307 0 l 119 0 l 272 725 z "},"2":{"ha":713,"x_min":-26,"x_max":715,"o":"m -8 90 q 109 223 42 163 q 282 364 176 283 l 324 394 q 435 483 403 454 q 487 541 468 511 q 515 618 506 571 q 519 656 519 639 q 486 724 519 701 q 379 747 453 747 q 154 704 272 747 l 190 869 q 318 898 246 888 q 456 908 390 908 q 647 852 579 908 q 715 694 715 796 q 707 622 715 660 q 635 474 689 538 q 483 339 581 410 l 457 319 q 335 226 385 267 q 249 144 286 186 l 614 144 l 583 0 l -26 0 l -8 90 z "},"3":{"ha":728,"x_min":-21,"x_max":724,"o":"m 236 -14 q 97 -1 174 -14 q -21 29 21 11 l 14 193 q 243 147 111 147 q 397 176 344 147 q 464 274 450 204 q 467 301 467 293 q 431 364 467 344 q 324 383 394 383 l 183 383 l 226 521 l 343 521 q 467 548 424 521 q 522 633 511 575 q 526 664 526 650 q 489 728 526 707 q 369 749 451 749 q 249 737 311 749 q 138 704 188 725 l 172 864 q 295 896 222 883 q 436 908 368 908 q 649 855 574 908 q 724 711 724 801 q 718 660 724 683 q 661 534 704 590 q 553 453 618 478 q 631 399 606 435 q 657 310 657 363 q 650 254 657 286 q 515 53 621 119 q 236 -14 408 -14 z "},"4":{"ha":757,"x_min":-15,"x_max":756,"o":"m 418 188 l -15 188 l 13 315 l 592 894 l 756 894 l 638 339 l 725 339 l 693 188 l 606 188 l 567 0 l 379 0 l 418 188 m 481 332 l 557 688 l 194 332 l 481 332 z "},"5":{"ha":719,"x_min":-17,"x_max":718,"o":"m 233 -14 q 97 -3 168 -14 q -17 29 26 8 l 18 192 q 124 159 61 171 q 242 147 188 147 q 391 178 339 147 q 458 282 443 210 q 465 332 465 313 q 435 390 465 372 q 329 408 406 408 l 60 408 l 82 514 l 186 894 l 718 894 l 674 750 l 315 750 l 261 553 l 396 553 q 589 501 522 553 q 656 350 656 450 q 647 275 656 315 q 233 -14 586 -14 z "},"6":{"ha":803,"x_min":33,"x_max":772,"o":"m 321 -14 q 107 49 181 -14 q 33 233 33 111 q 44 338 33 288 l 85 529 q 244 805 121 701 q 561 908 368 908 q 678 900 629 908 q 772 875 728 892 l 739 714 q 539 749 657 749 q 269 567 308 749 l 261 524 q 372 571 310 554 q 488 588 435 588 q 678 533 613 588 q 744 374 744 478 q 735 290 744 333 q 604 67 704 147 q 321 -14 504 -14 m 353 125 q 499 166 449 125 q 565 283 549 207 q 572 343 572 321 q 539 419 572 394 q 424 444 506 444 q 328 428 379 444 q 231 385 278 413 l 213 300 q 206 236 206 261 q 240 152 206 179 q 353 125 275 125 z "},"7":{"ha":692,"x_min":51,"x_max":764,"o":"m 528 750 l 118 750 l 149 894 l 764 894 l 740 779 l 246 0 l 51 0 l 528 750 z "},"8":{"ha":829,"x_min":19,"x_max":819,"o":"m 332 -14 q 99 36 178 -14 q 19 185 19 86 q 26 249 19 221 q 92 380 42 322 q 215 463 142 438 q 151 519 172 483 q 129 600 129 556 q 135 647 129 617 q 260 839 161 769 q 529 908 360 908 q 747 856 675 908 q 819 708 819 804 q 813 647 819 685 q 756 532 797 583 q 646 453 715 481 q 757 303 757 410 q 751 249 757 275 q 332 -14 694 -14 m 481 510 q 586 557 551 528 q 633 643 621 586 q 638 681 638 664 q 605 742 638 724 q 497 761 572 761 q 370 733 415 761 q 311 643 325 706 q 307 611 307 626 q 392 528 307 544 l 481 510 m 364 132 q 509 160 458 132 q 574 251 560 189 q 578 285 578 271 q 553 342 578 322 q 469 374 528 361 l 367 396 q 258 350 297 381 q 206 257 218 319 q 201 219 201 236 q 240 152 201 172 q 364 132 278 132 z "},"9":{"ha":803,"x_min":63,"x_max":804,"o":"m 275 -14 q 157 -6 207 -14 q 63 19 107 3 l 97 181 q 297 146 179 146 q 479 194 410 146 q 567 328 549 243 l 575 371 q 463 324 526 340 q 347 307 400 307 q 158 363 225 307 q 92 522 92 419 q 101 604 92 553 q 515 908 165 908 q 731 845 657 908 q 804 661 804 782 q 792 557 804 614 l 750 365 q 585 84 710 182 q 275 -14 460 -14 m 413 450 q 508 466 457 450 q 606 510 558 482 l 622 594 q 629 656 629 632 q 594 742 629 714 q 483 769 560 769 q 342 727 396 769 q 271 611 288 685 q 264 553 264 576 q 298 476 264 501 q 413 450 332 450 z "},"\r":{"ha":556,"x_min":0,"x_max":0,"o":""}," ":{"ha":500,"x_min":0,"x_max":0,"o":""},"A":{"ha":990,"x_min":-26,"x_max":861,"o":"m 504 894 l 710 894 l 861 0 l 674 0 l 633 215 l 304 215 l 176 0 l -26 0 l 504 894 m 638 360 l 576 719 l 364 360 l 638 360 z "},"Á":{"ha":990,"x_min":-26,"x_max":867,"o":"m 704 1215 l 867 1215 l 689 956 l 538 956 l 704 1215 m 504 894 l 710 894 l 861 0 l 674 0 l 633 215 l 304 215 l 176 0 l -26 0 l 504 894 m 638 360 l 576 719 l 364 360 l 638 360 z "},"Ă":{"ha":990,"x_min":-26,"x_max":886,"o":"m 618 956 q 489 998 536 956 q 442 1115 442 1040 q 449 1174 442 1139 l 565 1174 q 561 1133 561 1153 q 635 1064 561 1064 q 713 1096 681 1064 q 754 1174 744 1128 l 886 1174 q 796 1013 864 1069 q 618 956 728 956 m 504 894 l 710 894 l 861 0 l 674 0 l 633 215 l 304 215 l 176 0 l -26 0 l 504 894 m 638 360 l 576 719 l 364 360 l 638 360 z "},"Ắ":{"ha":990,"x_min":-26,"x_max":896,"o":"m 717 1332 l 858 1332 l 715 1136 l 583 1136 l 717 1332 m 622 956 q 485 994 538 956 q 432 1114 432 1033 q 439 1172 432 1138 l 546 1172 q 540 1129 540 1150 q 564 1073 540 1092 q 639 1054 588 1054 q 781 1172 754 1054 l 896 1172 q 802 1008 871 1060 q 622 956 733 956 m 504 894 l 710 894 l 861 0 l 674 0 l 633 215 l 304 215 l 176 0 l -26 0 l 504 894 m 638 360 l 576 719 l 364 360 l 638 360 z "},"Ặ":{"ha":990,"x_min":-26,"x_max":885,"o":"m 617 956 q 488 998 535 956 q 440 1115 440 1040 q 447 1174 440 1139 l 564 1174 q 560 1133 560 1153 q 633 1064 560 1064 q 711 1096 679 1064 q 753 1174 743 1128 l 885 1174 q 794 1013 863 1069 q 617 956 726 956 m 504 894 l 710 894 l 861 0 l 674 0 l 633 215 l 304 215 l 176 0 l -26 0 l 504 894 m 638 360 l 576 719 l 364 360 l 638 360 m 319 -114 l 468 -114 l 439 -251 l 290 -251 l 319 -114 z "},"Ằ":{"ha":990,"x_min":-26,"x_max":896,"o":"m 543 1332 l 685 1332 l 735 1136 l 603 1136 l 543 1332 m 622 956 q 485 994 538 956 q 432 1114 432 1033 q 439 1172 432 1138 l 546 1172 q 540 1129 540 1150 q 564 1073 540 1092 q 639 1054 588 1054 q 781 1172 754 1054 l 896 1172 q 802 1008 871 1060 q 622 956 733 956 m 504 894 l 710 894 l 861 0 l 674 0 l 633 215 l 304 215 l 176 0 l -26 0 l 504 894 m 638 360 l 576 719 l 364 360 l 638 360 z "},"Ẳ":{"ha":990,"x_min":-26,"x_max":896,"o":"m 611 1232 q 708 1251 681 1235 q 735 1301 735 1268 q 720 1326 735 1319 q 674 1333 706 1333 q 594 1317 635 1333 l 611 1396 q 738 1413 668 1413 q 830 1389 797 1413 q 863 1325 863 1365 q 860 1301 863 1318 q 819 1230 849 1256 q 731 1193 789 1204 l 721 1149 l 593 1149 l 611 1232 m 622 956 q 485 994 538 956 q 432 1114 432 1033 q 439 1172 432 1138 l 546 1172 q 540 1129 540 1150 q 564 1073 540 1092 q 639 1054 588 1054 q 781 1172 754 1054 l 896 1172 q 802 1008 871 1060 q 622 956 733 956 m 504 894 l 710 894 l 861 0 l 674 0 l 633 215 l 304 215 l 176 0 l -26 0 l 504 894 m 638 360 l 576 719 l 364 360 l 638 360 z "},"Ẵ":{"ha":990,"x_min":-26,"x_max":938,"o":"m 793 1201 q 739 1209 764 1201 q 678 1231 714 1217 q 582 1257 617 1257 q 446 1206 503 1257 l 471 1325 q 530 1356 494 1344 q 601 1368 565 1368 q 711 1339 650 1368 q 767 1319 747 1325 q 813 1313 788 1313 q 938 1365 892 1313 l 914 1246 q 863 1214 896 1226 q 793 1201 831 1201 m 622 956 q 485 994 538 956 q 432 1114 432 1033 q 439 1172 432 1138 l 546 1172 q 540 1129 540 1150 q 564 1073 540 1092 q 639 1054 588 1054 q 781 1172 754 1054 l 896 1172 q 802 1008 871 1060 q 622 956 733 956 m 504 894 l 710 894 l 861 0 l 674 0 l 633 215 l 304 215 l 176 0 l -26 0 l 504 894 m 638 360 l 576 719 l 364 360 l 638 360 z "},"Ǎ":{"ha":990,"x_min":-26,"x_max":918,"o":"m 425 1197 l 564 1197 l 633 1058 l 767 1197 l 918 1197 l 679 956 l 560 956 l 425 1197 m 504 894 l 710 894 l 861 0 l 674 0 l 633 215 l 304 215 l 176 0 l -26 0 l 504 894 m 638 360 l 576 719 l 364 360 l 638 360 z "},"Â":{"ha":990,"x_min":-26,"x_max":867,"o":"m 611 1197 l 731 1197 l 867 956 l 729 956 l 656 1094 l 526 956 l 374 956 l 611 1197 m 504 894 l 710 894 l 861 0 l 674 0 l 633 215 l 304 215 l 176 0 l -26 0 l 504 894 m 638 360 l 576 719 l 364 360 l 638 360 z "},"Ấ":{"ha":990,"x_min":-26,"x_max":1064,"o":"m 922 1314 l 1064 1314 l 921 1118 l 790 1118 l 922 1314 m 582 1143 l 725 1143 l 861 956 l 717 956 l 646 1068 l 529 956 l 368 956 l 582 1143 m 504 894 l 710 894 l 861 0 l 674 0 l 633 215 l 304 215 l 176 0 l -26 0 l 504 894 m 638 360 l 576 719 l 364 360 l 638 360 z "},"Ậ":{"ha":990,"x_min":-26,"x_max":867,"o":"m 611 1197 l 731 1197 l 867 956 l 729 956 l 656 1094 l 526 956 l 374 956 l 611 1197 m 504 894 l 710 894 l 861 0 l 674 0 l 633 215 l 304 215 l 176 0 l -26 0 l 504 894 m 638 360 l 576 719 l 364 360 l 638 360 m 319 -114 l 468 -114 l 439 -251 l 290 -251 l 319 -114 z "},"Ầ":{"ha":990,"x_min":-26,"x_max":867,"o":"m 322 1314 l 464 1314 l 514 1118 l 382 1118 l 322 1314 m 588 1143 l 731 1143 l 867 956 l 722 956 l 651 1068 l 535 956 l 374 956 l 588 1143 m 504 894 l 710 894 l 861 0 l 674 0 l 633 215 l 304 215 l 176 0 l -26 0 l 504 894 m 638 360 l 576 719 l 364 360 l 638 360 z "},"Ẩ":{"ha":990,"x_min":-26,"x_max":1071,"o":"m 822 1185 q 907 1199 883 1188 q 935 1233 931 1210 q 926 1263 939 1254 q 881 1271 913 1271 q 803 1254 843 1271 l 822 1340 q 939 1357 875 1357 q 1037 1333 1003 1357 q 1071 1267 1071 1308 q 1068 1244 1071 1261 q 939 1135 1049 1151 l 929 1088 l 801 1088 l 822 1185 m 588 1143 l 731 1143 l 867 956 l 722 956 l 651 1068 l 535 956 l 374 956 l 588 1143 m 504 894 l 710 894 l 861 0 l 674 0 l 633 215 l 304 215 l 176 0 l -26 0 l 504 894 m 638 360 l 576 719 l 364 360 l 638 360 z "},"Ẫ":{"ha":990,"x_min":-26,"x_max":940,"o":"m 796 1164 q 743 1171 768 1164 q 679 1193 718 1178 q 583 1219 618 1219 q 447 1168 507 1219 l 474 1288 q 531 1319 496 1307 q 603 1331 567 1331 q 658 1323 632 1331 q 714 1301 683 1315 q 770 1281 750 1288 q 815 1275 790 1275 q 940 1328 892 1275 l 914 1208 q 865 1176 897 1189 q 796 1164 833 1164 m 588 1143 l 731 1143 l 867 956 l 722 956 l 651 1068 l 535 956 l 374 956 l 588 1143 m 504 894 l 710 894 l 861 0 l 674 0 l 633 215 l 304 215 l 176 0 l -26 0 l 504 894 m 638 360 l 576 719 l 364 360 l 638 360 z "},"Ä":{"ha":990,"x_min":-26,"x_max":864,"o":"m 446 1125 l 592 1125 l 563 989 l 417 989 l 446 1125 m 717 1125 l 864 1125 l 835 989 l 688 989 l 717 1125 m 504 894 l 710 894 l 861 0 l 674 0 l 633 215 l 304 215 l 176 0 l -26 0 l 504 894 m 638 360 l 576 719 l 364 360 l 638 360 z "},"Ạ":{"ha":990,"x_min":-26,"x_max":861,"o":"m 504 894 l 710 894 l 861 0 l 674 0 l 633 215 l 304 215 l 176 0 l -26 0 l 504 894 m 638 360 l 576 719 l 364 360 l 638 360 m 319 -114 l 468 -114 l 439 -251 l 290 -251 l 319 -114 z "},"À":{"ha":990,"x_min":-26,"x_max":861,"o":"m 475 1215 l 638 1215 l 693 956 l 542 956 l 475 1215 m 504 894 l 710 894 l 861 0 l 674 0 l 633 215 l 304 215 l 176 0 l -26 0 l 504 894 m 638 360 l 576 719 l 364 360 l 638 360 z "},"Ả":{"ha":990,"x_min":-26,"x_max":861,"o":"m 575 1068 q 678 1087 650 1072 q 714 1135 707 1101 q 715 1146 715 1139 q 631 1189 715 1189 q 584 1185 610 1189 q 540 1174 558 1181 l 561 1267 q 703 1285 618 1285 q 819 1257 779 1285 q 860 1179 860 1229 q 857 1151 860 1171 q 810 1063 844 1093 q 708 1019 776 1032 l 694 956 l 551 956 l 575 1068 m 504 894 l 710 894 l 861 0 l 674 0 l 633 215 l 304 215 l 176 0 l -26 0 l 504 894 m 638 360 l 576 719 l 364 360 l 638 360 z "},"Ā":{"ha":990,"x_min":-26,"x_max":863,"o":"m 436 1097 l 863 1097 l 839 982 l 413 982 l 436 1097 m 504 894 l 710 894 l 861 0 l 674 0 l 633 215 l 304 215 l 176 0 l -26 0 l 504 894 m 638 360 l 576 719 l 364 360 l 638 360 z "},"Ą":{"ha":990,"x_min":-26,"x_max":861,"o":"m 717 -306 q 619 -279 656 -306 q 582 -200 582 -253 q 583 -179 582 -186 q 618 -78 590 -124 q 682 0 646 -32 l 642 215 l 304 215 l 176 0 l -26 0 l 504 894 l 710 894 l 861 0 q 778 -67 810 -29 q 738 -144 746 -104 q 736 -158 736 -150 q 790 -196 736 -196 q 860 -181 829 -196 l 838 -286 q 783 -300 817 -294 q 717 -306 750 -306 m 638 360 l 576 719 l 364 360 l 638 360 z "},"Å":{"ha":990,"x_min":-26,"x_max":861,"o":"m 486 864 q 451 953 451 899 q 478 1055 451 1008 q 552 1130 504 1101 q 661 1158 600 1158 q 767 1123 729 1158 q 804 1031 804 1088 q 800 992 804 1011 q 715 861 783 907 l 861 0 l 674 0 l 633 215 l 304 215 l 176 0 l -26 0 l 486 864 m 610 913 q 676 934 651 913 q 708 992 700 956 q 711 1011 711 1006 q 693 1054 711 1038 q 643 1071 675 1071 q 579 1049 604 1071 q 546 992 554 1026 q 544 974 544 985 q 562 929 544 946 q 610 913 579 913 m 638 360 l 576 719 l 364 360 l 638 360 z "},"Ǻ":{"ha":990,"x_min":-26,"x_max":910,"o":"m 747 1446 l 910 1446 l 732 1186 l 581 1186 l 747 1446 m 486 864 q 451 953 451 899 q 478 1055 451 1008 q 552 1130 504 1101 q 661 1158 600 1158 q 767 1123 729 1158 q 804 1031 804 1088 q 800 992 804 1011 q 715 861 783 907 l 861 0 l 674 0 l 633 215 l 304 215 l 176 0 l -26 0 l 486 864 m 610 913 q 676 934 651 913 q 708 992 700 956 q 711 1011 711 1006 q 693 1054 711 1038 q 643 1071 675 1071 q 579 1049 604 1071 q 546 992 554 1026 q 544 974 544 985 q 562 929 544 946 q 610 913 579 913 m 638 360 l 576 719 l 364 360 l 638 360 z "},"Ã":{"ha":990,"x_min":-26,"x_max":889,"o":"m 740 957 q 688 964 713 957 q 624 986 663 971 q 528 1013 563 1013 q 392 961 451 1013 l 421 1094 q 479 1126 444 1114 q 550 1138 514 1138 q 605 1130 579 1138 q 661 1108 631 1122 q 717 1088 697 1094 q 763 1082 738 1082 q 889 1135 840 1082 l 860 1001 q 810 969 843 982 q 740 957 778 957 m 504 894 l 710 894 l 861 0 l 674 0 l 633 215 l 304 215 l 176 0 l -26 0 l 504 894 m 638 360 l 576 719 l 364 360 l 638 360 z "},"Æ":{"ha":1179,"x_min":-26,"x_max":1239,"o":"m 504 894 l 1239 894 l 1208 749 l 828 749 l 779 519 l 1108 519 l 1078 375 l 749 375 l 700 144 l 1081 144 l 1050 0 l 482 0 l 528 217 l 306 217 l 176 0 l -26 0 l 504 894 m 558 361 l 642 756 l 606 756 l 379 361 l 558 361 z "},"Ǽ":{"ha":1179,"x_min":-26,"x_max":1239,"o":"m 876 1215 l 1039 1215 l 861 956 l 710 956 l 876 1215 m 504 894 l 1239 894 l 1208 749 l 828 749 l 779 519 l 1108 519 l 1078 375 l 749 375 l 700 144 l 1081 144 l 1050 0 l 482 0 l 528 217 l 306 217 l 176 0 l -26 0 l 504 894 m 558 361 l 642 756 l 606 756 l 379 361 l 558 361 z "},"B":{"ha":883,"x_min":1,"x_max":865,"o":"m 190 894 l 643 894 q 808 846 750 894 q 865 713 865 797 q 858 653 865 688 q 715 458 828 515 q 815 319 815 425 q 808 261 815 296 q 697 65 779 131 q 471 0 615 0 l 1 0 l 190 894 m 531 524 q 632 553 596 524 q 681 638 668 582 q 685 676 685 658 q 657 736 685 717 q 565 756 629 756 l 349 756 l 300 524 l 531 524 m 456 138 q 567 167 528 138 q 621 269 606 197 q 625 307 625 290 q 594 368 625 349 q 496 388 564 388 l 271 388 l 218 138 l 456 138 z "},"C":{"ha":833,"x_min":54,"x_max":886,"o":"m 433 -14 q 155 76 256 -14 q 54 322 54 165 q 67 439 54 376 q 629 908 165 908 q 886 864 772 908 l 851 700 q 608 749 743 749 q 374 673 457 749 q 257 439 290 597 q 243 328 243 379 q 300 190 243 235 q 483 144 357 144 q 744 192 619 144 l 710 26 q 433 -14 578 -14 z "},"Ć":{"ha":833,"x_min":54,"x_max":886,"o":"m 711 1215 l 874 1215 l 696 956 l 544 956 l 711 1215 m 433 -14 q 155 76 256 -14 q 54 322 54 165 q 67 439 54 376 q 629 908 165 908 q 886 864 772 908 l 851 700 q 608 749 743 749 q 374 673 457 749 q 257 439 290 597 q 243 328 243 379 q 300 190 243 235 q 483 144 357 144 q 744 192 619 144 l 710 26 q 433 -14 578 -14 z "},"Č":{"ha":833,"x_min":54,"x_max":942,"o":"m 449 1197 l 588 1197 l 657 1058 l 790 1197 l 942 1197 l 703 956 l 583 956 l 449 1197 m 433 -14 q 155 76 256 -14 q 54 322 54 165 q 67 439 54 376 q 629 908 165 908 q 886 864 772 908 l 851 700 q 608 749 743 749 q 374 673 457 749 q 257 439 290 597 q 243 328 243 379 q 300 190 243 235 q 483 144 357 144 q 744 192 619 144 l 710 26 q 433 -14 578 -14 z "},"Ç":{"ha":833,"x_min":54,"x_max":886,"o":"m 335 -333 q 279 -330 311 -333 q 232 -322 247 -326 l 253 -228 q 335 -239 290 -239 q 424 -229 399 -239 q 456 -187 450 -219 q 457 -174 457 -182 q 435 -143 457 -150 q 361 -136 413 -136 l 300 -136 l 363 -10 q 135 94 217 7 q 54 322 54 181 q 67 439 54 376 q 629 908 165 908 q 886 864 772 908 l 851 700 q 608 749 743 749 q 374 673 457 749 q 257 439 290 597 q 243 328 243 379 q 300 190 243 235 q 483 144 357 144 q 744 192 619 144 l 710 26 q 483 -12 599 -7 l 456 -62 q 549 -87 518 -62 q 579 -157 579 -112 q 576 -189 579 -178 q 501 -296 561 -258 q 335 -333 442 -333 z "},"Ĉ":{"ha":833,"x_min":54,"x_max":886,"o":"m 593 1197 l 713 1197 l 849 956 l 711 956 l 638 1094 l 508 956 l 356 956 l 593 1197 m 433 -14 q 155 76 256 -14 q 54 322 54 165 q 67 439 54 376 q 629 908 165 908 q 886 864 772 908 l 851 700 q 608 749 743 749 q 374 673 457 749 q 257 439 290 597 q 243 328 243 379 q 300 190 243 235 q 483 144 357 144 q 744 192 619 144 l 710 26 q 433 -14 578 -14 z "},"Ċ":{"ha":833,"x_min":54,"x_max":886,"o":"m 583 1126 l 729 1126 l 700 990 l 554 990 l 583 1126 m 433 -14 q 155 76 256 -14 q 54 322 54 165 q 67 439 54 376 q 629 908 165 908 q 886 864 772 908 l 851 700 q 608 749 743 749 q 374 673 457 749 q 257 439 290 597 q 243 328 243 379 q 300 190 243 235 q 483 144 357 144 q 744 192 619 144 l 710 26 q 433 -14 578 -14 z "},"D":{"ha":911,"x_min":1,"x_max":892,"o":"m 190 894 l 565 894 q 807 817 722 894 q 892 586 892 739 q 875 443 892 522 q 708 106 826 213 q 376 0 590 0 l 1 0 l 190 894 m 381 144 q 517 169 460 144 q 617 260 575 194 q 685 443 660 325 q 704 593 704 538 q 660 708 704 676 q 511 739 615 739 l 346 739 l 219 144 l 381 144 z "},"Ð":{"ha":978,"x_min":51,"x_max":958,"o":"m 146 367 l 51 367 l 82 511 l 176 511 l 257 894 l 632 894 q 874 817 789 894 q 958 586 958 739 q 942 443 958 522 q 775 106 893 213 q 443 0 657 0 l 68 0 l 146 367 m 447 144 q 584 169 526 144 q 684 260 642 194 q 751 443 726 325 q 771 593 771 538 q 726 708 771 676 q 578 739 682 739 l 413 739 l 364 511 l 571 511 l 540 367 l 333 367 l 286 144 l 447 144 z "},"Ď":{"ha":911,"x_min":1,"x_max":892,"o":"m 363 1228 l 501 1228 l 571 1089 l 704 1228 l 856 1228 l 617 986 l 497 986 l 363 1228 m 190 894 l 565 894 q 807 817 722 894 q 892 586 892 739 q 875 443 892 522 q 708 106 826 213 q 376 0 590 0 l 1 0 l 190 894 m 381 144 q 517 169 460 144 q 617 260 575 194 q 685 443 660 325 q 704 593 704 538 q 660 708 704 676 q 511 739 615 739 l 346 739 l 219 144 l 381 144 z "},"Đ":{"ha":964,"x_min":38,"x_max":944,"o":"m 132 367 l 38 367 l 68 511 l 163 511 l 243 894 l 618 894 q 860 817 775 894 q 944 586 944 739 q 928 443 944 522 q 761 106 879 213 q 429 0 643 0 l 54 0 l 132 367 m 433 144 q 570 169 513 144 q 670 260 628 194 q 738 443 713 325 q 757 593 757 538 q 713 708 757 676 q 564 739 668 739 l 399 739 l 350 511 l 557 511 l 526 367 l 319 367 l 272 144 l 433 144 z "},"Ḍ":{"ha":911,"x_min":1,"x_max":892,"o":"m 190 894 l 565 894 q 807 817 722 894 q 892 586 892 739 q 875 443 892 522 q 708 106 826 213 q 376 0 590 0 l 1 0 l 190 894 m 381 144 q 517 169 460 144 q 617 260 575 194 q 685 443 660 325 q 704 593 704 538 q 660 708 704 676 q 511 739 615 739 l 346 739 l 219 144 l 381 144 m 269 -114 l 418 -114 l 389 -251 l 240 -251 l 269 -114 z "},"Ḏ":{"ha":911,"x_min":1,"x_max":892,"o":"m 190 894 l 565 894 q 807 817 722 894 q 892 586 892 739 q 875 443 892 522 q 708 106 826 213 q 376 0 590 0 l 1 0 l 190 894 m 381 144 q 517 169 460 144 q 617 260 575 194 q 685 443 660 325 q 704 593 704 538 q 660 708 704 676 q 511 739 615 739 l 346 739 l 219 144 l 381 144 m 65 -137 l 492 -137 l 468 -253 l 42 -253 l 65 -137 z "},"E":{"ha":772,"x_min":1,"x_max":832,"o":"m 190 894 l 832 894 l 801 749 l 347 749 l 299 519 l 701 519 l 671 375 l 268 375 l 219 144 l 674 144 l 643 0 l 1 0 l 190 894 z "},"É":{"ha":772,"x_min":1,"x_max":832,"o":"m 600 1215 l 763 1215 l 585 956 l 433 956 l 600 1215 m 190 894 l 832 894 l 801 749 l 347 749 l 299 519 l 701 519 l 671 375 l 268 375 l 219 144 l 674 144 l 643 0 l 1 0 l 190 894 z "},"Ĕ":{"ha":772,"x_min":1,"x_max":832,"o":"m 533 956 q 404 998 451 956 q 357 1115 357 1040 q 364 1174 357 1139 l 481 1174 q 476 1133 476 1153 q 550 1064 476 1064 q 628 1096 596 1064 q 669 1174 660 1128 l 801 1174 q 711 1013 779 1069 q 533 956 643 956 m 190 894 l 832 894 l 801 749 l 347 749 l 299 519 l 701 519 l 671 375 l 268 375 l 219 144 l 674 144 l 643 0 l 1 0 l 190 894 z "},"Ě":{"ha":772,"x_min":1,"x_max":836,"o":"m 343 1197 l 482 1197 l 551 1058 l 685 1197 l 836 1197 l 597 956 l 478 956 l 343 1197 m 190 894 l 832 894 l 801 749 l 347 749 l 299 519 l 701 519 l 671 375 l 268 375 l 219 144 l 674 144 l 643 0 l 1 0 l 190 894 z "},"Ê":{"ha":772,"x_min":1,"x_max":832,"o":"m 515 1197 l 635 1197 l 771 956 l 633 956 l 560 1094 l 431 956 l 278 956 l 515 1197 m 190 894 l 832 894 l 801 749 l 347 749 l 299 519 l 701 519 l 671 375 l 268 375 l 219 144 l 674 144 l 643 0 l 1 0 l 190 894 z "},"Ế":{"ha":772,"x_min":1,"x_max":976,"o":"m 835 1313 l 976 1313 l 833 1117 l 703 1117 l 835 1313 m 494 1142 l 638 1142 l 774 954 l 629 954 l 558 1067 l 442 954 l 281 954 l 494 1142 m 190 894 l 832 894 l 801 749 l 347 749 l 299 519 l 701 519 l 671 375 l 268 375 l 219 144 l 674 144 l 643 0 l 1 0 l 190 894 z "},"Ệ":{"ha":772,"x_min":1,"x_max":832,"o":"m 510 1197 l 629 1197 l 765 956 l 628 956 l 554 1094 l 425 956 l 272 956 l 510 1197 m 190 894 l 832 894 l 801 749 l 347 749 l 299 519 l 701 519 l 671 375 l 268 375 l 219 144 l 674 144 l 643 0 l 1 0 l 190 894 m 218 -114 l 367 -114 l 338 -251 l 189 -251 l 218 -114 z "},"Ề":{"ha":772,"x_min":1,"x_max":832,"o":"m 232 1313 l 374 1313 l 424 1117 l 292 1117 l 232 1313 m 497 1142 l 640 1142 l 776 954 l 632 954 l 561 1067 l 444 954 l 283 954 l 497 1142 m 190 894 l 832 894 l 801 749 l 347 749 l 299 519 l 701 519 l 671 375 l 268 375 l 219 144 l 674 144 l 643 0 l 1 0 l 190 894 z "},"Ể":{"ha":772,"x_min":1,"x_max":978,"o":"m 729 1183 q 814 1197 790 1186 q 842 1232 838 1208 q 833 1261 846 1253 q 788 1269 819 1269 q 710 1253 750 1269 l 729 1339 q 846 1356 782 1356 q 944 1331 910 1356 q 978 1265 978 1307 q 975 1243 978 1260 q 846 1133 956 1150 l 836 1086 l 708 1086 l 729 1183 m 494 1142 l 638 1142 l 774 954 l 629 954 l 558 1067 l 442 954 l 281 954 l 494 1142 m 190 894 l 832 894 l 801 749 l 347 749 l 299 519 l 701 519 l 671 375 l 268 375 l 219 144 l 674 144 l 643 0 l 1 0 l 190 894 z "},"Ễ":{"ha":772,"x_min":1,"x_max":849,"o":"m 704 1163 q 651 1169 676 1163 q 588 1192 626 1176 q 492 1218 526 1218 q 356 1167 415 1218 l 382 1286 q 440 1317 404 1306 q 511 1329 475 1329 q 566 1322 540 1329 q 622 1300 592 1314 q 678 1280 658 1286 q 724 1274 699 1274 q 849 1326 800 1274 l 822 1207 q 774 1175 806 1188 q 704 1163 742 1163 m 496 1142 l 639 1142 l 775 954 l 631 954 l 560 1067 l 443 954 l 282 954 l 496 1142 m 190 894 l 832 894 l 801 749 l 347 749 l 299 519 l 701 519 l 671 375 l 268 375 l 219 144 l 674 144 l 643 0 l 1 0 l 190 894 z "},"Ë":{"ha":772,"x_min":1,"x_max":832,"o":"m 358 1126 l 504 1126 l 475 990 l 329 990 l 358 1126 m 629 1126 l 776 1126 l 747 990 l 600 990 l 629 1126 m 190 894 l 832 894 l 801 749 l 347 749 l 299 519 l 701 519 l 671 375 l 268 375 l 219 144 l 674 144 l 643 0 l 1 0 l 190 894 z "},"Ė":{"ha":772,"x_min":1,"x_max":832,"o":"m 489 1126 l 635 1126 l 606 990 l 460 990 l 489 1126 m 190 894 l 832 894 l 801 749 l 347 749 l 299 519 l 701 519 l 671 375 l 268 375 l 219 144 l 674 144 l 643 0 l 1 0 l 190 894 z "},"Ẹ":{"ha":772,"x_min":1,"x_max":832,"o":"m 190 894 l 832 894 l 801 749 l 347 749 l 299 519 l 701 519 l 671 375 l 268 375 l 219 144 l 674 144 l 643 0 l 1 0 l 190 894 m 219 -114 l 368 -114 l 339 -251 l 190 -251 l 219 -114 z "},"È":{"ha":772,"x_min":1,"x_max":832,"o":"m 404 1215 l 567 1215 l 622 956 l 471 956 l 404 1215 m 190 894 l 832 894 l 801 749 l 347 749 l 299 519 l 701 519 l 671 375 l 268 375 l 219 144 l 674 144 l 643 0 l 1 0 l 190 894 z "},"Ẻ":{"ha":772,"x_min":1,"x_max":832,"o":"m 475 1067 q 578 1085 550 1071 q 614 1133 607 1100 q 615 1144 615 1138 q 531 1188 615 1188 q 484 1183 510 1188 q 440 1172 458 1179 l 461 1265 q 603 1283 518 1283 q 719 1256 679 1283 q 760 1178 760 1228 q 757 1150 760 1169 q 710 1061 744 1092 q 608 1018 676 1031 l 594 954 l 451 954 l 475 1067 m 190 894 l 832 894 l 801 749 l 347 749 l 299 519 l 701 519 l 671 375 l 268 375 l 219 144 l 674 144 l 643 0 l 1 0 l 190 894 z "},"Ē":{"ha":772,"x_min":1,"x_max":832,"o":"m 338 1118 l 764 1118 l 740 1003 l 314 1003 l 338 1118 m 190 894 l 832 894 l 801 749 l 347 749 l 299 519 l 701 519 l 671 375 l 268 375 l 219 144 l 674 144 l 643 0 l 1 0 l 190 894 z "},"Ę":{"ha":772,"x_min":1,"x_max":832,"o":"m 347 749 l 299 519 l 701 519 l 671 375 l 268 375 l 219 144 l 674 144 l 643 0 l 583 0 q 460 -144 475 -68 q 458 -158 458 -150 q 513 -196 458 -196 q 582 -181 551 -196 l 560 -286 q 506 -300 539 -294 q 439 -306 472 -306 q 341 -280 379 -306 q 303 -207 303 -254 q 306 -179 303 -199 q 353 -80 317 -126 q 444 0 389 -33 l 1 0 l 190 894 l 832 894 l 801 749 l 347 749 z "},"Ẽ":{"ha":772,"x_min":1,"x_max":832,"o":"m 649 972 q 596 979 621 972 q 532 1001 571 986 q 436 1028 471 1028 q 300 976 360 1028 l 329 1110 q 388 1141 353 1129 q 458 1153 422 1153 q 513 1145 488 1153 q 569 1124 539 1138 q 626 1103 606 1110 q 671 1097 646 1097 q 797 1150 749 1097 l 768 1017 q 719 985 751 997 q 649 972 686 972 m 190 894 l 832 894 l 801 749 l 347 749 l 299 519 l 701 519 l 671 375 l 268 375 l 219 144 l 674 144 l 643 0 l 1 0 l 190 894 z "},"F":{"ha":732,"x_min":1,"x_max":819,"o":"m 190 894 l 819 894 l 789 749 l 347 749 l 299 519 l 689 519 l 658 375 l 268 375 l 189 0 l 1 0 l 190 894 z "},"G":{"ha":894,"x_min":51,"x_max":897,"o":"m 428 -14 q 149 71 247 -14 q 51 310 51 156 q 65 432 51 371 q 259 783 113 657 q 636 908 406 908 q 897 871 789 908 l 863 710 q 615 749 761 749 q 377 670 465 749 q 256 432 289 592 q 242 319 242 372 q 294 188 242 231 q 465 144 346 144 q 643 172 557 144 l 688 381 l 479 381 l 504 500 l 871 500 l 778 63 q 630 8 718 29 q 428 -14 542 -14 z "},"Ğ":{"ha":894,"x_min":51,"x_max":903,"o":"m 635 956 q 506 998 553 956 q 458 1115 458 1040 q 465 1174 458 1139 l 582 1174 q 578 1133 578 1153 q 651 1064 578 1064 q 729 1096 697 1064 q 771 1174 761 1128 l 903 1174 q 813 1013 881 1069 q 635 956 744 956 m 428 -14 q 149 71 247 -14 q 51 310 51 156 q 65 432 51 371 q 259 783 113 657 q 636 908 406 908 q 897 871 789 908 l 863 710 q 615 749 761 749 q 377 670 465 749 q 256 432 289 592 q 242 319 242 372 q 294 188 242 231 q 465 144 346 144 q 643 172 557 144 l 688 381 l 479 381 l 504 500 l 871 500 l 778 63 q 630 8 718 29 q 428 -14 542 -14 z "},"Ǧ":{"ha":894,"x_min":51,"x_max":932,"o":"m 439 1196 l 578 1196 l 647 1057 l 781 1196 l 932 1196 l 693 954 l 574 954 l 439 1196 m 428 -14 q 149 71 247 -14 q 51 310 51 156 q 65 432 51 371 q 259 783 113 657 q 636 908 406 908 q 897 871 789 908 l 863 710 q 615 749 761 749 q 377 670 465 749 q 256 432 289 592 q 242 319 242 372 q 294 188 242 231 q 465 144 346 144 q 643 172 557 144 l 688 381 l 479 381 l 504 500 l 871 500 l 778 63 q 630 8 718 29 q 428 -14 542 -14 z "},"Ĝ":{"ha":894,"x_min":51,"x_max":897,"o":"m 617 1197 l 736 1197 l 872 956 l 735 956 l 661 1094 l 532 956 l 379 956 l 617 1197 m 428 -14 q 149 71 247 -14 q 51 310 51 156 q 65 432 51 371 q 259 783 113 657 q 636 908 406 908 q 897 871 789 908 l 863 710 q 615 749 761 749 q 377 670 465 749 q 256 432 289 592 q 242 319 242 372 q 294 188 242 231 q 465 144 346 144 q 643 172 557 144 l 688 381 l 479 381 l 504 500 l 871 500 l 778 63 q 630 8 718 29 q 428 -14 542 -14 z "},"Ģ":{"ha":894,"x_min":51,"x_max":897,"o":"m 428 -14 q 149 71 247 -14 q 51 310 51 156 q 65 432 51 371 q 259 783 113 657 q 636 908 406 908 q 897 871 789 908 l 863 710 q 615 749 761 749 q 377 670 465 749 q 256 432 289 592 q 242 319 242 372 q 294 188 242 231 q 465 144 346 144 q 643 172 557 144 l 688 381 l 479 381 l 504 500 l 871 500 l 778 63 q 630 8 718 29 q 428 -14 542 -14 m 365 -51 l 513 -51 l 383 -331 l 264 -331 l 365 -51 z "},"Ġ":{"ha":894,"x_min":51,"x_max":897,"o":"m 608 1126 l 754 1126 l 725 990 l 579 990 l 608 1126 m 428 -14 q 149 71 247 -14 q 51 310 51 156 q 65 432 51 371 q 259 783 113 657 q 636 908 406 908 q 897 871 789 908 l 863 710 q 615 749 761 749 q 377 670 465 749 q 256 432 289 592 q 242 319 242 372 q 294 188 242 231 q 465 144 346 144 q 643 172 557 144 l 688 381 l 479 381 l 504 500 l 871 500 l 778 63 q 630 8 718 29 q 428 -14 542 -14 z "},"Ḡ":{"ha":894,"x_min":51,"x_max":897,"o":"m 461 1111 l 888 1111 l 864 996 l 438 996 l 461 1111 m 428 -14 q 149 71 247 -14 q 51 310 51 156 q 65 432 51 371 q 259 783 113 657 q 636 908 406 908 q 897 871 789 908 l 863 710 q 615 749 761 749 q 377 670 465 749 q 256 432 289 592 q 242 319 242 372 q 294 188 242 231 q 465 144 346 144 q 643 172 557 144 l 688 381 l 479 381 l 504 500 l 871 500 l 778 63 q 630 8 718 29 q 428 -14 542 -14 z "},"H":{"ha":924,"x_min":1,"x_max":956,"o":"m 190 894 l 378 894 l 299 519 l 689 519 l 768 894 l 956 894 l 767 0 l 579 0 l 658 375 l 268 375 l 189 0 l 1 0 l 190 894 z "},"Ħ":{"ha":925,"x_min":1,"x_max":985,"o":"m 133 626 l 72 626 l 104 772 l 164 772 l 190 894 l 378 894 l 351 772 l 742 772 l 768 894 l 956 894 l 929 772 l 985 772 l 953 626 l 899 626 l 767 0 l 579 0 l 658 375 l 268 375 l 189 0 l 1 0 l 133 626 m 689 519 l 711 626 l 321 626 l 299 519 l 689 519 z "},"Ḫ":{"ha":924,"x_min":1,"x_max":956,"o":"m 190 894 l 378 894 l 299 519 l 689 519 l 768 894 l 956 894 l 767 0 l 579 0 l 658 375 l 268 375 l 189 0 l 1 0 l 190 894 m 317 -301 q 190 -257 239 -301 q 140 -136 140 -212 q 146 -83 140 -107 l 265 -83 q 261 -122 261 -104 q 335 -193 261 -193 q 412 -162 381 -193 q 453 -83 443 -131 l 583 -83 q 491 -244 561 -186 q 317 -301 421 -301 z "},"Ĥ":{"ha":924,"x_min":1,"x_max":956,"o":"m 578 1197 l 697 1197 l 833 956 l 696 956 l 622 1094 l 493 956 l 340 956 l 578 1197 m 190 894 l 378 894 l 299 519 l 689 519 l 768 894 l 956 894 l 767 0 l 579 0 l 658 375 l 268 375 l 189 0 l 1 0 l 190 894 z "},"Ḥ":{"ha":924,"x_min":1,"x_max":956,"o":"m 190 894 l 378 894 l 299 519 l 689 519 l 768 894 l 956 894 l 767 0 l 579 0 l 658 375 l 268 375 l 189 0 l 1 0 l 190 894 m 285 -114 l 433 -114 l 404 -251 l 256 -251 l 285 -114 z "},"I":{"ha":346,"x_min":1,"x_max":378,"o":"m 190 894 l 378 894 l 189 0 l 1 0 l 190 894 z "},"Ĳ":{"ha":936,"x_min":1,"x_max":974,"o":"m 190 894 l 378 894 l 189 0 l 1 0 l 190 894 m 471 -14 q 278 18 358 -14 l 311 176 q 468 146 376 146 q 601 181 558 146 q 660 297 643 215 l 786 894 l 974 894 l 839 256 q 720 53 810 119 q 471 -14 631 -14 z "},"Í":{"ha":347,"x_min":1,"x_max":551,"o":"m 389 1215 l 551 1215 l 374 956 l 222 956 l 389 1215 m 190 894 l 378 894 l 189 0 l 1 0 l 190 894 z "},"Ĭ":{"ha":347,"x_min":1,"x_max":568,"o":"m 300 974 q 171 1016 218 974 q 124 1133 124 1058 q 131 1192 124 1157 l 247 1192 q 243 1151 243 1171 q 317 1082 243 1082 q 394 1114 363 1082 q 436 1192 426 1146 l 568 1192 q 478 1031 546 1088 q 300 974 410 974 m 190 894 l 378 894 l 189 0 l 1 0 l 190 894 z "},"Ǐ":{"ha":347,"x_min":1,"x_max":597,"o":"m 104 1197 l 243 1197 l 313 1058 l 446 1197 l 597 1197 l 358 956 l 239 956 l 104 1197 m 190 894 l 378 894 l 189 0 l 1 0 l 190 894 z "},"Î":{"ha":347,"x_min":1,"x_max":546,"o":"m 290 1197 l 410 1197 l 546 956 l 408 956 l 335 1094 l 206 956 l 53 956 l 290 1197 m 190 894 l 378 894 l 189 0 l 1 0 l 190 894 z "},"Ï":{"ha":346,"x_min":1,"x_max":546,"o":"m 128 1133 l 274 1133 l 244 997 l 99 997 l 128 1133 m 399 1133 l 546 1133 l 517 997 l 369 997 l 399 1133 m 190 894 l 378 894 l 189 0 l 1 0 l 190 894 z "},"İ":{"ha":346,"x_min":1,"x_max":408,"o":"m 263 1133 l 408 1133 l 379 997 l 233 997 l 263 1133 m 190 894 l 378 894 l 189 0 l 1 0 l 190 894 z "},"Ị":{"ha":346,"x_min":-32,"x_max":378,"o":"m 190 894 l 378 894 l 189 0 l 1 0 l 190 894 m -3 -114 l 146 -114 l 117 -251 l -32 -251 l -3 -114 z "},"Ì":{"ha":346,"x_min":1,"x_max":378,"o":"m 154 1215 l 317 1215 l 372 956 l 221 956 l 154 1215 m 190 894 l 378 894 l 189 0 l 1 0 l 190 894 z "},"Ỉ":{"ha":347,"x_min":1,"x_max":533,"o":"m 249 1067 q 352 1085 324 1071 q 388 1133 381 1100 q 389 1144 389 1138 q 304 1188 389 1188 q 258 1183 283 1188 q 214 1172 232 1179 l 235 1265 q 376 1283 292 1283 q 493 1256 453 1283 q 533 1178 533 1228 q 531 1150 533 1169 q 484 1061 518 1092 q 382 1018 450 1031 l 368 954 l 225 954 l 249 1067 m 190 894 l 378 894 l 189 0 l 1 0 l 190 894 z "},"Ī":{"ha":347,"x_min":1,"x_max":547,"o":"m 119 1118 l 547 1118 l 524 1003 l 96 1003 l 119 1118 m 190 894 l 378 894 l 189 0 l 1 0 l 190 894 z "},"Į":{"ha":347,"x_min":-110,"x_max":378,"o":"m 26 -306 q -72 -280 -33 -306 q -110 -207 -110 -254 q -107 -179 -110 -199 q -60 -80 -96 -126 q 32 0 -24 -33 l 1 0 l 190 894 l 378 894 l 189 0 l 171 0 q 47 -144 63 -68 q 46 -158 46 -150 q 100 -196 46 -196 q 169 -181 139 -196 l 147 -286 q 93 -300 126 -294 q 26 -306 60 -306 z "},"Ĩ":{"ha":347,"x_min":1,"x_max":569,"o":"m 421 972 q 368 979 393 972 q 304 1001 343 986 q 208 1028 243 1028 q 72 976 132 1028 l 101 1110 q 160 1141 125 1129 q 231 1153 194 1153 q 285 1145 260 1153 q 342 1124 311 1138 q 398 1103 378 1110 q 443 1097 418 1097 q 569 1150 521 1097 l 540 1017 q 491 985 524 997 q 421 972 458 972 m 190 894 l 378 894 l 189 0 l 1 0 l 190 894 z "},"J":{"ha":606,"x_min":-51,"x_max":644,"o":"m 142 -14 q -51 18 29 -14 l -18 176 q 139 146 47 146 q 272 181 229 146 q 331 297 314 215 l 457 894 l 644 894 l 510 256 q 391 53 481 119 q 142 -14 301 -14 z "},"Ĵ":{"ha":606,"x_min":-51,"x_max":814,"o":"m 558 1197 l 678 1197 l 814 956 l 676 956 l 603 1094 l 474 956 l 321 956 l 558 1197 m 142 -14 q -51 18 29 -14 l -18 176 q 139 146 47 146 q 272 181 229 146 q 331 297 314 215 l 457 894 l 644 894 l 510 256 q 391 53 481 119 q 142 -14 301 -14 z "},"K":{"ha":894,"x_min":1,"x_max":938,"o":"m 190 894 l 378 894 l 297 515 l 722 894 l 938 894 l 538 532 l 765 0 l 565 0 l 396 413 l 249 283 l 189 0 l 1 0 l 190 894 z "},"Ķ":{"ha":894,"x_min":1,"x_max":938,"o":"m 190 894 l 378 894 l 297 515 l 722 894 l 938 894 l 538 532 l 765 0 l 565 0 l 396 413 l 249 283 l 189 0 l 1 0 l 190 894 m 290 -51 l 438 -51 l 308 -331 l 189 -331 l 290 -51 z "},"L":{"ha":731,"x_min":1,"x_max":660,"o":"m 190 894 l 378 894 l 219 144 l 660 144 l 629 0 l 1 0 l 190 894 z "},"Ĺ":{"ha":731,"x_min":1,"x_max":660,"o":"m 393 1215 l 556 1215 l 378 956 l 226 956 l 393 1215 m 190 894 l 378 894 l 219 144 l 660 144 l 629 0 l 1 0 l 190 894 z "},"Ľ":{"ha":731,"x_min":1,"x_max":785,"o":"m 638 1063 l 785 1063 l 656 783 l 536 783 l 638 1063 m 190 894 l 378 894 l 219 144 l 660 144 l 629 0 l 1 0 l 190 894 z "},"Ļ":{"ha":731,"x_min":1,"x_max":660,"o":"m 190 894 l 378 894 l 219 144 l 660 144 l 629 0 l 1 0 l 190 894 m 253 -51 l 400 -51 l 271 -331 l 151 -331 l 253 -51 z "},"Ŀ":{"ha":731,"x_min":1,"x_max":660,"o":"m 190 894 l 378 894 l 219 144 l 660 144 l 629 0 l 1 0 l 190 894 m 461 519 l 607 519 l 578 383 l 432 383 l 461 519 z "},"Ḷ":{"ha":731,"x_min":1,"x_max":660,"o":"m 190 894 l 378 894 l 219 144 l 660 144 l 629 0 l 1 0 l 190 894 m 207 -114 l 356 -114 l 326 -251 l 178 -251 l 207 -114 z "},"Ḹ":{"ha":753,"x_min":24,"x_max":682,"o":"m 165 1111 l 592 1111 l 568 996 l 142 996 l 165 1111 m 213 894 l 400 894 l 242 144 l 682 144 l 651 0 l 24 0 l 213 894 m 229 -114 l 378 -114 l 349 -251 l 200 -251 l 229 -114 z "},"Ḻ":{"ha":731,"x_min":1,"x_max":660,"o":"m 190 894 l 378 894 l 219 144 l 660 144 l 629 0 l 1 0 l 190 894 m 71 -104 l 497 -104 l 474 -219 l 47 -219 l 71 -104 z "},"Ł":{"ha":731,"x_min":-37,"x_max":660,"o":"m 660 144 l 629 0 l 1 0 l 76 358 l -37 313 l -8 447 l 106 493 l 190 894 l 378 894 l 310 575 l 500 651 l 472 517 l 282 440 l 219 144 l 660 144 z "},"M":{"ha":1060,"x_min":1,"x_max":1092,"o":"m 190 894 l 372 894 l 521 357 l 897 894 l 1092 894 l 903 0 l 715 0 l 839 582 l 539 154 l 431 154 l 313 582 l 189 0 l 1 0 l 190 894 z "},"Ṃ":{"ha":1060,"x_min":1,"x_max":1092,"o":"m 190 894 l 372 894 l 521 357 l 897 894 l 1092 894 l 903 0 l 715 0 l 839 582 l 539 154 l 431 154 l 313 582 l 189 0 l 1 0 l 190 894 m 372 -114 l 521 -114 l 492 -251 l 343 -251 l 372 -114 z "},"N":{"ha":932,"x_min":1,"x_max":964,"o":"m 190 894 l 353 894 l 650 299 l 776 894 l 964 894 l 775 0 l 613 0 l 315 596 l 189 0 l 1 0 l 190 894 z "},"Ń":{"ha":932,"x_min":1,"x_max":964,"o":"m 667 1215 l 829 1215 l 651 956 l 500 956 l 667 1215 m 190 894 l 353 894 l 650 299 l 776 894 l 964 894 l 775 0 l 613 0 l 315 596 l 189 0 l 1 0 l 190 894 z "},"Ň":{"ha":932,"x_min":1,"x_max":964,"o":"m 400 1197 l 539 1197 l 608 1058 l 742 1197 l 893 1197 l 654 956 l 535 956 l 400 1197 m 190 894 l 353 894 l 650 299 l 776 894 l 964 894 l 775 0 l 613 0 l 315 596 l 189 0 l 1 0 l 190 894 z "},"Ņ":{"ha":932,"x_min":1,"x_max":964,"o":"m 190 894 l 353 894 l 650 299 l 776 894 l 964 894 l 775 0 l 613 0 l 315 596 l 189 0 l 1 0 l 190 894 m 315 -51 l 463 -51 l 333 -331 l 214 -331 l 315 -51 z "},"Ṅ":{"ha":932,"x_min":1,"x_max":964,"o":"m 565 1126 l 711 1126 l 682 990 l 536 990 l 565 1126 m 190 894 l 353 894 l 650 299 l 776 894 l 964 894 l 775 0 l 613 0 l 315 596 l 189 0 l 1 0 l 190 894 z "},"Ṇ":{"ha":932,"x_min":1,"x_max":964,"o":"m 190 894 l 353 894 l 650 299 l 776 894 l 964 894 l 775 0 l 613 0 l 315 596 l 189 0 l 1 0 l 190 894 m 293 -114 l 442 -114 l 413 -251 l 264 -251 l 293 -114 z "},"Ŋ":{"ha":932,"x_min":1,"x_max":964,"o":"m 478 -325 q 333 -300 390 -325 l 360 -171 q 440 -185 400 -185 q 528 -162 497 -185 q 568 -89 558 -139 l 594 35 l 315 596 l 189 0 l 1 0 l 190 894 l 353 894 l 650 299 l 776 894 l 964 894 l 751 -107 q 660 -267 729 -208 q 478 -325 590 -325 z "},"Ṉ":{"ha":932,"x_min":1,"x_max":964,"o":"m 190 894 l 353 894 l 650 299 l 776 894 l 964 894 l 775 0 l 613 0 l 315 596 l 189 0 l 1 0 l 190 894 m 158 -100 l 585 -100 l 561 -215 l 135 -215 l 158 -100 z "},"Ñ":{"ha":932,"x_min":1,"x_max":964,"o":"m 725 972 q 672 979 697 972 q 608 1001 647 986 q 513 1028 547 1028 q 376 976 436 1028 l 406 1110 q 464 1141 429 1129 q 535 1153 499 1153 q 590 1145 564 1153 q 646 1124 615 1138 q 702 1103 682 1110 q 747 1097 722 1097 q 874 1150 825 1097 l 844 1017 q 795 985 828 997 q 725 972 763 972 m 190 894 l 353 894 l 650 299 l 776 894 l 964 894 l 775 0 l 613 0 l 315 596 l 189 0 l 1 0 l 190 894 z "},"O":{"ha":972,"x_min":50,"x_max":956,"o":"m 404 -14 q 141 65 232 -14 q 50 299 50 143 q 67 443 50 364 q 245 799 118 689 q 601 908 372 908 q 866 835 776 908 q 956 604 956 761 q 936 443 956 536 q 758 98 886 210 q 404 -14 631 -14 m 439 146 q 638 218 564 146 q 746 443 713 290 q 765 589 765 533 q 719 712 765 675 q 567 749 672 749 q 364 678 438 749 q 257 443 290 608 q 242 315 242 364 q 288 186 242 226 q 439 146 335 146 z "},"Ó":{"ha":972,"x_min":50,"x_max":956,"o":"m 692 1215 l 854 1215 l 676 956 l 525 956 l 692 1215 m 404 -14 q 141 65 232 -14 q 50 299 50 143 q 67 443 50 364 q 245 799 118 689 q 601 908 372 908 q 866 835 776 908 q 956 604 956 761 q 936 443 956 536 q 758 98 886 210 q 404 -14 631 -14 m 439 146 q 638 218 564 146 q 746 443 713 290 q 765 589 765 533 q 719 712 765 675 q 567 749 672 749 q 364 678 438 749 q 257 443 290 608 q 242 315 242 364 q 288 186 242 226 q 439 146 335 146 z "},"Ŏ":{"ha":972,"x_min":50,"x_max":956,"o":"m 610 956 q 481 998 528 956 q 433 1115 433 1040 q 440 1174 433 1139 l 557 1174 q 553 1133 553 1153 q 626 1064 553 1064 q 704 1096 672 1064 q 746 1174 736 1128 l 878 1174 q 788 1013 856 1069 q 610 956 719 956 m 404 -14 q 141 65 232 -14 q 50 299 50 143 q 67 443 50 364 q 245 799 118 689 q 601 908 372 908 q 866 835 776 908 q 956 604 956 761 q 936 443 956 536 q 758 98 886 210 q 404 -14 631 -14 m 439 146 q 638 218 564 146 q 746 443 713 290 q 765 589 765 533 q 719 712 765 675 q 567 749 672 749 q 364 678 438 749 q 257 443 290 608 q 242 315 242 364 q 288 186 242 226 q 439 146 335 146 z "},"Ǒ":{"ha":972,"x_min":50,"x_max":956,"o":"m 417 1197 l 556 1197 l 625 1058 l 758 1197 l 910 1197 l 671 956 l 551 956 l 417 1197 m 404 -14 q 141 65 232 -14 q 50 299 50 143 q 67 443 50 364 q 245 799 118 689 q 601 908 372 908 q 866 835 776 908 q 956 604 956 761 q 936 443 956 536 q 758 98 886 210 q 404 -14 631 -14 m 439 146 q 638 218 564 146 q 746 443 713 290 q 765 589 765 533 q 719 712 765 675 q 567 749 672 749 q 364 678 438 749 q 257 443 290 608 q 242 315 242 364 q 288 186 242 226 q 439 146 335 146 z "},"Ô":{"ha":972,"x_min":50,"x_max":956,"o":"m 603 1197 l 722 1197 l 858 956 l 721 956 l 647 1094 l 518 956 l 365 956 l 603 1197 m 404 -14 q 141 65 232 -14 q 50 299 50 143 q 67 443 50 364 q 245 799 118 689 q 601 908 372 908 q 866 835 776 908 q 956 604 956 761 q 936 443 956 536 q 758 98 886 210 q 404 -14 631 -14 m 439 146 q 638 218 564 146 q 746 443 713 290 q 765 589 765 533 q 719 712 765 675 q 567 749 672 749 q 364 678 438 749 q 257 443 290 608 q 242 315 242 364 q 288 186 242 226 q 439 146 335 146 z "},"Ố":{"ha":972,"x_min":50,"x_max":1064,"o":"m 922 1313 l 1064 1313 l 921 1117 l 790 1117 l 922 1313 m 582 1142 l 725 1142 l 861 954 l 717 954 l 646 1067 l 529 954 l 368 954 l 582 1142 m 404 -14 q 141 65 232 -14 q 50 299 50 143 q 67 443 50 364 q 245 799 118 689 q 601 908 372 908 q 866 835 776 908 q 956 604 956 761 q 936 443 956 536 q 758 98 886 210 q 404 -14 631 -14 m 439 146 q 638 218 564 146 q 746 443 713 290 q 765 589 765 533 q 719 712 765 675 q 567 749 672 749 q 364 678 438 749 q 257 443 290 608 q 242 315 242 364 q 288 186 242 226 q 439 146 335 146 z "},"Ộ":{"ha":972,"x_min":50,"x_max":956,"o":"m 606 1211 l 725 1211 l 861 969 l 724 969 l 650 1108 l 521 969 l 368 969 l 606 1211 m 404 -14 q 141 65 232 -14 q 50 299 50 143 q 67 443 50 364 q 245 799 118 689 q 601 908 372 908 q 866 835 776 908 q 956 604 956 761 q 936 443 956 536 q 758 98 886 210 q 404 -14 631 -14 m 439 146 q 638 218 564 146 q 746 443 713 290 q 765 589 765 533 q 719 712 765 675 q 567 749 672 749 q 364 678 438 749 q 257 443 290 608 q 242 315 242 364 q 288 186 242 226 q 439 146 335 146 m 311 -114 l 460 -114 l 431 -251 l 282 -251 l 311 -114 z "},"Ồ":{"ha":972,"x_min":50,"x_max":956,"o":"m 310 1313 l 451 1313 l 501 1117 l 369 1117 l 310 1313 m 575 1142 l 718 1142 l 854 954 l 710 954 l 639 1067 l 522 954 l 361 954 l 575 1142 m 404 -14 q 141 65 232 -14 q 50 299 50 143 q 67 443 50 364 q 245 799 118 689 q 601 908 372 908 q 866 835 776 908 q 956 604 956 761 q 936 443 956 536 q 758 98 886 210 q 404 -14 631 -14 m 439 146 q 638 218 564 146 q 746 443 713 290 q 765 589 765 533 q 719 712 765 675 q 567 749 672 749 q 364 678 438 749 q 257 443 290 608 q 242 315 242 364 q 288 186 242 226 q 439 146 335 146 z "},"Ổ":{"ha":972,"x_min":50,"x_max":1057,"o":"m 808 1183 q 893 1197 869 1186 q 921 1232 917 1208 q 912 1261 925 1253 q 867 1269 899 1269 q 789 1253 829 1269 l 808 1339 q 925 1356 861 1356 q 1023 1331 989 1356 q 1057 1265 1057 1307 q 1054 1243 1057 1260 q 925 1133 1035 1150 l 915 1086 l 788 1086 l 808 1183 m 574 1142 l 717 1142 l 853 954 l 708 954 l 638 1067 l 521 954 l 360 954 l 574 1142 m 404 -14 q 141 65 232 -14 q 50 299 50 143 q 67 443 50 364 q 245 799 118 689 q 601 908 372 908 q 866 835 776 908 q 956 604 956 761 q 936 443 956 536 q 758 98 886 210 q 404 -14 631 -14 m 439 146 q 638 218 564 146 q 746 443 713 290 q 765 589 765 533 q 719 712 765 675 q 567 749 672 749 q 364 678 438 749 q 257 443 290 608 q 242 315 242 364 q 288 186 242 226 q 439 146 335 146 z "},"Ỗ":{"ha":972,"x_min":50,"x_max":956,"o":"m 783 1201 q 729 1209 754 1201 q 668 1231 704 1217 q 572 1257 607 1257 q 436 1206 493 1257 l 461 1325 q 520 1356 485 1344 q 592 1368 556 1368 q 701 1339 640 1368 q 758 1319 738 1325 q 803 1313 778 1313 q 928 1365 882 1313 l 904 1246 q 853 1214 886 1226 q 783 1201 821 1201 m 613 956 q 475 994 528 956 q 422 1114 422 1033 q 429 1172 422 1138 l 536 1172 q 531 1129 531 1150 q 554 1073 531 1092 q 629 1054 578 1054 q 771 1172 744 1054 l 886 1172 q 792 1008 861 1060 q 613 956 724 956 m 404 -14 q 141 65 232 -14 q 50 299 50 143 q 67 443 50 364 q 245 799 118 689 q 601 908 372 908 q 866 835 776 908 q 956 604 956 761 q 936 443 956 536 q 758 98 886 210 q 404 -14 631 -14 m 439 146 q 638 218 564 146 q 746 443 713 290 q 765 589 765 533 q 719 712 765 675 q 567 749 672 749 q 364 678 438 749 q 257 443 290 608 q 242 315 242 364 q 288 186 242 226 q 439 146 335 146 z "},"Ö":{"ha":972,"x_min":50,"x_max":956,"o":"m 439 1126 l 585 1126 l 556 990 l 410 990 l 439 1126 m 710 1126 l 857 1126 l 828 990 l 681 990 l 710 1126 m 404 -14 q 141 65 232 -14 q 50 299 50 143 q 67 443 50 364 q 245 799 118 689 q 601 908 372 908 q 866 835 776 908 q 956 604 956 761 q 936 443 956 536 q 758 98 886 210 q 404 -14 631 -14 m 439 146 q 638 218 564 146 q 746 443 713 290 q 765 589 765 533 q 719 712 765 675 q 567 749 672 749 q 364 678 438 749 q 257 443 290 608 q 242 315 242 364 q 288 186 242 226 q 439 146 335 146 z "},"Ọ":{"ha":972,"x_min":50,"x_max":956,"o":"m 404 -14 q 141 65 232 -14 q 50 299 50 143 q 67 443 50 364 q 245 799 118 689 q 601 908 372 908 q 866 835 776 908 q 956 604 956 761 q 936 443 956 536 q 758 98 886 210 q 404 -14 631 -14 m 439 146 q 638 218 564 146 q 746 443 713 290 q 765 589 765 533 q 719 712 765 675 q 567 749 672 749 q 364 678 438 749 q 257 443 290 608 q 242 315 242 364 q 288 186 242 226 q 439 146 335 146 m 311 -114 l 460 -114 l 431 -251 l 282 -251 l 311 -114 z "},"Ò":{"ha":972,"x_min":50,"x_max":956,"o":"m 476 1215 l 639 1215 l 694 956 l 543 956 l 476 1215 m 404 -14 q 141 65 232 -14 q 50 299 50 143 q 67 443 50 364 q 245 799 118 689 q 601 908 372 908 q 866 835 776 908 q 956 604 956 761 q 936 443 956 536 q 758 98 886 210 q 404 -14 631 -14 m 439 146 q 638 218 564 146 q 746 443 713 290 q 765 589 765 533 q 719 712 765 675 q 567 749 672 749 q 364 678 438 749 q 257 443 290 608 q 242 315 242 364 q 288 186 242 226 q 439 146 335 146 z "},"Ỏ":{"ha":972,"x_min":50,"x_max":956,"o":"m 564 1067 q 667 1085 639 1071 q 703 1133 696 1100 q 704 1144 704 1138 q 619 1188 704 1188 q 573 1183 599 1188 q 529 1172 547 1179 l 550 1265 q 692 1283 607 1283 q 808 1256 768 1283 q 849 1178 849 1228 q 846 1150 849 1169 q 799 1061 833 1092 q 697 1018 765 1031 l 683 954 l 540 954 l 564 1067 m 404 -14 q 141 65 232 -14 q 50 299 50 143 q 67 443 50 364 q 245 799 118 689 q 601 908 372 908 q 866 835 776 908 q 956 604 956 761 q 936 443 956 536 q 758 98 886 210 q 404 -14 631 -14 m 439 146 q 638 218 564 146 q 746 443 713 290 q 765 589 765 533 q 719 712 765 675 q 567 749 672 749 q 364 678 438 749 q 257 443 290 608 q 242 315 242 364 q 288 186 242 226 q 439 146 335 146 z "},"Ơ":{"ha":1083,"x_min":50,"x_max":1190,"o":"m 404 -14 q 141 65 232 -14 q 50 299 50 143 q 67 443 50 364 q 245 799 118 689 q 601 908 372 908 q 894 806 810 908 q 1001 841 965 808 q 1056 956 1038 874 l 1190 956 q 1105 767 1163 828 q 947 689 1047 706 q 954 603 954 656 q 936 443 954 529 q 758 98 886 210 q 404 -14 631 -14 m 439 146 q 638 218 564 146 q 746 443 713 290 q 765 589 765 533 q 719 712 765 675 q 567 749 672 749 q 364 678 438 749 q 257 443 290 608 q 242 315 242 364 q 288 186 242 226 q 439 146 335 146 z "},"Ớ":{"ha":1083,"x_min":50,"x_max":1190,"o":"m 715 1215 l 878 1215 l 700 956 l 549 956 l 715 1215 m 404 -14 q 141 65 232 -14 q 50 299 50 143 q 67 443 50 364 q 245 799 118 689 q 601 908 372 908 q 894 806 810 908 q 1001 841 965 808 q 1056 956 1038 874 l 1190 956 q 1105 767 1163 828 q 947 689 1047 706 q 954 603 954 656 q 936 443 954 529 q 758 98 886 210 q 404 -14 631 -14 m 439 146 q 638 218 564 146 q 746 443 713 290 q 765 589 765 533 q 719 712 765 675 q 567 749 672 749 q 364 678 438 749 q 257 443 290 608 q 242 315 242 364 q 288 186 242 226 q 439 146 335 146 z "},"Ợ":{"ha":1083,"x_min":50,"x_max":1190,"o":"m 404 -14 q 141 65 232 -14 q 50 299 50 143 q 67 443 50 364 q 245 799 118 689 q 601 908 372 908 q 894 806 810 908 q 1001 841 965 808 q 1056 956 1038 874 l 1190 956 q 1105 767 1163 828 q 947 689 1047 706 q 954 603 954 656 q 936 443 954 529 q 758 98 886 210 q 404 -14 631 -14 m 439 146 q 638 218 564 146 q 746 443 713 290 q 765 589 765 533 q 719 712 765 675 q 567 749 672 749 q 364 678 438 749 q 257 443 290 608 q 242 315 242 364 q 288 186 242 226 q 439 146 335 146 m 315 -114 l 464 -114 l 435 -251 l 286 -251 l 315 -114 z "},"Ờ":{"ha":1083,"x_min":50,"x_max":1190,"o":"m 504 1215 l 667 1215 l 722 956 l 571 956 l 504 1215 m 404 -14 q 141 65 232 -14 q 50 299 50 143 q 67 443 50 364 q 245 799 118 689 q 601 908 372 908 q 894 806 810 908 q 1001 841 965 808 q 1056 956 1038 874 l 1190 956 q 1105 767 1163 828 q 947 689 1047 706 q 954 603 954 656 q 936 443 954 529 q 758 98 886 210 q 404 -14 631 -14 m 439 146 q 638 218 564 146 q 746 443 713 290 q 765 589 765 533 q 719 712 765 675 q 567 749 672 749 q 364 678 438 749 q 257 443 290 608 q 242 315 242 364 q 288 186 242 226 q 439 146 335 146 z "},"Ở":{"ha":1083,"x_min":50,"x_max":1190,"o":"m 569 1067 q 673 1085 644 1071 q 708 1133 701 1100 q 710 1144 710 1138 q 625 1188 710 1188 q 578 1183 604 1188 q 535 1172 553 1179 l 556 1265 q 697 1283 613 1283 q 814 1256 774 1283 q 854 1178 854 1228 q 851 1150 854 1169 q 805 1061 839 1092 q 703 1018 771 1031 l 689 954 l 546 954 l 569 1067 m 404 -14 q 141 65 232 -14 q 50 299 50 143 q 67 443 50 364 q 245 799 118 689 q 601 908 372 908 q 894 806 810 908 q 1001 841 965 808 q 1056 956 1038 874 l 1190 956 q 1105 767 1163 828 q 947 689 1047 706 q 954 603 954 656 q 936 443 954 529 q 758 98 886 210 q 404 -14 631 -14 m 439 146 q 638 218 564 146 q 746 443 713 290 q 765 589 765 533 q 719 712 765 675 q 567 749 672 749 q 364 678 438 749 q 257 443 290 608 q 242 315 242 364 q 288 186 242 226 q 439 146 335 146 z "},"Ỡ":{"ha":1083,"x_min":50,"x_max":1190,"o":"m 749 968 q 696 975 721 968 q 632 997 671 982 q 536 1024 571 1024 q 400 972 460 1024 l 429 1106 q 488 1137 453 1125 q 558 1149 522 1149 q 613 1141 588 1149 q 669 1119 639 1133 q 726 1099 706 1106 q 771 1093 746 1093 q 897 1146 849 1093 l 868 1013 q 819 981 851 993 q 749 968 786 968 m 404 -14 q 141 65 232 -14 q 50 299 50 143 q 67 443 50 364 q 245 799 118 689 q 601 908 372 908 q 894 806 810 908 q 1001 841 965 808 q 1056 956 1038 874 l 1190 956 q 1105 767 1163 828 q 947 689 1047 706 q 954 603 954 656 q 936 443 954 529 q 758 98 886 210 q 404 -14 631 -14 m 439 146 q 638 218 564 146 q 746 443 713 290 q 765 589 765 533 q 719 712 765 675 q 567 749 672 749 q 364 678 438 749 q 257 443 290 608 q 242 315 242 364 q 288 186 242 226 q 439 146 335 146 z "},"Ő":{"ha":972,"x_min":50,"x_max":983,"o":"m 501 1199 l 667 1199 l 488 954 l 339 954 l 501 1199 m 817 1199 l 983 1199 l 803 954 l 654 954 l 817 1199 m 404 -14 q 141 65 232 -14 q 50 299 50 143 q 67 443 50 364 q 245 799 118 689 q 601 908 372 908 q 866 835 776 908 q 956 604 956 761 q 936 443 956 536 q 758 98 886 210 q 404 -14 631 -14 m 439 146 q 638 218 564 146 q 746 443 713 290 q 765 589 765 533 q 719 712 765 675 q 567 749 672 749 q 364 678 438 749 q 257 443 290 608 q 242 315 242 364 q 288 186 242 226 q 439 146 335 146 z "},"Ō":{"ha":972,"x_min":50,"x_max":956,"o":"m 428 1119 l 854 1119 l 831 1004 l 404 1004 l 428 1119 m 404 -14 q 141 65 232 -14 q 50 299 50 143 q 67 443 50 364 q 245 799 118 689 q 601 908 372 908 q 866 835 776 908 q 956 604 956 761 q 936 443 956 536 q 758 98 886 210 q 404 -14 631 -14 m 439 146 q 638 218 564 146 q 746 443 713 290 q 765 589 765 533 q 719 712 765 675 q 567 749 672 749 q 364 678 438 749 q 257 443 290 608 q 242 315 242 364 q 288 186 242 226 q 439 146 335 146 z "},"Ø":{"ha":972,"x_min":50,"x_max":956,"o":"m 190 31 q 50 297 50 103 q 67 443 50 364 q 245 799 118 689 q 601 908 372 908 q 707 900 658 908 l 744 963 l 851 963 l 799 874 q 956 604 956 808 q 936 443 956 536 q 758 98 886 210 q 404 -14 631 -14 q 279 -1 336 -14 l 236 -74 l 129 -74 l 190 31 m 615 746 q 567 749 585 749 q 364 678 438 749 q 257 443 290 608 q 242 315 242 364 q 285 189 242 231 l 615 746 m 439 146 q 638 218 564 146 q 746 443 713 290 q 765 588 765 532 q 707 719 765 685 l 369 151 q 439 146 397 146 z "},"Ǿ":{"ha":972,"x_min":50,"x_max":956,"o":"m 665 1215 l 828 1215 l 650 956 l 499 956 l 665 1215 m 190 31 q 50 297 50 103 q 67 443 50 364 q 245 799 118 689 q 601 908 372 908 q 707 900 658 908 l 744 963 l 851 963 l 799 874 q 956 604 956 808 q 936 443 956 536 q 758 98 886 210 q 404 -14 631 -14 q 279 -1 336 -14 l 236 -74 l 129 -74 l 190 31 m 615 746 q 567 749 585 749 q 364 678 438 749 q 257 443 290 608 q 242 315 242 364 q 285 189 242 231 l 615 746 m 439 146 q 638 218 564 146 q 746 443 713 290 q 765 588 765 532 q 707 719 765 685 l 369 151 q 439 146 397 146 z "},"Õ":{"ha":972,"x_min":50,"x_max":956,"o":"m 738 986 q 685 993 710 986 q 621 1015 660 1000 q 525 1042 560 1042 q 389 990 449 1042 l 418 1124 q 476 1155 442 1143 q 547 1167 511 1167 q 602 1159 576 1167 q 658 1138 628 1151 q 715 1117 694 1124 q 760 1111 735 1111 q 886 1164 838 1111 l 857 1031 q 808 999 840 1011 q 738 986 775 986 m 404 -14 q 141 65 232 -14 q 50 299 50 143 q 67 443 50 364 q 245 799 118 689 q 601 908 372 908 q 866 835 776 908 q 956 604 956 761 q 936 443 956 536 q 758 98 886 210 q 404 -14 631 -14 m 439 146 q 638 218 564 146 q 746 443 713 290 q 765 589 765 533 q 719 712 765 675 q 567 749 672 749 q 364 678 438 749 q 257 443 290 608 q 242 315 242 364 q 288 186 242 226 q 439 146 335 146 z "},"Œ":{"ha":1426,"x_min":50,"x_max":1486,"o":"m 1001 749 l 953 519 l 1356 519 l 1325 375 l 922 375 l 874 144 l 1328 144 l 1297 0 l 656 0 l 664 36 q 404 -14 556 -14 q 141 65 232 -14 q 50 299 50 143 q 67 443 50 364 q 245 799 118 689 q 601 908 372 908 q 836 856 751 908 l 844 894 l 1486 894 l 1456 749 l 1001 749 m 439 146 q 638 218 564 146 q 746 443 713 290 q 765 589 765 533 q 719 712 765 675 q 567 749 672 749 q 364 678 438 749 q 257 443 290 608 q 242 315 242 364 q 288 186 242 226 q 439 146 335 146 z "},"P":{"ha":831,"x_min":1,"x_max":860,"o":"m 190 894 l 599 894 q 792 828 724 894 q 860 658 860 763 q 851 586 860 624 q 728 362 821 443 q 482 281 636 281 l 247 281 l 189 0 l 1 0 l 190 894 m 467 429 q 663 586 631 429 q 671 649 671 622 q 640 722 671 697 q 542 746 610 746 l 347 746 l 279 429 l 467 429 z "},"Þ":{"ha":831,"x_min":1,"x_max":831,"o":"m 190 894 l 378 894 l 349 753 l 581 753 q 767 691 703 753 q 831 525 831 629 q 822 444 831 486 q 697 220 792 301 q 444 139 603 139 l 218 139 l 189 0 l 1 0 l 190 894 m 436 288 q 633 444 599 288 q 640 504 640 482 q 610 579 640 554 q 511 604 581 604 l 317 604 l 249 288 l 436 288 z "},"Q":{"ha":972,"x_min":50,"x_max":956,"o":"m 483 -239 q 353 -196 399 -239 q 307 -72 307 -153 q 314 -7 307 -46 q 117 88 185 13 q 50 297 50 164 q 67 443 50 364 q 245 799 118 689 q 601 908 372 908 q 866 835 776 908 q 956 604 956 761 q 936 443 956 536 q 777 116 890 228 q 471 -11 664 4 q 467 -50 467 -35 q 486 -94 467 -82 q 554 -106 506 -106 q 657 -90 607 -106 l 629 -221 q 561 -234 601 -229 q 483 -239 521 -239 m 439 146 q 638 218 564 146 q 746 443 713 290 q 765 589 765 533 q 719 712 765 675 q 567 749 672 749 q 364 678 438 749 q 257 443 290 608 q 242 315 242 364 q 288 186 242 226 q 439 146 335 146 z "},"R":{"ha":858,"x_min":1,"x_max":864,"o":"m 190 894 l 619 894 q 801 837 738 894 q 864 678 864 779 q 854 594 864 635 q 775 436 835 503 q 624 344 715 369 q 650 306 640 326 q 667 250 660 285 l 722 0 l 528 0 l 472 240 q 450 284 464 272 q 399 296 436 296 l 251 296 l 189 0 l 1 0 l 190 894 m 478 451 q 602 485 556 451 q 664 594 649 519 q 671 653 671 622 q 643 719 671 699 q 550 739 615 739 l 346 739 l 285 451 l 478 451 z "},"Ŕ":{"ha":858,"x_min":1,"x_max":864,"o":"m 615 1215 l 778 1215 l 600 956 l 449 956 l 615 1215 m 190 894 l 619 894 q 801 837 738 894 q 864 678 864 779 q 854 594 864 635 q 775 436 835 503 q 624 344 715 369 q 650 306 640 326 q 667 250 660 285 l 722 0 l 528 0 l 472 240 q 450 284 464 272 q 399 296 436 296 l 251 296 l 189 0 l 1 0 l 190 894 m 478 451 q 602 485 556 451 q 664 594 649 519 q 671 653 671 622 q 643 719 671 699 q 550 739 615 739 l 346 739 l 285 451 l 478 451 z "},"Ř":{"ha":858,"x_min":1,"x_max":864,"o":"m 349 1197 l 488 1197 l 557 1058 l 690 1197 l 842 1197 l 603 956 l 483 956 l 349 1197 m 190 894 l 619 894 q 801 837 738 894 q 864 678 864 779 q 854 594 864 635 q 775 436 835 503 q 624 344 715 369 q 650 306 640 326 q 667 250 660 285 l 722 0 l 528 0 l 472 240 q 450 284 464 272 q 399 296 436 296 l 251 296 l 189 0 l 1 0 l 190 894 m 478 451 q 602 485 556 451 q 664 594 649 519 q 671 653 671 622 q 643 719 671 699 q 550 739 615 739 l 346 739 l 285 451 l 478 451 z "},"Ŗ":{"ha":858,"x_min":1,"x_max":864,"o":"m 190 894 l 619 894 q 801 837 738 894 q 864 678 864 779 q 854 594 864 635 q 775 436 835 503 q 624 344 715 369 q 650 306 640 326 q 667 250 660 285 l 722 0 l 528 0 l 472 240 q 450 284 464 272 q 399 296 436 296 l 251 296 l 189 0 l 1 0 l 190 894 m 478 451 q 602 485 556 451 q 664 594 649 519 q 671 653 671 622 q 643 719 671 699 q 550 739 615 739 l 346 739 l 285 451 l 478 451 m 253 -51 l 400 -51 l 271 -331 l 151 -331 l 253 -51 z "},"Ṛ":{"ha":858,"x_min":1,"x_max":864,"o":"m 190 894 l 619 894 q 801 837 738 894 q 864 678 864 779 q 854 594 864 635 q 775 436 835 503 q 624 344 715 369 q 650 306 640 326 q 667 250 660 285 l 722 0 l 528 0 l 472 240 q 450 284 464 272 q 399 296 436 296 l 251 296 l 189 0 l 1 0 l 190 894 m 478 451 q 602 485 556 451 q 664 594 649 519 q 671 653 671 622 q 643 719 671 699 q 550 739 615 739 l 346 739 l 285 451 l 478 451 m 257 -114 l 406 -114 l 376 -251 l 228 -251 l 257 -114 z "},"Ṝ":{"ha":858,"x_min":1,"x_max":864,"o":"m 354 1111 l 781 1111 l 757 996 l 331 996 l 354 1111 m 190 894 l 619 894 q 801 837 738 894 q 864 678 864 779 q 854 594 864 635 q 775 436 835 503 q 624 344 715 369 q 650 306 640 326 q 667 250 660 285 l 722 0 l 528 0 l 472 240 q 450 284 464 272 q 399 296 436 296 l 251 296 l 189 0 l 1 0 l 190 894 m 478 451 q 602 485 556 451 q 664 594 649 519 q 671 653 671 622 q 643 719 671 699 q 550 739 615 739 l 346 739 l 285 451 l 478 451 m 233 -114 l 382 -114 l 353 -251 l 204 -251 l 233 -114 z "},"Ṟ":{"ha":858,"x_min":1,"x_max":864,"o":"m 190 894 l 619 894 q 801 837 738 894 q 864 678 864 779 q 854 594 864 635 q 775 436 835 503 q 624 344 715 369 q 650 306 640 326 q 667 250 660 285 l 722 0 l 528 0 l 472 240 q 450 284 464 272 q 399 296 436 296 l 251 296 l 189 0 l 1 0 l 190 894 m 478 451 q 602 485 556 451 q 664 594 649 519 q 671 653 671 622 q 643 719 671 699 q 550 739 615 739 l 346 739 l 285 451 l 478 451 m 101 -100 l 528 -100 l 504 -215 l 78 -215 l 101 -100 z "},"S":{"ha":771,"x_min":-3,"x_max":774,"o":"m 275 -14 q -3 35 97 -14 l 32 200 q 157 160 89 175 q 292 144 225 144 q 442 164 396 144 q 501 244 489 183 q 504 272 504 254 q 486 320 504 301 q 428 354 468 339 q 311 393 389 369 q 153 470 201 425 q 104 586 104 515 q 111 651 104 622 q 236 843 138 778 q 519 908 335 908 q 664 898 596 908 q 774 871 732 888 l 738 706 q 510 749 635 749 q 363 728 414 749 q 301 651 313 707 q 299 628 299 635 q 315 585 299 603 q 369 554 332 568 q 476 521 406 540 q 649 436 599 488 q 700 311 700 385 q 693 244 700 283 q 572 52 667 118 q 275 -14 476 -14 z "},"Ś":{"ha":771,"x_min":-3,"x_max":774,"o":"m 588 1224 l 750 1224 l 572 964 l 421 964 l 588 1224 m 275 -14 q -3 35 97 -14 l 32 200 q 157 160 89 175 q 292 144 225 144 q 442 164 396 144 q 501 244 489 183 q 504 272 504 254 q 486 320 504 301 q 428 354 468 339 q 311 393 389 369 q 153 470 201 425 q 104 586 104 515 q 111 651 104 622 q 236 843 138 778 q 519 908 335 908 q 664 898 596 908 q 774 871 732 888 l 738 706 q 510 749 635 749 q 363 728 414 749 q 301 651 313 707 q 299 628 299 635 q 315 585 299 603 q 369 554 332 568 q 476 521 406 540 q 649 436 599 488 q 700 311 700 385 q 693 244 700 283 q 572 52 667 118 q 275 -14 476 -14 z "},"Š":{"ha":771,"x_min":-3,"x_max":819,"o":"m 326 1197 l 465 1197 l 535 1058 l 668 1197 l 819 1197 l 581 956 l 461 956 l 326 1197 m 275 -14 q -3 35 97 -14 l 32 200 q 157 160 89 175 q 292 144 225 144 q 442 164 396 144 q 501 244 489 183 q 504 272 504 254 q 486 320 504 301 q 428 354 468 339 q 311 393 389 369 q 153 470 201 425 q 104 586 104 515 q 111 651 104 622 q 236 843 138 778 q 519 908 335 908 q 664 898 596 908 q 774 871 732 888 l 738 706 q 510 749 635 749 q 363 728 414 749 q 301 651 313 707 q 299 628 299 635 q 315 585 299 603 q 369 554 332 568 q 476 521 406 540 q 649 436 599 488 q 700 311 700 385 q 693 244 700 283 q 572 52 667 118 q 275 -14 476 -14 z "},"Ş":{"ha":771,"x_min":-3,"x_max":774,"o":"m 196 -333 q 140 -330 172 -333 q 93 -322 107 -326 l 114 -228 q 196 -239 151 -239 q 285 -229 260 -239 q 317 -187 311 -219 q 318 -174 318 -182 q 296 -143 318 -150 q 222 -136 274 -136 l 161 -136 l 222 -12 q -3 35 79 -6 l 32 200 q 157 160 89 175 q 292 144 225 144 q 442 164 396 144 q 501 244 489 183 q 504 272 504 254 q 486 320 504 301 q 428 354 468 339 q 311 393 389 369 q 153 470 201 425 q 104 586 104 515 q 111 651 104 622 q 236 843 138 778 q 519 908 335 908 q 664 898 596 908 q 774 871 732 888 l 738 706 q 510 749 635 749 q 363 728 414 749 q 301 651 313 707 q 299 628 299 635 q 315 585 299 603 q 369 554 332 568 q 476 521 406 540 q 649 436 599 488 q 700 311 700 385 q 693 244 700 283 q 589 65 668 129 q 344 -11 510 0 l 317 -62 q 410 -87 379 -62 q 440 -157 440 -112 q 438 -189 440 -178 q 363 -296 422 -258 q 196 -333 303 -333 z "},"Ŝ":{"ha":771,"x_min":-3,"x_max":774,"o":"m 496 1219 l 615 1219 l 751 978 l 614 978 l 540 1117 l 411 978 l 258 978 l 496 1219 m 275 -14 q -3 35 97 -14 l 32 200 q 157 160 89 175 q 292 144 225 144 q 442 164 396 144 q 501 244 489 183 q 504 272 504 254 q 486 320 504 301 q 428 354 468 339 q 311 393 389 369 q 153 470 201 425 q 104 586 104 515 q 111 651 104 622 q 236 843 138 778 q 519 908 335 908 q 664 898 596 908 q 774 871 732 888 l 738 706 q 510 749 635 749 q 363 728 414 749 q 301 651 313 707 q 299 628 299 635 q 315 585 299 603 q 369 554 332 568 q 476 521 406 540 q 649 436 599 488 q 700 311 700 385 q 693 244 700 283 q 572 52 667 118 q 275 -14 476 -14 z "},"Ș":{"ha":771,"x_min":-3,"x_max":774,"o":"m 275 -14 q -3 35 97 -14 l 32 200 q 157 160 89 175 q 292 144 225 144 q 442 164 396 144 q 501 244 489 183 q 504 272 504 254 q 486 320 504 301 q 428 354 468 339 q 311 393 389 369 q 153 470 201 425 q 104 586 104 515 q 111 651 104 622 q 236 843 138 778 q 519 908 335 908 q 664 898 596 908 q 774 871 732 888 l 738 706 q 510 749 635 749 q 363 728 414 749 q 301 651 313 707 q 299 628 299 635 q 315 585 299 603 q 369 554 332 568 q 476 521 406 540 q 649 436 599 488 q 700 311 700 385 q 693 244 700 283 q 572 52 667 118 q 275 -14 476 -14 m 219 -65 l 381 -65 l 269 -314 l 126 -314 l 219 -65 z "},"Ṡ":{"ha":771,"x_min":-3,"x_max":774,"o":"m 465 1126 l 611 1126 l 582 990 l 436 990 l 465 1126 m 275 -14 q -3 35 97 -14 l 32 200 q 157 160 89 175 q 292 144 225 144 q 442 164 396 144 q 501 244 489 183 q 504 272 504 254 q 486 320 504 301 q 428 354 468 339 q 311 393 389 369 q 153 470 201 425 q 104 586 104 515 q 111 651 104 622 q 236 843 138 778 q 519 908 335 908 q 664 898 596 908 q 774 871 732 888 l 738 706 q 510 749 635 749 q 363 728 414 749 q 301 651 313 707 q 299 628 299 635 q 315 585 299 603 q 369 554 332 568 q 476 521 406 540 q 649 436 599 488 q 700 311 700 385 q 693 244 700 283 q 572 52 667 118 q 275 -14 476 -14 z "},"Ṣ":{"ha":771,"x_min":-3,"x_max":774,"o":"m 275 -14 q -3 35 97 -14 l 32 200 q 157 160 89 175 q 292 144 225 144 q 442 164 396 144 q 501 244 489 183 q 504 272 504 254 q 486 320 504 301 q 428 354 468 339 q 311 393 389 369 q 153 470 201 425 q 104 586 104 515 q 111 651 104 622 q 236 843 138 778 q 519 908 335 908 q 664 898 596 908 q 774 871 732 888 l 738 706 q 510 749 635 749 q 363 728 414 749 q 301 651 313 707 q 299 628 299 635 q 315 585 299 603 q 369 554 332 568 q 476 521 406 540 q 649 436 599 488 q 700 311 700 385 q 693 244 700 283 q 572 52 667 118 q 275 -14 476 -14 m 206 -114 l 354 -114 l 325 -251 l 176 -251 l 206 -114 z "},"ẞ":{"ha":871,"x_min":-6,"x_max":846,"o":"m 463 -14 q 269 18 350 -14 l 303 176 q 376 154 333 163 q 460 146 418 146 q 621 260 597 146 q 625 290 625 276 q 599 340 625 325 q 513 356 572 356 l 382 356 l 413 503 l 671 644 q 674 668 674 661 q 518 756 674 756 q 369 714 424 756 q 296 588 314 672 l 172 0 l -6 0 l 117 579 q 551 908 188 908 q 771 842 696 908 q 846 668 846 775 q 839 601 846 640 l 594 471 l 629 471 q 753 425 704 471 q 801 304 801 379 q 796 257 801 279 q 684 61 769 136 q 463 -14 599 -14 z "},"Ə":{"ha":943,"x_min":42,"x_max":921,"o":"m 375 -14 q 130 63 218 -14 q 42 275 42 140 q 51 368 42 324 l 86 531 l 754 531 q 760 597 760 578 q 731 699 760 663 q 639 752 703 736 q 463 768 575 768 q 316 752 399 768 q 176 714 233 736 l 206 851 q 363 892 276 876 q 533 908 450 908 q 819 821 718 908 q 921 571 921 733 q 906 436 921 513 q 728 104 860 222 q 375 -14 596 -14 m 404 121 q 725 394 667 121 l 221 394 l 207 329 q 199 264 199 294 q 248 157 199 193 q 404 121 297 121 z "},"T":{"ha":783,"x_min":104,"x_max":871,"o":"m 379 750 l 104 750 l 135 894 l 871 894 l 840 750 l 567 750 l 408 0 l 221 0 l 379 750 z "},"Ŧ":{"ha":783,"x_min":104,"x_max":871,"o":"m 307 407 l 144 407 l 174 544 l 336 544 l 379 750 l 104 750 l 135 894 l 871 894 l 840 750 l 567 750 l 524 544 l 688 544 l 658 407 l 494 407 l 408 0 l 221 0 l 307 407 z "},"Ť":{"ha":783,"x_min":104,"x_max":871,"o":"m 326 1219 l 465 1219 l 535 1081 l 668 1219 l 819 1219 l 581 978 l 461 978 l 326 1219 m 379 750 l 104 750 l 135 894 l 871 894 l 840 750 l 567 750 l 408 0 l 221 0 l 379 750 z "},"Ţ":{"ha":783,"x_min":104,"x_max":871,"o":"m 224 -333 q 168 -330 200 -333 q 121 -322 136 -326 l 142 -228 q 224 -239 179 -239 q 313 -229 288 -239 q 344 -187 339 -219 q 346 -174 346 -182 q 324 -143 346 -150 q 250 -136 301 -136 l 189 -136 l 257 0 l 221 0 l 379 750 l 104 750 l 135 894 l 871 894 l 840 750 l 567 750 l 408 0 l 379 0 l 344 -62 q 438 -87 407 -62 q 468 -157 468 -112 q 465 -189 468 -178 q 390 -296 450 -258 q 224 -333 331 -333 z "},"Ț":{"ha":783,"x_min":104,"x_max":871,"o":"m 379 750 l 104 750 l 135 894 l 871 894 l 840 750 l 567 750 l 408 0 l 221 0 l 379 750 m 232 -65 l 379 -65 l 250 -344 l 131 -344 l 232 -65 z "},"Ṭ":{"ha":783,"x_min":104,"x_max":871,"o":"m 379 750 l 104 750 l 135 894 l 871 894 l 840 750 l 567 750 l 408 0 l 221 0 l 379 750 m 215 -100 l 364 -100 l 335 -237 l 186 -237 l 215 -100 z "},"Ṯ":{"ha":783,"x_min":58,"x_max":871,"o":"m 379 750 l 104 750 l 135 894 l 871 894 l 840 750 l 567 750 l 408 0 l 221 0 l 379 750 m 82 -86 l 508 -86 l 485 -201 l 58 -201 l 82 -86 z "},"U":{"ha":943,"x_min":56,"x_max":982,"o":"m 390 -14 q 147 57 238 -14 q 56 256 56 128 q 65 336 56 285 l 183 894 l 371 894 l 256 350 q 246 268 246 306 q 287 174 246 201 q 425 146 328 146 q 597 196 536 146 q 679 350 657 246 l 794 894 l 982 894 l 864 336 q 710 73 826 160 q 390 -14 593 -14 z "},"Ú":{"ha":943,"x_min":56,"x_max":982,"o":"m 682 1215 l 844 1215 l 667 956 l 515 956 l 682 1215 m 390 -14 q 147 57 238 -14 q 56 256 56 128 q 65 336 56 285 l 183 894 l 371 894 l 256 350 q 246 268 246 306 q 287 174 246 201 q 425 146 328 146 q 597 196 536 146 q 679 350 657 246 l 794 894 l 982 894 l 864 336 q 710 73 826 160 q 390 -14 593 -14 z "},"Ŭ":{"ha":943,"x_min":56,"x_max":982,"o":"m 588 956 q 458 998 506 956 q 411 1115 411 1040 q 418 1174 411 1139 l 535 1174 q 531 1133 531 1153 q 604 1064 531 1064 q 682 1096 650 1064 q 724 1174 714 1128 l 856 1174 q 765 1013 833 1069 q 588 956 697 956 m 390 -14 q 147 57 238 -14 q 56 256 56 128 q 65 336 56 285 l 183 894 l 371 894 l 256 350 q 246 268 246 306 q 287 174 246 201 q 425 146 328 146 q 597 196 536 146 q 679 350 657 246 l 794 894 l 982 894 l 864 336 q 710 73 826 160 q 390 -14 593 -14 z "},"Ǔ":{"ha":943,"x_min":56,"x_max":982,"o":"m 403 1197 l 542 1197 l 611 1058 l 744 1197 l 896 1197 l 657 956 l 538 956 l 403 1197 m 390 -14 q 147 57 238 -14 q 56 256 56 128 q 65 336 56 285 l 183 894 l 371 894 l 256 350 q 246 268 246 306 q 287 174 246 201 q 425 146 328 146 q 597 196 536 146 q 679 350 657 246 l 794 894 l 982 894 l 864 336 q 710 73 826 160 q 390 -14 593 -14 z "},"Û":{"ha":943,"x_min":56,"x_max":982,"o":"m 589 1197 l 708 1197 l 844 956 l 707 956 l 633 1094 l 504 956 l 351 956 l 589 1197 m 390 -14 q 147 57 238 -14 q 56 256 56 128 q 65 336 56 285 l 183 894 l 371 894 l 256 350 q 246 268 246 306 q 287 174 246 201 q 425 146 328 146 q 597 196 536 146 q 679 350 657 246 l 794 894 l 982 894 l 864 336 q 710 73 826 160 q 390 -14 593 -14 z "},"Ü":{"ha":943,"x_min":56,"x_max":982,"o":"m 425 1126 l 571 1126 l 542 990 l 396 990 l 425 1126 m 696 1126 l 843 1126 l 814 990 l 667 990 l 696 1126 m 390 -14 q 147 57 238 -14 q 56 256 56 128 q 65 336 56 285 l 183 894 l 371 894 l 256 350 q 246 268 246 306 q 287 174 246 201 q 425 146 328 146 q 597 196 536 146 q 679 350 657 246 l 794 894 l 982 894 l 864 336 q 710 73 826 160 q 390 -14 593 -14 z "},"Ǘ":{"ha":943,"x_min":56,"x_max":982,"o":"m 679 1292 l 821 1292 l 692 1113 l 560 1113 l 679 1292 m 415 1085 l 554 1085 l 526 956 l 388 956 l 415 1085 m 693 1085 l 833 1085 l 806 956 l 665 956 l 693 1085 m 390 -14 q 147 57 238 -14 q 56 256 56 128 q 65 336 56 285 l 183 894 l 371 894 l 256 350 q 246 268 246 306 q 287 174 246 201 q 425 146 328 146 q 597 196 536 146 q 679 350 657 246 l 794 894 l 982 894 l 864 336 q 710 73 826 160 q 390 -14 593 -14 z "},"Ǚ":{"ha":943,"x_min":56,"x_max":982,"o":"m 444 1276 l 576 1276 l 638 1175 l 743 1276 l 886 1276 l 694 1108 l 565 1108 l 444 1276 m 415 1085 l 556 1085 l 528 956 l 388 956 l 415 1085 m 694 1085 l 833 1085 l 806 956 l 667 956 l 694 1085 m 390 -14 q 147 57 238 -14 q 56 256 56 128 q 65 336 56 285 l 183 894 l 371 894 l 256 350 q 246 268 246 306 q 287 174 246 201 q 425 146 328 146 q 597 196 536 146 q 679 350 657 246 l 794 894 l 982 894 l 864 336 q 710 73 826 160 q 390 -14 593 -14 z "},"Ǜ":{"ha":943,"x_min":56,"x_max":982,"o":"m 511 1292 l 653 1292 l 697 1113 l 565 1113 l 511 1292 m 414 1085 l 553 1085 l 525 956 l 386 956 l 414 1085 m 692 1085 l 832 1085 l 804 956 l 664 956 l 692 1085 m 390 -14 q 147 57 238 -14 q 56 256 56 128 q 65 336 56 285 l 183 894 l 371 894 l 256 350 q 246 268 246 306 q 287 174 246 201 q 425 146 328 146 q 597 196 536 146 q 679 350 657 246 l 794 894 l 982 894 l 864 336 q 710 73 826 160 q 390 -14 593 -14 z "},"Ǖ":{"ha":943,"x_min":56,"x_max":982,"o":"m 451 1282 l 878 1282 l 854 1167 l 428 1167 l 451 1282 m 421 1111 l 567 1111 l 538 975 l 392 975 l 421 1111 m 692 1111 l 839 1111 l 810 975 l 663 975 l 692 1111 m 390 -14 q 147 57 238 -14 q 56 256 56 128 q 65 336 56 285 l 183 894 l 371 894 l 256 350 q 246 268 246 306 q 287 174 246 201 q 425 146 328 146 q 597 196 536 146 q 679 350 657 246 l 794 894 l 982 894 l 864 336 q 710 73 826 160 q 390 -14 593 -14 z "},"Ụ":{"ha":943,"x_min":56,"x_max":982,"o":"m 390 -14 q 147 57 238 -14 q 56 256 56 128 q 65 336 56 285 l 183 894 l 371 894 l 256 350 q 246 268 246 306 q 287 174 246 201 q 425 146 328 146 q 597 196 536 146 q 679 350 657 246 l 794 894 l 982 894 l 864 336 q 710 73 826 160 q 390 -14 593 -14 m 296 -114 l 444 -114 l 415 -251 l 267 -251 l 296 -114 z "},"Ù":{"ha":943,"x_min":56,"x_max":982,"o":"m 471 1215 l 633 1215 l 689 956 l 538 956 l 471 1215 m 390 -14 q 147 57 238 -14 q 56 256 56 128 q 65 336 56 285 l 183 894 l 371 894 l 256 350 q 246 268 246 306 q 287 174 246 201 q 425 146 328 146 q 597 196 536 146 q 679 350 657 246 l 794 894 l 982 894 l 864 336 q 710 73 826 160 q 390 -14 593 -14 z "},"Ủ":{"ha":943,"x_min":56,"x_max":982,"o":"m 547 1067 q 651 1085 622 1071 q 686 1133 679 1100 q 688 1144 688 1138 q 603 1188 688 1188 q 556 1183 582 1188 q 513 1172 531 1179 l 533 1265 q 675 1283 590 1283 q 792 1256 751 1283 q 832 1178 832 1228 q 829 1150 832 1169 q 783 1061 817 1092 q 681 1018 749 1031 l 667 954 l 524 954 l 547 1067 m 390 -14 q 147 57 238 -14 q 56 256 56 128 q 65 336 56 285 l 183 894 l 371 894 l 256 350 q 246 268 246 306 q 287 174 246 201 q 425 146 328 146 q 597 196 536 146 q 679 350 657 246 l 794 894 l 982 894 l 864 336 q 710 73 826 160 q 390 -14 593 -14 z "},"Ư":{"ha":1164,"x_min":56,"x_max":1264,"o":"m 390 -14 q 147 57 238 -14 q 56 256 56 128 q 65 336 56 285 l 183 894 l 371 894 l 256 350 q 246 268 246 306 q 287 174 246 201 q 425 146 328 146 q 597 196 536 146 q 679 350 657 246 l 794 894 l 982 894 l 963 806 q 1076 839 1042 807 q 1129 956 1111 871 l 1264 956 q 1201 793 1242 853 q 1097 708 1160 733 q 936 681 1033 682 l 864 336 q 710 73 826 160 q 390 -14 593 -14 z "},"Ứ":{"ha":1164,"x_min":56,"x_max":1264,"o":"m 697 1215 l 860 1215 l 682 956 l 531 956 l 697 1215 m 390 -14 q 147 57 238 -14 q 56 256 56 128 q 65 336 56 285 l 183 894 l 371 894 l 256 350 q 246 268 246 306 q 287 174 246 201 q 425 146 328 146 q 597 196 536 146 q 679 350 657 246 l 794 894 l 982 894 l 963 806 q 1076 839 1042 807 q 1129 956 1111 871 l 1264 956 q 1201 793 1242 853 q 1097 708 1160 733 q 936 681 1033 682 l 864 336 q 710 73 826 160 q 390 -14 593 -14 z "},"Ự":{"ha":1164,"x_min":56,"x_max":1264,"o":"m 390 -14 q 147 57 238 -14 q 56 256 56 128 q 65 336 56 285 l 183 894 l 371 894 l 256 350 q 246 268 246 306 q 287 174 246 201 q 425 146 328 146 q 597 196 536 146 q 679 350 657 246 l 794 894 l 982 894 l 963 806 q 1076 839 1042 807 q 1129 956 1111 871 l 1264 956 q 1201 793 1242 853 q 1097 708 1160 733 q 936 681 1033 682 l 864 336 q 710 73 826 160 q 390 -14 593 -14 m 294 -114 l 443 -114 l 414 -251 l 265 -251 l 294 -114 z "},"Ừ":{"ha":1164,"x_min":56,"x_max":1264,"o":"m 468 1215 l 631 1215 l 686 956 l 535 956 l 468 1215 m 390 -14 q 147 57 238 -14 q 56 256 56 128 q 65 336 56 285 l 183 894 l 371 894 l 256 350 q 246 268 246 306 q 287 174 246 201 q 425 146 328 146 q 597 196 536 146 q 679 350 657 246 l 794 894 l 982 894 l 963 806 q 1076 839 1042 807 q 1129 956 1111 871 l 1264 956 q 1201 793 1242 853 q 1097 708 1160 733 q 936 681 1033 682 l 864 336 q 710 73 826 160 q 390 -14 593 -14 z "},"Ử":{"ha":1164,"x_min":56,"x_max":1264,"o":"m 556 1067 q 659 1085 631 1071 q 694 1133 688 1100 q 696 1144 696 1138 q 611 1188 696 1188 q 565 1183 590 1188 q 521 1172 539 1179 l 542 1265 q 683 1283 599 1283 q 800 1256 760 1283 q 840 1178 840 1228 q 838 1150 840 1169 q 791 1061 825 1092 q 689 1018 757 1031 l 675 954 l 532 954 l 556 1067 m 390 -14 q 147 57 238 -14 q 56 256 56 128 q 65 336 56 285 l 183 894 l 371 894 l 256 350 q 246 268 246 306 q 287 174 246 201 q 425 146 328 146 q 597 196 536 146 q 679 350 657 246 l 794 894 l 982 894 l 963 806 q 1076 839 1042 807 q 1129 956 1111 871 l 1264 956 q 1201 793 1242 853 q 1097 708 1160 733 q 936 681 1033 682 l 864 336 q 710 73 826 160 q 390 -14 593 -14 z "},"Ữ":{"ha":1164,"x_min":56,"x_max":1264,"o":"m 719 968 q 667 975 692 968 q 603 997 642 982 q 507 1024 542 1024 q 371 972 431 1024 l 400 1106 q 458 1137 424 1125 q 529 1149 493 1149 q 584 1141 558 1149 q 640 1119 610 1133 q 697 1099 676 1106 q 742 1093 717 1093 q 868 1146 819 1093 l 839 1013 q 790 981 822 993 q 719 968 757 968 m 390 -14 q 147 57 238 -14 q 56 256 56 128 q 65 336 56 285 l 183 894 l 371 894 l 256 350 q 246 268 246 306 q 287 174 246 201 q 425 146 328 146 q 597 196 536 146 q 679 350 657 246 l 794 894 l 982 894 l 963 806 q 1076 839 1042 807 q 1129 956 1111 871 l 1264 956 q 1201 793 1242 853 q 1097 708 1160 733 q 936 681 1033 682 l 864 336 q 710 73 826 160 q 390 -14 593 -14 z "},"Ű":{"ha":943,"x_min":56,"x_max":982,"o":"m 496 1199 l 661 1199 l 482 954 l 333 954 l 496 1199 m 811 1199 l 978 1199 l 797 954 l 649 954 l 811 1199 m 390 -14 q 147 57 238 -14 q 56 256 56 128 q 65 336 56 285 l 183 894 l 371 894 l 256 350 q 246 268 246 306 q 287 174 246 201 q 425 146 328 146 q 597 196 536 146 q 679 350 657 246 l 794 894 l 982 894 l 864 336 q 710 73 826 160 q 390 -14 593 -14 z "},"Ū":{"ha":943,"x_min":56,"x_max":982,"o":"m 418 1118 l 844 1118 l 821 1003 l 394 1003 l 418 1118 m 390 -14 q 147 57 238 -14 q 56 256 56 128 q 65 336 56 285 l 183 894 l 371 894 l 256 350 q 246 268 246 306 q 287 174 246 201 q 425 146 328 146 q 597 196 536 146 q 679 350 657 246 l 794 894 l 982 894 l 864 336 q 710 73 826 160 q 390 -14 593 -14 z "},"Ų":{"ha":943,"x_min":56,"x_max":982,"o":"m 375 -306 q 277 -280 315 -306 q 239 -207 239 -254 q 242 -179 239 -199 q 283 -89 253 -132 q 360 -12 313 -46 q 138 65 219 -6 q 56 254 56 135 q 65 336 56 296 l 183 894 l 371 894 l 256 350 q 246 268 246 306 q 287 174 246 201 q 425 146 328 146 q 597 196 536 146 q 679 350 657 246 l 794 894 l 982 894 l 864 336 q 745 102 832 188 q 511 -6 658 17 q 396 -144 410 -72 q 394 -158 394 -150 q 449 -196 394 -196 q 518 -181 488 -196 l 496 -286 q 442 -300 475 -294 q 375 -306 408 -306 z "},"Ů":{"ha":943,"x_min":56,"x_max":982,"o":"m 596 956 q 492 990 529 956 q 456 1082 456 1025 q 483 1185 456 1138 q 558 1260 510 1232 q 665 1288 606 1288 q 771 1252 733 1288 q 808 1160 808 1217 q 804 1121 808 1140 q 734 1002 789 1049 q 596 956 679 956 m 614 1042 q 680 1063 656 1042 q 713 1121 704 1085 q 715 1140 715 1135 q 697 1183 715 1167 q 647 1200 679 1200 q 583 1178 608 1200 q 550 1121 558 1156 q 549 1103 549 1114 q 566 1058 549 1075 q 614 1042 583 1042 m 390 -14 q 147 57 238 -14 q 56 256 56 128 q 65 336 56 285 l 183 894 l 371 894 l 256 350 q 246 268 246 306 q 287 174 246 201 q 425 146 328 146 q 597 196 536 146 q 679 350 657 246 l 794 894 l 982 894 l 864 336 q 710 73 826 160 q 390 -14 593 -14 z "},"Ũ":{"ha":943,"x_min":56,"x_max":982,"o":"m 719 972 q 667 979 692 972 q 603 1001 642 986 q 507 1028 542 1028 q 371 976 431 1028 l 400 1110 q 458 1141 424 1129 q 529 1153 493 1153 q 584 1145 558 1153 q 640 1124 610 1138 q 697 1103 676 1110 q 742 1097 717 1097 q 868 1150 819 1097 l 839 1017 q 790 985 822 997 q 719 972 757 972 m 390 -14 q 147 57 238 -14 q 56 256 56 128 q 65 336 56 285 l 183 894 l 371 894 l 256 350 q 246 268 246 306 q 287 174 246 201 q 425 146 328 146 q 597 196 536 146 q 679 350 657 246 l 794 894 l 982 894 l 864 336 q 710 73 826 160 q 390 -14 593 -14 z "},"V":{"ha":990,"x_min":163,"x_max":1050,"o":"m 163 894 l 353 894 l 456 210 l 849 894 l 1050 894 l 521 0 l 315 0 l 163 894 z "},"W":{"ha":1215,"x_min":163,"x_max":1275,"o":"m 163 894 l 347 894 l 354 290 l 604 778 l 628 894 l 781 894 l 825 289 l 1092 894 l 1275 894 l 879 0 l 707 0 l 664 572 l 367 0 l 182 0 l 163 894 z "},"Ẃ":{"ha":1215,"x_min":163,"x_max":1275,"o":"m 814 1215 l 976 1215 l 799 956 l 647 956 l 814 1215 m 163 894 l 347 894 l 354 290 l 604 778 l 628 894 l 781 894 l 825 289 l 1092 894 l 1275 894 l 879 0 l 707 0 l 664 572 l 367 0 l 182 0 l 163 894 z "},"Ŵ":{"ha":1215,"x_min":163,"x_max":1275,"o":"m 732 1197 l 851 1197 l 988 956 l 850 956 l 776 1094 l 647 956 l 494 956 l 732 1197 m 163 894 l 347 894 l 354 290 l 604 778 l 628 894 l 781 894 l 825 289 l 1092 894 l 1275 894 l 879 0 l 707 0 l 664 572 l 367 0 l 182 0 l 163 894 z "},"Ẅ":{"ha":1215,"x_min":163,"x_max":1275,"o":"m 568 1126 l 714 1126 l 685 990 l 539 990 l 568 1126 m 839 1126 l 986 1126 l 957 990 l 810 990 l 839 1126 m 163 894 l 347 894 l 354 290 l 604 778 l 628 894 l 781 894 l 825 289 l 1092 894 l 1275 894 l 879 0 l 707 0 l 664 572 l 367 0 l 182 0 l 163 894 z "},"Ẁ":{"ha":1215,"x_min":163,"x_max":1275,"o":"m 582 1215 l 744 1215 l 800 956 l 649 956 l 582 1215 m 163 894 l 347 894 l 354 290 l 604 778 l 628 894 l 781 894 l 825 289 l 1092 894 l 1275 894 l 879 0 l 707 0 l 664 572 l 367 0 l 182 0 l 163 894 z "},"X":{"ha":975,"x_min":-26,"x_max":1026,"o":"m 392 449 l 171 894 l 392 894 l 536 596 l 806 894 l 1026 894 l 617 449 l 846 0 l 622 0 l 472 299 l 197 0 l -26 0 l 392 449 z "},"Y":{"ha":932,"x_min":163,"x_max":992,"o":"m 364 331 l 163 894 l 353 894 l 488 490 l 792 894 l 992 894 l 551 331 l 482 0 l 294 0 l 364 331 z "},"Ý":{"ha":932,"x_min":163,"x_max":992,"o":"m 671 1215 l 833 1215 l 656 956 l 504 956 l 671 1215 m 364 331 l 163 894 l 353 894 l 488 490 l 792 894 l 992 894 l 551 331 l 482 0 l 294 0 l 364 331 z "},"Ŷ":{"ha":932,"x_min":163,"x_max":992,"o":"m 583 1197 l 703 1197 l 839 956 l 701 956 l 628 1094 l 499 956 l 346 956 l 583 1197 m 364 331 l 163 894 l 353 894 l 488 490 l 792 894 l 992 894 l 551 331 l 482 0 l 294 0 l 364 331 z "},"Ÿ":{"ha":932,"x_min":163,"x_max":992,"o":"m 419 1126 l 565 1126 l 536 990 l 390 990 l 419 1126 m 690 1126 l 838 1126 l 808 990 l 661 990 l 690 1126 m 364 331 l 163 894 l 353 894 l 488 490 l 792 894 l 992 894 l 551 331 l 482 0 l 294 0 l 364 331 z "},"Ẏ":{"ha":932,"x_min":163,"x_max":992,"o":"m 554 1126 l 700 1126 l 671 990 l 525 990 l 554 1126 m 364 331 l 163 894 l 353 894 l 488 490 l 792 894 l 992 894 l 551 331 l 482 0 l 294 0 l 364 331 z "},"Ỵ":{"ha":932,"x_min":163,"x_max":992,"o":"m 364 331 l 163 894 l 353 894 l 488 490 l 792 894 l 992 894 l 551 331 l 482 0 l 294 0 l 364 331 m 293 -100 l 442 -100 l 413 -237 l 264 -237 l 293 -100 z "},"Ỳ":{"ha":932,"x_min":163,"x_max":992,"o":"m 463 1215 l 625 1215 l 681 956 l 529 956 l 463 1215 m 364 331 l 163 894 l 353 894 l 488 490 l 792 894 l 992 894 l 551 331 l 482 0 l 294 0 l 364 331 z "},"Ỷ":{"ha":932,"x_min":163,"x_max":992,"o":"m 536 1067 q 640 1085 611 1071 q 675 1133 668 1100 q 676 1144 676 1138 q 592 1188 676 1188 q 545 1183 571 1188 q 501 1172 519 1179 l 522 1265 q 664 1283 579 1283 q 781 1256 740 1283 q 821 1178 821 1228 q 818 1150 821 1169 q 772 1061 806 1092 q 669 1018 738 1031 l 656 954 l 513 954 l 536 1067 m 364 331 l 163 894 l 353 894 l 488 490 l 792 894 l 992 894 l 551 331 l 482 0 l 294 0 l 364 331 z "},"Ỹ":{"ha":932,"x_min":163,"x_max":992,"o":"m 714 972 q 661 979 686 972 q 597 1001 636 986 q 501 1028 536 1028 q 365 976 425 1028 l 394 1110 q 453 1141 418 1129 q 524 1153 488 1153 q 578 1145 553 1153 q 635 1124 604 1138 q 691 1103 671 1110 q 736 1097 711 1097 q 863 1150 814 1097 l 833 1017 q 784 985 817 997 q 714 972 751 972 m 364 331 l 163 894 l 353 894 l 488 490 l 792 894 l 992 894 l 551 331 l 482 0 l 294 0 l 364 331 z "},"Z":{"ha":804,"x_min":-26,"x_max":857,"o":"m -7 97 l 581 739 l 153 739 l 185 894 l 857 894 l 833 781 l 253 144 l 706 144 l 675 0 l -26 0 l -7 97 z "},"Ź":{"ha":804,"x_min":-26,"x_max":857,"o":"m 626 1215 l 789 1215 l 611 956 l 460 956 l 626 1215 m -7 97 l 581 739 l 153 739 l 185 894 l 857 894 l 833 781 l 253 144 l 706 144 l 675 0 l -26 0 l -7 97 z "},"Ž":{"ha":804,"x_min":-26,"x_max":858,"o":"m 365 1197 l 504 1197 l 574 1058 l 707 1197 l 858 1197 l 619 956 l 500 956 l 365 1197 m -7 97 l 581 739 l 153 739 l 185 894 l 857 894 l 833 781 l 253 144 l 706 144 l 675 0 l -26 0 l -7 97 z "},"Ż":{"ha":804,"x_min":-26,"x_max":857,"o":"m 511 1126 l 657 1126 l 628 990 l 482 990 l 511 1126 m -7 97 l 581 739 l 153 739 l 185 894 l 857 894 l 833 781 l 253 144 l 706 144 l 675 0 l -26 0 l -7 97 z "},"Ẓ":{"ha":804,"x_min":-26,"x_max":857,"o":"m -7 97 l 581 739 l 153 739 l 185 894 l 857 894 l 833 781 l 253 144 l 706 144 l 675 0 l -26 0 l -7 97 m 254 -114 l 403 -114 l 374 -251 l 225 -251 l 254 -114 z "},"a":{"ha":821,"x_min":25,"x_max":801,"o":"m 272 -14 q 92 38 158 -14 q 25 201 25 90 q 36 297 25 239 q 119 497 61 413 q 259 627 178 582 q 435 672 340 672 q 532 660 492 672 q 606 615 572 647 l 614 658 l 801 658 l 663 0 l 501 0 l 503 61 q 396 5 451 24 q 272 -14 340 -14 m 353 124 q 437 138 399 124 q 514 183 475 151 l 575 476 q 454 535 532 535 q 309 474 367 535 q 226 297 251 414 q 217 222 217 257 q 249 146 217 168 q 353 124 281 124 z "},"á":{"ha":821,"x_min":25,"x_max":801,"o":"m 561 985 l 724 985 l 546 725 l 394 725 l 561 985 m 272 -14 q 92 38 158 -14 q 25 201 25 90 q 36 297 25 239 q 119 497 61 413 q 259 627 178 582 q 435 672 340 672 q 532 660 492 672 q 606 615 572 647 l 614 658 l 801 658 l 663 0 l 501 0 l 503 61 q 396 5 451 24 q 272 -14 340 -14 m 353 124 q 437 138 399 124 q 514 183 475 151 l 575 476 q 454 535 532 535 q 309 474 367 535 q 226 297 251 414 q 217 222 217 257 q 249 146 217 168 q 353 124 281 124 z "},"ă":{"ha":821,"x_min":25,"x_max":801,"o":"m 492 725 q 363 767 410 725 q 315 885 315 810 q 322 943 315 908 l 439 943 q 435 903 435 922 q 508 833 435 833 q 586 865 554 833 q 628 943 618 897 l 760 943 q 669 782 738 839 q 492 725 601 725 m 272 -14 q 92 38 158 -14 q 25 201 25 90 q 36 297 25 239 q 119 497 61 413 q 259 627 178 582 q 435 672 340 672 q 532 660 492 672 q 606 615 572 647 l 614 658 l 801 658 l 663 0 l 501 0 l 503 61 q 396 5 451 24 q 272 -14 340 -14 m 353 124 q 437 138 399 124 q 514 183 475 151 l 575 476 q 454 535 532 535 q 309 474 367 535 q 226 297 251 414 q 217 222 217 257 q 249 146 217 168 q 353 124 281 124 z "},"ắ":{"ha":821,"x_min":25,"x_max":801,"o":"m 586 1101 l 728 1101 l 585 906 l 453 906 l 586 1101 m 492 725 q 354 764 407 725 q 301 883 301 803 q 308 942 301 907 l 415 942 q 410 899 410 919 q 433 842 410 861 q 508 824 457 824 q 650 942 624 824 l 765 942 q 672 777 740 829 q 492 725 603 725 m 272 -14 q 92 38 158 -14 q 25 201 25 90 q 36 297 25 239 q 119 497 61 413 q 259 627 178 582 q 435 672 340 672 q 532 660 492 672 q 606 615 572 647 l 614 658 l 801 658 l 663 0 l 501 0 l 503 61 q 396 5 451 24 q 272 -14 340 -14 m 353 124 q 437 138 399 124 q 514 183 475 151 l 575 476 q 454 535 532 535 q 309 474 367 535 q 226 297 251 414 q 217 222 217 257 q 249 146 217 168 q 353 124 281 124 z "},"ặ":{"ha":821,"x_min":25,"x_max":801,"o":"m 492 725 q 363 767 410 725 q 315 885 315 810 q 322 943 315 908 l 439 943 q 435 903 435 922 q 508 833 435 833 q 586 865 554 833 q 628 943 618 897 l 760 943 q 669 782 738 839 q 492 725 601 725 m 272 -14 q 92 38 158 -14 q 25 201 25 90 q 36 297 25 239 q 119 497 61 413 q 259 627 178 582 q 435 672 340 672 q 532 660 492 672 q 606 615 572 647 l 614 658 l 801 658 l 663 0 l 501 0 l 503 61 q 396 5 451 24 q 272 -14 340 -14 m 353 124 q 437 138 399 124 q 514 183 475 151 l 575 476 q 454 535 532 535 q 309 474 367 535 q 226 297 251 414 q 217 222 217 257 q 249 146 217 168 q 353 124 281 124 m 243 -114 l 392 -114 l 363 -251 l 214 -251 l 243 -114 z "},"ằ":{"ha":821,"x_min":25,"x_max":801,"o":"m 407 1101 l 549 1101 l 599 906 l 467 906 l 407 1101 m 486 725 q 349 764 401 725 q 296 883 296 803 q 303 942 296 907 l 410 942 q 404 899 404 919 q 428 842 404 861 q 503 824 451 824 q 644 942 618 824 l 760 942 q 666 777 735 829 q 486 725 597 725 m 272 -14 q 92 38 158 -14 q 25 201 25 90 q 36 297 25 239 q 119 497 61 413 q 259 627 178 582 q 435 672 340 672 q 532 660 492 672 q 606 615 572 647 l 614 658 l 801 658 l 663 0 l 501 0 l 503 61 q 396 5 451 24 q 272 -14 340 -14 m 353 124 q 437 138 399 124 q 514 183 475 151 l 575 476 q 454 535 532 535 q 309 474 367 535 q 226 297 251 414 q 217 222 217 257 q 249 146 217 168 q 353 124 281 124 z "},"ẳ":{"ha":821,"x_min":25,"x_max":801,"o":"m 483 1001 q 580 1021 553 1004 q 607 1071 607 1038 q 592 1096 607 1089 q 546 1103 578 1103 q 467 1086 507 1103 l 483 1165 q 610 1182 540 1182 q 702 1158 669 1182 q 735 1094 735 1135 q 732 1071 735 1088 q 691 999 721 1025 q 603 963 661 974 l 593 918 l 465 918 l 483 1001 m 494 725 q 357 764 410 725 q 304 883 304 803 q 311 942 304 907 l 418 942 q 413 899 413 919 q 436 842 413 861 q 511 824 460 824 q 653 942 626 824 l 768 942 q 674 777 743 829 q 494 725 606 725 m 272 -14 q 92 38 158 -14 q 25 201 25 90 q 36 297 25 239 q 119 497 61 413 q 259 627 178 582 q 435 672 340 672 q 532 660 492 672 q 606 615 572 647 l 614 658 l 801 658 l 663 0 l 501 0 l 503 61 q 396 5 451 24 q 272 -14 340 -14 m 353 124 q 437 138 399 124 q 514 183 475 151 l 575 476 q 454 535 532 535 q 309 474 367 535 q 226 297 251 414 q 217 222 217 257 q 249 146 217 168 q 353 124 281 124 z "},"ẵ":{"ha":821,"x_min":25,"x_max":818,"o":"m 674 971 q 619 978 644 971 q 558 1000 594 986 q 463 1026 497 1026 q 326 975 383 1026 l 351 1094 q 410 1126 375 1114 q 482 1138 446 1138 q 592 1108 531 1138 q 648 1088 628 1094 q 693 1082 668 1082 q 818 1135 772 1082 l 794 1015 q 744 983 776 996 q 674 971 711 971 m 503 725 q 365 764 418 725 q 313 883 313 803 q 319 942 313 907 l 426 942 q 421 899 421 919 q 444 842 421 861 q 519 824 468 824 q 661 942 635 824 l 776 942 q 683 777 751 829 q 503 725 614 725 m 272 -14 q 92 38 158 -14 q 25 201 25 90 q 36 297 25 239 q 119 497 61 413 q 259 627 178 582 q 435 672 340 672 q 532 660 492 672 q 606 615 572 647 l 614 658 l 801 658 l 663 0 l 501 0 l 503 61 q 396 5 451 24 q 272 -14 340 -14 m 353 124 q 437 138 399 124 q 514 183 475 151 l 575 476 q 454 535 532 535 q 309 474 367 535 q 226 297 251 414 q 217 222 217 257 q 249 146 217 168 q 353 124 281 124 z "},"ǎ":{"ha":821,"x_min":25,"x_max":801,"o":"m 279 967 l 418 967 l 488 828 l 621 967 l 772 967 l 533 725 l 414 725 l 279 967 m 272 -14 q 92 38 158 -14 q 25 201 25 90 q 36 297 25 239 q 119 497 61 413 q 259 627 178 582 q 435 672 340 672 q 532 660 492 672 q 606 615 572 647 l 614 658 l 801 658 l 663 0 l 501 0 l 503 61 q 396 5 451 24 q 272 -14 340 -14 m 353 124 q 437 138 399 124 q 514 183 475 151 l 575 476 q 454 535 532 535 q 309 474 367 535 q 226 297 251 414 q 217 222 217 257 q 249 146 217 168 q 353 124 281 124 z "},"â":{"ha":821,"x_min":25,"x_max":801,"o":"m 468 967 l 588 967 l 724 725 l 586 725 l 513 864 l 383 725 l 231 725 l 468 967 m 272 -14 q 92 38 158 -14 q 25 201 25 90 q 36 297 25 239 q 119 497 61 413 q 259 627 178 582 q 435 672 340 672 q 532 660 492 672 q 606 615 572 647 l 614 658 l 801 658 l 663 0 l 501 0 l 503 61 q 396 5 451 24 q 272 -14 340 -14 m 353 124 q 437 138 399 124 q 514 183 475 151 l 575 476 q 454 535 532 535 q 309 474 367 535 q 226 297 251 414 q 217 222 217 257 q 249 146 217 168 q 353 124 281 124 z "},"ấ":{"ha":821,"x_min":25,"x_max":936,"o":"m 794 1082 l 936 1082 l 793 886 l 663 886 l 794 1082 m 454 911 l 597 911 l 733 724 l 589 724 l 518 836 l 401 724 l 240 724 l 454 911 m 272 -14 q 92 38 158 -14 q 25 201 25 90 q 36 297 25 239 q 119 497 61 413 q 259 627 178 582 q 435 672 340 672 q 532 660 492 672 q 606 615 572 647 l 614 658 l 801 658 l 663 0 l 501 0 l 503 61 q 396 5 451 24 q 272 -14 340 -14 m 353 124 q 437 138 399 124 q 514 183 475 151 l 575 476 q 454 535 532 535 q 309 474 367 535 q 226 297 251 414 q 217 222 217 257 q 249 146 217 168 q 353 124 281 124 z "},"ậ":{"ha":821,"x_min":25,"x_max":801,"o":"m 472 967 l 592 967 l 728 725 l 590 725 l 517 864 l 388 725 l 235 725 l 472 967 m 272 -14 q 92 38 158 -14 q 25 201 25 90 q 36 297 25 239 q 119 497 61 413 q 259 627 178 582 q 435 672 340 672 q 532 660 492 672 q 606 615 572 647 l 614 658 l 801 658 l 663 0 l 501 0 l 503 61 q 396 5 451 24 q 272 -14 340 -14 m 353 124 q 437 138 399 124 q 514 183 475 151 l 575 476 q 454 535 532 535 q 309 474 367 535 q 226 297 251 414 q 217 222 217 257 q 249 146 217 168 q 353 124 281 124 m 231 -114 l 379 -114 l 350 -251 l 201 -251 l 231 -114 z "},"ầ":{"ha":821,"x_min":25,"x_max":801,"o":"m 179 1082 l 321 1082 l 371 886 l 239 886 l 179 1082 m 444 911 l 588 911 l 724 724 l 579 724 l 508 836 l 392 724 l 231 724 l 444 911 m 272 -14 q 92 38 158 -14 q 25 201 25 90 q 36 297 25 239 q 119 497 61 413 q 259 627 178 582 q 435 672 340 672 q 532 660 492 672 q 606 615 572 647 l 614 658 l 801 658 l 663 0 l 501 0 l 503 61 q 396 5 451 24 q 272 -14 340 -14 m 353 124 q 437 138 399 124 q 514 183 475 151 l 575 476 q 454 535 532 535 q 309 474 367 535 q 226 297 251 414 q 217 222 217 257 q 249 146 217 168 q 353 124 281 124 z "},"ẩ":{"ha":821,"x_min":25,"x_max":926,"o":"m 678 953 q 763 967 739 956 q 790 1001 786 978 q 781 1031 794 1022 q 736 1039 768 1039 q 658 1022 699 1039 l 678 1108 q 794 1125 731 1125 q 892 1101 858 1125 q 926 1035 926 1076 q 924 1013 926 1029 q 794 903 904 919 l 785 856 l 657 856 l 678 953 m 443 911 l 586 911 l 722 724 l 578 724 l 507 836 l 390 724 l 229 724 l 443 911 m 272 -14 q 92 38 158 -14 q 25 201 25 90 q 36 297 25 239 q 119 497 61 413 q 259 627 178 582 q 435 672 340 672 q 532 660 492 672 q 606 615 572 647 l 614 658 l 801 658 l 663 0 l 501 0 l 503 61 q 396 5 451 24 q 272 -14 340 -14 m 353 124 q 437 138 399 124 q 514 183 475 151 l 575 476 q 454 535 532 535 q 309 474 367 535 q 226 297 251 414 q 217 222 217 257 q 249 146 217 168 q 353 124 281 124 z "},"ẫ":{"ha":821,"x_min":25,"x_max":801,"o":"m 654 932 q 601 939 626 932 q 538 961 576 946 q 442 988 476 988 q 306 936 365 988 l 332 1056 q 390 1087 354 1075 q 461 1099 425 1099 q 516 1091 490 1099 q 572 1069 542 1083 q 628 1049 608 1056 q 674 1043 649 1043 q 799 1096 750 1043 l 772 976 q 724 944 756 957 q 654 932 692 932 m 446 911 l 589 911 l 725 724 l 581 724 l 510 836 l 393 724 l 232 724 l 446 911 m 272 -14 q 92 38 158 -14 q 25 201 25 90 q 36 297 25 239 q 119 497 61 413 q 259 627 178 582 q 435 672 340 672 q 532 660 492 672 q 606 615 572 647 l 614 658 l 801 658 l 663 0 l 501 0 l 503 61 q 396 5 451 24 q 272 -14 340 -14 m 353 124 q 437 138 399 124 q 514 183 475 151 l 575 476 q 454 535 532 535 q 309 474 367 535 q 226 297 251 414 q 217 222 217 257 q 249 146 217 168 q 353 124 281 124 z "},"ä":{"ha":821,"x_min":25,"x_max":801,"o":"m 315 896 l 461 896 l 432 760 l 286 760 l 315 896 m 586 896 l 733 896 l 704 760 l 557 760 l 586 896 m 272 -14 q 92 38 158 -14 q 25 201 25 90 q 36 297 25 239 q 119 497 61 413 q 259 627 178 582 q 435 672 340 672 q 532 660 492 672 q 606 615 572 647 l 614 658 l 801 658 l 663 0 l 501 0 l 503 61 q 396 5 451 24 q 272 -14 340 -14 m 353 124 q 437 138 399 124 q 514 183 475 151 l 575 476 q 454 535 532 535 q 309 474 367 535 q 226 297 251 414 q 217 222 217 257 q 249 146 217 168 q 353 124 281 124 z "},"ạ":{"ha":821,"x_min":25,"x_max":801,"o":"m 272 -14 q 92 38 158 -14 q 25 201 25 90 q 36 297 25 239 q 119 497 61 413 q 259 627 178 582 q 435 672 340 672 q 532 660 492 672 q 606 615 572 647 l 614 658 l 801 658 l 663 0 l 501 0 l 503 61 q 396 5 451 24 q 272 -14 340 -14 m 353 124 q 437 138 399 124 q 514 183 475 151 l 575 476 q 454 535 532 535 q 309 474 367 535 q 226 297 251 414 q 217 222 217 257 q 249 146 217 168 q 353 124 281 124 m 239 -114 l 388 -114 l 358 -251 l 210 -251 l 239 -114 z "},"à":{"ha":821,"x_min":25,"x_max":801,"o":"m 346 985 l 508 985 l 564 725 l 413 725 l 346 985 m 272 -14 q 92 38 158 -14 q 25 201 25 90 q 36 297 25 239 q 119 497 61 413 q 259 627 178 582 q 435 672 340 672 q 532 660 492 672 q 606 615 572 647 l 614 658 l 801 658 l 663 0 l 501 0 l 503 61 q 396 5 451 24 q 272 -14 340 -14 m 353 124 q 437 138 399 124 q 514 183 475 151 l 575 476 q 454 535 532 535 q 309 474 367 535 q 226 297 251 414 q 217 222 217 257 q 249 146 217 168 q 353 124 281 124 z "},"ả":{"ha":821,"x_min":25,"x_max":801,"o":"m 419 836 q 523 855 494 840 q 558 903 551 869 q 560 914 560 907 q 475 957 560 957 q 428 953 454 957 q 385 942 403 949 l 406 1035 q 547 1053 463 1053 q 664 1025 624 1053 q 704 947 704 997 q 701 919 704 939 q 655 831 689 861 q 553 788 621 800 l 539 724 l 396 724 l 419 836 m 272 -14 q 92 38 158 -14 q 25 201 25 90 q 36 297 25 239 q 119 497 61 413 q 259 627 178 582 q 435 672 340 672 q 532 660 492 672 q 606 615 572 647 l 614 658 l 801 658 l 663 0 l 501 0 l 503 61 q 396 5 451 24 q 272 -14 340 -14 m 353 124 q 437 138 399 124 q 514 183 475 151 l 575 476 q 454 535 532 535 q 309 474 367 535 q 226 297 251 414 q 217 222 217 257 q 249 146 217 168 q 353 124 281 124 z "},"ɑ":{"ha":821,"x_min":25,"x_max":801,"o":"m 272 -14 q 92 38 158 -14 q 25 201 25 90 q 36 297 25 239 q 119 497 61 413 q 259 627 178 582 q 435 672 340 672 q 532 660 492 672 q 606 615 572 647 l 614 658 l 801 658 l 663 0 l 501 0 l 503 61 q 396 5 451 24 q 272 -14 340 -14 m 353 124 q 437 138 399 124 q 514 183 475 151 l 575 476 q 454 535 532 535 q 309 474 367 535 q 226 297 251 414 q 217 222 217 257 q 249 146 217 168 q 353 124 281 124 z "},"ā":{"ha":821,"x_min":25,"x_max":801,"o":"m 307 867 l 733 867 l 710 751 l 283 751 l 307 867 m 272 -14 q 92 38 158 -14 q 25 201 25 90 q 36 297 25 239 q 119 497 61 413 q 259 627 178 582 q 435 672 340 672 q 532 660 492 672 q 606 615 572 647 l 614 658 l 801 658 l 663 0 l 501 0 l 503 61 q 396 5 451 24 q 272 -14 340 -14 m 353 124 q 437 138 399 124 q 514 183 475 151 l 575 476 q 454 535 532 535 q 309 474 367 535 q 226 297 251 414 q 217 222 217 257 q 249 146 217 168 q 353 124 281 124 z "},"ą":{"ha":821,"x_min":25,"x_max":801,"o":"m 518 -306 q 420 -280 458 -306 q 382 -207 382 -254 q 385 -179 382 -199 q 428 -79 396 -125 q 501 0 461 -33 l 503 61 q 396 5 451 24 q 272 -14 340 -14 q 92 38 158 -14 q 25 201 25 90 q 36 297 25 239 q 119 497 61 413 q 259 627 178 582 q 435 672 340 672 q 532 660 492 672 q 606 615 572 647 l 614 658 l 801 658 l 663 0 q 539 -144 554 -68 q 538 -158 538 -150 q 592 -196 538 -196 q 661 -181 631 -196 l 639 -286 q 585 -300 618 -294 q 518 -306 551 -306 m 353 124 q 437 138 399 124 q 514 183 475 151 l 575 476 q 454 535 532 535 q 309 474 367 535 q 226 297 251 414 q 217 222 217 257 q 249 146 217 168 q 353 124 281 124 z "},"å":{"ha":821,"x_min":25,"x_max":801,"o":"m 493 725 q 390 760 426 725 q 353 851 353 794 q 380 954 353 907 q 455 1029 407 1001 q 563 1057 503 1057 q 668 1022 631 1057 q 706 929 706 986 q 701 890 706 910 q 631 772 686 818 q 493 725 576 725 m 511 811 q 577 833 553 811 q 610 890 601 854 q 613 910 613 904 q 594 953 613 936 q 544 969 576 969 q 481 947 506 969 q 447 890 456 925 q 446 872 446 883 q 463 828 446 844 q 511 811 481 811 m 272 -14 q 92 38 158 -14 q 25 201 25 90 q 36 297 25 239 q 119 497 61 413 q 259 627 178 582 q 435 672 340 672 q 532 660 492 672 q 606 615 572 647 l 614 658 l 801 658 l 663 0 l 501 0 l 503 61 q 396 5 451 24 q 272 -14 340 -14 m 353 124 q 437 138 399 124 q 514 183 475 151 l 575 476 q 454 535 532 535 q 309 474 367 535 q 226 297 251 414 q 217 222 217 257 q 249 146 217 168 q 353 124 281 124 z "},"ǻ":{"ha":821,"x_min":25,"x_max":850,"o":"m 688 1299 l 850 1299 l 672 1092 l 521 1092 l 688 1299 m 492 718 q 388 753 425 718 q 351 844 351 788 q 378 947 351 900 q 453 1022 406 994 q 561 1050 501 1050 q 667 1015 629 1050 q 704 922 704 979 q 700 883 704 903 q 630 765 685 811 q 492 718 575 718 m 510 804 q 576 826 551 804 q 608 883 600 847 q 611 903 611 897 q 593 946 611 929 q 543 963 575 963 q 479 940 504 963 q 446 883 454 918 q 444 865 444 876 q 462 821 444 838 q 510 804 479 804 m 272 -14 q 92 38 158 -14 q 25 201 25 90 q 36 297 25 239 q 119 497 61 413 q 259 627 178 582 q 435 672 340 672 q 532 660 492 672 q 606 615 572 647 l 614 658 l 801 658 l 663 0 l 501 0 l 503 61 q 396 5 451 24 q 272 -14 340 -14 m 353 124 q 437 138 399 124 q 514 183 475 151 l 575 476 q 454 535 532 535 q 309 474 367 535 q 226 297 251 414 q 217 222 217 257 q 249 146 217 168 q 353 124 281 124 z "},"ã":{"ha":821,"x_min":25,"x_max":801,"o":"m 613 742 q 560 749 585 742 q 496 771 535 756 q 400 797 435 797 q 264 746 324 797 l 293 879 q 351 910 317 899 q 422 922 386 922 q 477 915 451 922 q 533 893 503 907 q 590 873 569 879 q 635 867 610 867 q 761 919 713 867 l 732 786 q 683 754 715 767 q 613 742 650 742 m 272 -14 q 92 38 158 -14 q 25 201 25 90 q 36 297 25 239 q 119 497 61 413 q 259 627 178 582 q 435 672 340 672 q 532 660 492 672 q 606 615 572 647 l 614 658 l 801 658 l 663 0 l 501 0 l 503 61 q 396 5 451 24 q 272 -14 340 -14 m 353 124 q 437 138 399 124 q 514 183 475 151 l 575 476 q 454 535 532 535 q 309 474 367 535 q 226 297 251 414 q 217 222 217 257 q 249 146 217 168 q 353 124 281 124 z "},"æ":{"ha":1225,"x_min":10,"x_max":1185,"o":"m 221 -14 q 70 28 131 -14 q 10 147 10 71 q 14 190 10 168 q 117 347 35 289 q 331 404 199 404 l 525 404 l 529 422 q 533 458 533 443 q 500 517 533 500 q 382 533 467 533 q 158 499 269 533 l 186 631 q 450 672 304 672 q 584 655 531 672 q 668 600 638 638 q 783 653 717 635 q 922 672 849 672 q 1117 615 1050 672 q 1185 457 1185 557 q 1176 383 1185 424 l 1151 264 l 675 264 q 723 154 674 186 q 881 122 772 122 q 990 132 932 122 q 1090 157 1047 142 l 1063 28 q 813 -14 963 -14 q 665 14 733 -14 q 567 93 596 42 q 412 12 489 38 q 221 -14 335 -14 m 1013 379 l 1019 415 q 1025 457 1025 446 q 997 517 1025 497 q 900 538 968 538 q 763 501 808 538 q 700 379 718 464 l 1013 379 m 282 110 q 478 178 396 110 l 500 288 l 310 288 q 182 197 200 288 q 179 171 179 188 q 203 125 179 140 q 282 110 226 110 z "},"ǽ":{"ha":1225,"x_min":10,"x_max":1185,"o":"m 775 985 l 938 985 l 760 725 l 608 725 l 775 985 m 221 -14 q 70 28 131 -14 q 10 147 10 71 q 14 190 10 168 q 117 347 35 289 q 331 404 199 404 l 525 404 l 529 422 q 533 458 533 443 q 500 517 533 500 q 382 533 467 533 q 158 499 269 533 l 186 631 q 450 672 304 672 q 584 655 531 672 q 668 600 638 638 q 783 653 717 635 q 922 672 849 672 q 1117 615 1050 672 q 1185 457 1185 557 q 1176 383 1185 424 l 1151 264 l 675 264 q 723 154 674 186 q 881 122 772 122 q 990 132 932 122 q 1090 157 1047 142 l 1063 28 q 813 -14 963 -14 q 665 14 733 -14 q 567 93 596 42 q 412 12 489 38 q 221 -14 335 -14 m 1013 379 l 1019 415 q 1025 457 1025 446 q 997 517 1025 497 q 900 538 968 538 q 763 501 808 538 q 700 379 718 464 l 1013 379 m 282 110 q 478 178 396 110 l 500 288 l 310 288 q 182 197 200 288 q 179 171 179 188 q 203 125 179 140 q 282 110 226 110 z "},"b":{"ha":819,"x_min":1,"x_max":772,"o":"m 385 -14 q 186 61 254 -14 l 164 0 l 1 0 l 200 936 l 388 936 l 321 622 q 525 672 413 672 q 705 612 638 672 q 772 433 772 551 q 761 335 772 393 q 631 72 725 158 q 385 -14 538 -14 m 361 124 q 498 175 449 124 q 571 335 547 226 q 582 425 582 390 q 551 510 582 485 q 447 535 519 535 q 292 486 356 535 l 228 183 q 283 139 249 154 q 361 124 318 124 z "},"c":{"ha":690,"x_min":33,"x_max":693,"o":"m 333 -14 q 114 51 194 -14 q 33 239 33 117 q 43 329 33 285 q 485 672 115 672 q 602 663 554 672 q 693 631 650 653 l 664 496 q 493 532 599 532 q 320 486 383 532 q 233 329 257 440 q 224 249 224 286 q 265 156 224 185 q 406 126 307 126 q 596 165 508 126 l 567 26 q 333 -14 464 -14 z "},"ć":{"ha":690,"x_min":33,"x_max":718,"o":"m 556 985 l 718 985 l 540 725 l 389 725 l 556 985 m 333 -14 q 114 51 194 -14 q 33 239 33 117 q 43 329 33 285 q 485 672 115 672 q 602 663 554 672 q 693 631 650 653 l 664 496 q 493 532 599 532 q 320 486 383 532 q 233 329 257 440 q 224 249 224 286 q 265 156 224 185 q 406 126 307 126 q 596 165 508 126 l 567 26 q 333 -14 464 -14 z "},"č":{"ha":692,"x_min":33,"x_max":767,"o":"m 274 967 l 413 967 l 482 828 l 615 967 l 767 967 l 528 725 l 408 725 l 274 967 m 333 -14 q 114 51 194 -14 q 33 239 33 117 q 43 329 33 285 q 485 672 115 672 q 602 663 554 672 q 693 631 650 653 l 664 496 q 493 532 599 532 q 320 486 383 532 q 233 329 257 440 q 224 249 224 286 q 265 156 224 185 q 406 126 307 126 q 596 165 508 126 l 567 26 q 333 -14 464 -14 z "},"ç":{"ha":690,"x_min":33,"x_max":693,"o":"m 221 -333 q 165 -330 197 -333 q 118 -322 132 -326 l 139 -228 q 221 -239 176 -239 q 310 -229 285 -239 q 342 -187 336 -219 q 343 -174 343 -182 q 321 -143 343 -150 q 247 -136 299 -136 l 186 -136 l 250 -7 q 90 74 147 11 q 33 239 33 136 q 43 329 33 285 q 485 672 115 672 q 602 663 554 672 q 693 631 650 653 l 664 496 q 493 532 599 532 q 320 486 383 532 q 233 329 257 440 q 224 249 224 286 q 265 156 224 185 q 406 126 307 126 q 596 165 508 126 l 567 26 q 368 -12 482 -8 l 342 -62 q 435 -87 404 -62 q 465 -157 465 -112 q 463 -189 465 -178 q 388 -296 447 -258 q 221 -333 328 -333 z "},"ĉ":{"ha":690,"x_min":33,"x_max":710,"o":"m 454 967 l 574 967 l 710 725 l 572 725 l 499 864 l 369 725 l 217 725 l 454 967 m 333 -14 q 114 51 194 -14 q 33 239 33 117 q 43 329 33 285 q 485 672 115 672 q 602 663 554 672 q 693 631 650 653 l 664 496 q 493 532 599 532 q 320 486 383 532 q 233 329 257 440 q 224 249 224 286 q 265 156 224 185 q 406 126 307 126 q 596 165 508 126 l 567 26 q 333 -14 464 -14 z "},"ċ":{"ha":690,"x_min":33,"x_max":693,"o":"m 428 896 l 574 896 l 544 760 l 399 760 l 428 896 m 333 -14 q 114 51 194 -14 q 33 239 33 117 q 43 329 33 285 q 485 672 115 672 q 602 663 554 672 q 693 631 650 653 l 664 496 q 493 532 599 532 q 320 486 383 532 q 233 329 257 440 q 224 249 224 286 q 265 156 224 185 q 406 126 307 126 q 596 165 508 126 l 567 26 q 333 -14 464 -14 z "},"d":{"ha":819,"x_min":31,"x_max":861,"o":"m 272 -14 q 97 45 164 -14 q 31 222 31 104 q 42 325 31 275 q 178 585 79 499 q 429 672 278 672 q 607 622 540 672 l 674 936 l 861 936 l 663 0 l 501 0 l 503 61 q 396 5 451 24 q 272 -14 340 -14 m 353 124 q 437 138 399 124 q 514 183 475 151 l 576 483 q 449 535 532 535 q 232 322 276 535 q 221 239 221 271 q 253 151 221 179 q 353 124 285 124 z "},"ð":{"ha":796,"x_min":22,"x_max":883,"o":"m 318 -14 q 95 41 168 -14 q 22 197 22 96 q 32 276 22 228 q 404 560 93 560 q 511 543 457 560 q 601 496 565 526 l 613 544 q 626 657 626 617 q 624 694 626 672 l 435 619 l 453 703 l 589 757 q 461 788 550 788 q 253 750 357 788 l 279 874 q 517 908 386 908 q 744 818 674 908 l 883 874 l 865 790 l 779 756 q 797 640 797 706 q 783 521 797 581 l 744 338 q 606 71 706 156 q 318 -14 507 -14 m 344 111 q 486 156 433 111 q 558 293 539 200 l 578 382 q 501 426 543 410 q 414 442 458 442 q 267 400 315 442 q 200 276 218 358 q 193 222 193 244 q 229 140 193 168 q 344 111 265 111 z "},"ď":{"ha":821,"x_min":31,"x_max":1176,"o":"m 1018 960 l 1176 960 l 990 686 l 844 686 l 1018 960 m 272 -14 q 97 45 164 -14 q 31 222 31 104 q 42 325 31 275 q 178 585 79 499 q 429 672 278 672 q 607 622 540 672 l 674 936 l 861 936 l 663 0 l 501 0 l 503 61 q 396 5 451 24 q 272 -14 340 -14 m 353 124 q 437 138 399 124 q 514 183 475 151 l 576 483 q 449 535 532 535 q 232 322 276 535 q 221 239 221 271 q 253 151 221 179 q 353 124 285 124 z "},"đ":{"ha":821,"x_min":31,"x_max":915,"o":"m 889 732 l 818 732 l 663 0 l 501 0 l 503 61 q 396 5 451 24 q 272 -14 340 -14 q 97 45 164 -14 q 31 222 31 104 q 42 325 31 275 q 178 585 79 499 q 429 672 278 672 q 607 622 540 672 l 631 732 l 438 732 l 464 857 l 657 857 l 674 936 l 861 936 l 844 857 l 915 857 l 889 732 m 576 483 q 449 535 532 535 q 232 322 276 535 q 221 239 221 271 q 253 151 221 179 q 353 124 285 124 q 437 138 399 124 q 514 183 475 151 l 576 483 z "},"ḍ":{"ha":819,"x_min":31,"x_max":861,"o":"m 272 -14 q 97 45 164 -14 q 31 222 31 104 q 42 325 31 275 q 178 585 79 499 q 429 672 278 672 q 607 622 540 672 l 674 936 l 861 936 l 663 0 l 501 0 l 503 61 q 396 5 451 24 q 272 -14 340 -14 m 353 124 q 437 138 399 124 q 514 183 475 151 l 576 483 q 449 535 532 535 q 232 322 276 535 q 221 239 221 271 q 253 151 221 179 q 353 124 285 124 m 232 -114 l 381 -114 l 351 -251 l 203 -251 l 232 -114 z "},"ḏ":{"ha":819,"x_min":31,"x_max":861,"o":"m 272 -14 q 97 45 164 -14 q 31 222 31 104 q 42 325 31 275 q 178 585 79 499 q 429 672 278 672 q 607 622 540 672 l 674 936 l 861 936 l 663 0 l 501 0 l 503 61 q 396 5 451 24 q 272 -14 340 -14 m 353 124 q 437 138 399 124 q 514 183 475 151 l 576 483 q 449 535 532 535 q 232 322 276 535 q 221 239 221 271 q 253 151 221 179 q 353 124 285 124 m 103 -139 l 529 -139 l 506 -254 l 79 -254 l 103 -139 z "},"e":{"ha":753,"x_min":33,"x_max":713,"o":"m 340 -14 q 115 51 197 -14 q 33 240 33 115 q 43 331 33 283 q 174 585 78 497 q 450 672 269 672 q 645 615 578 672 q 713 457 713 557 q 704 383 713 424 l 679 264 l 203 264 q 219 181 201 210 q 283 139 238 151 q 410 126 328 126 q 519 136 463 126 q 618 161 576 146 l 590 28 q 340 -14 490 -14 m 540 379 l 547 415 q 551 450 551 435 q 428 538 551 538 q 291 501 336 538 q 228 379 246 464 l 540 379 z "},"é":{"ha":753,"x_min":33,"x_max":717,"o":"m 554 985 l 717 985 l 539 725 l 388 725 l 554 985 m 340 -14 q 115 51 197 -14 q 33 240 33 115 q 43 331 33 283 q 174 585 78 497 q 450 672 269 672 q 645 615 578 672 q 713 457 713 557 q 704 383 713 424 l 679 264 l 203 264 q 219 181 201 210 q 283 139 238 151 q 410 126 328 126 q 519 136 463 126 q 618 161 576 146 l 590 28 q 340 -14 490 -14 m 540 379 l 547 415 q 551 450 551 435 q 428 538 551 538 q 291 501 336 538 q 228 379 246 464 l 540 379 z "},"ĕ":{"ha":753,"x_min":33,"x_max":736,"o":"m 468 725 q 339 767 386 725 q 292 885 292 810 q 299 943 292 908 l 415 943 q 411 903 411 922 q 485 833 411 833 q 563 865 531 833 q 604 943 594 897 l 736 943 q 646 782 714 839 q 468 725 578 725 m 340 -14 q 115 51 197 -14 q 33 240 33 115 q 43 331 33 283 q 174 585 78 497 q 450 672 269 672 q 645 615 578 672 q 713 457 713 557 q 704 383 713 424 l 679 264 l 203 264 q 219 181 201 210 q 283 139 238 151 q 410 126 328 126 q 519 136 463 126 q 618 161 576 146 l 590 28 q 340 -14 490 -14 m 540 379 l 547 415 q 551 450 551 435 q 428 538 551 538 q 291 501 336 538 q 228 379 246 464 l 540 379 z "},"ě":{"ha":753,"x_min":33,"x_max":774,"o":"m 281 967 l 419 967 l 489 828 l 622 967 l 774 967 l 535 725 l 415 725 l 281 967 m 340 -14 q 115 51 197 -14 q 33 240 33 115 q 43 331 33 283 q 174 585 78 497 q 450 672 269 672 q 645 615 578 672 q 713 457 713 557 q 704 383 713 424 l 679 264 l 203 264 q 219 181 201 210 q 283 139 238 151 q 410 126 328 126 q 519 136 463 126 q 618 161 576 146 l 590 28 q 340 -14 490 -14 m 540 379 l 547 415 q 551 450 551 435 q 428 538 551 538 q 291 501 336 538 q 228 379 246 464 l 540 379 z "},"ê":{"ha":753,"x_min":33,"x_max":713,"o":"m 456 967 l 575 967 l 711 725 l 574 725 l 500 864 l 371 725 l 218 725 l 456 967 m 340 -14 q 115 51 197 -14 q 33 240 33 115 q 43 331 33 283 q 174 585 78 497 q 450 672 269 672 q 645 615 578 672 q 713 457 713 557 q 704 383 713 424 l 679 264 l 203 264 q 219 181 201 210 q 283 139 238 151 q 410 126 328 126 q 519 136 463 126 q 618 161 576 146 l 590 28 q 340 -14 490 -14 m 540 379 l 547 415 q 551 450 551 435 q 428 538 551 538 q 291 501 336 538 q 228 379 246 464 l 540 379 z "},"ế":{"ha":753,"x_min":33,"x_max":922,"o":"m 781 1082 l 922 1082 l 779 886 l 649 886 l 781 1082 m 440 911 l 583 911 l 719 724 l 575 724 l 504 836 l 388 724 l 226 724 l 440 911 m 340 -14 q 115 51 197 -14 q 33 240 33 115 q 43 331 33 283 q 174 585 78 497 q 450 672 269 672 q 645 615 578 672 q 713 457 713 557 q 704 383 713 424 l 679 264 l 203 264 q 219 181 201 210 q 283 139 238 151 q 410 126 328 126 q 519 136 463 126 q 618 161 576 146 l 590 28 q 340 -14 490 -14 m 540 379 l 547 415 q 551 450 551 435 q 428 538 551 538 q 291 501 336 538 q 228 379 246 464 l 540 379 z "},"ệ":{"ha":753,"x_min":33,"x_max":713,"o":"m 456 967 l 575 967 l 711 725 l 574 725 l 500 864 l 371 725 l 218 725 l 456 967 m 340 -14 q 115 51 197 -14 q 33 240 33 115 q 43 331 33 283 q 174 585 78 497 q 450 672 269 672 q 645 615 578 672 q 713 457 713 557 q 704 383 713 424 l 679 264 l 203 264 q 219 181 201 210 q 283 139 238 151 q 410 126 328 126 q 519 136 463 126 q 618 161 576 146 l 590 28 q 340 -14 490 -14 m 540 379 l 547 415 q 551 450 551 435 q 428 538 551 538 q 291 501 336 538 q 228 379 246 464 l 540 379 m 214 -114 l 363 -114 l 333 -251 l 185 -251 l 214 -114 z "},"ề":{"ha":753,"x_min":33,"x_max":722,"o":"m 178 1096 l 319 1096 l 369 900 l 238 900 l 178 1096 m 443 925 l 586 925 l 722 738 l 578 738 l 507 850 l 390 738 l 229 738 l 443 925 m 340 -14 q 115 51 197 -14 q 33 240 33 115 q 43 331 33 283 q 174 585 78 497 q 450 672 269 672 q 645 615 578 672 q 713 457 713 557 q 704 383 713 424 l 679 264 l 203 264 q 219 181 201 210 q 283 139 238 151 q 410 126 328 126 q 519 136 463 126 q 618 161 576 146 l 590 28 q 340 -14 490 -14 m 540 379 l 547 415 q 551 450 551 435 q 428 538 551 538 q 291 501 336 538 q 228 379 246 464 l 540 379 z "},"ể":{"ha":753,"x_min":33,"x_max":917,"o":"m 668 953 q 753 967 729 956 q 781 1001 776 978 q 772 1031 785 1022 q 726 1039 758 1039 q 649 1022 689 1039 l 668 1108 q 785 1125 721 1125 q 883 1101 849 1125 q 917 1035 917 1076 q 914 1013 917 1029 q 785 903 894 919 l 775 856 l 647 856 l 668 953 m 433 911 l 576 911 l 713 724 l 568 724 l 497 836 l 381 724 l 219 724 l 433 911 m 340 -14 q 115 51 197 -14 q 33 240 33 115 q 43 331 33 283 q 174 585 78 497 q 450 672 269 672 q 645 615 578 672 q 713 457 713 557 q 704 383 713 424 l 679 264 l 203 264 q 219 181 201 210 q 283 139 238 151 q 410 126 328 126 q 519 136 463 126 q 618 161 576 146 l 590 28 q 340 -14 490 -14 m 540 379 l 547 415 q 551 450 551 435 q 428 538 551 538 q 291 501 336 538 q 228 379 246 464 l 540 379 z "},"ễ":{"ha":753,"x_min":33,"x_max":790,"o":"m 646 932 q 593 939 618 932 q 529 961 568 946 q 433 988 468 988 q 297 936 357 988 l 324 1056 q 381 1087 346 1075 q 453 1099 417 1099 q 508 1091 482 1099 q 564 1069 533 1083 q 620 1049 600 1056 q 665 1043 640 1043 q 790 1096 742 1043 l 764 976 q 715 944 747 957 q 646 932 683 932 m 438 911 l 581 911 l 717 724 l 572 724 l 501 836 l 385 724 l 224 724 l 438 911 m 340 -14 q 115 51 197 -14 q 33 240 33 115 q 43 331 33 283 q 174 585 78 497 q 450 672 269 672 q 645 615 578 672 q 713 457 713 557 q 704 383 713 424 l 679 264 l 203 264 q 219 181 201 210 q 283 139 238 151 q 410 126 328 126 q 519 136 463 126 q 618 161 576 146 l 590 28 q 340 -14 490 -14 m 540 379 l 547 415 q 551 450 551 435 q 428 538 551 538 q 291 501 336 538 q 228 379 246 464 l 540 379 z "},"ë":{"ha":753,"x_min":33,"x_max":713,"o":"m 290 896 l 436 896 l 407 760 l 261 760 l 290 896 m 561 896 l 708 896 l 679 760 l 532 760 l 561 896 m 340 -14 q 115 51 197 -14 q 33 240 33 115 q 43 331 33 283 q 174 585 78 497 q 450 672 269 672 q 645 615 578 672 q 713 457 713 557 q 704 383 713 424 l 679 264 l 203 264 q 219 181 201 210 q 283 139 238 151 q 410 126 328 126 q 519 136 463 126 q 618 161 576 146 l 590 28 q 340 -14 490 -14 m 540 379 l 547 415 q 551 450 551 435 q 428 538 551 538 q 291 501 336 538 q 228 379 246 464 l 540 379 z "},"ė":{"ha":753,"x_min":33,"x_max":713,"o":"m 429 896 l 575 896 l 546 760 l 400 760 l 429 896 m 340 -14 q 115 51 197 -14 q 33 240 33 115 q 43 331 33 283 q 174 585 78 497 q 450 672 269 672 q 645 615 578 672 q 713 457 713 557 q 704 383 713 424 l 679 264 l 203 264 q 219 181 201 210 q 283 139 238 151 q 410 126 328 126 q 519 136 463 126 q 618 161 576 146 l 590 28 q 340 -14 490 -14 m 540 379 l 547 415 q 551 450 551 435 q 428 538 551 538 q 291 501 336 538 q 228 379 246 464 l 540 379 z "},"ẹ":{"ha":753,"x_min":33,"x_max":713,"o":"m 340 -14 q 115 51 197 -14 q 33 240 33 115 q 43 331 33 283 q 174 585 78 497 q 450 672 269 672 q 645 615 578 672 q 713 457 713 557 q 704 383 713 424 l 679 264 l 203 264 q 219 181 201 210 q 283 139 238 151 q 410 126 328 126 q 519 136 463 126 q 618 161 576 146 l 590 28 q 340 -14 490 -14 m 540 379 l 547 415 q 551 450 551 435 q 428 538 551 538 q 291 501 336 538 q 228 379 246 464 l 540 379 m 219 -114 l 368 -114 l 339 -251 l 190 -251 l 219 -114 z "},"è":{"ha":753,"x_min":33,"x_max":713,"o":"m 324 985 l 486 985 l 542 725 l 390 725 l 324 985 m 340 -14 q 115 51 197 -14 q 33 240 33 115 q 43 331 33 283 q 174 585 78 497 q 450 672 269 672 q 645 615 578 672 q 713 457 713 557 q 704 383 713 424 l 679 264 l 203 264 q 219 181 201 210 q 283 139 238 151 q 410 126 328 126 q 519 136 463 126 q 618 161 576 146 l 590 28 q 340 -14 490 -14 m 540 379 l 547 415 q 551 450 551 435 q 428 538 551 538 q 291 501 336 538 q 228 379 246 464 l 540 379 z "},"ẻ":{"ha":753,"x_min":33,"x_max":713,"o":"m 422 836 q 526 855 497 840 q 561 903 554 869 q 563 914 563 907 q 478 957 563 957 q 431 953 457 957 q 388 942 406 949 l 408 1035 q 550 1053 465 1053 q 667 1025 626 1053 q 707 947 707 997 q 704 919 707 939 q 658 831 692 861 q 556 788 624 800 l 542 724 l 399 724 l 422 836 m 340 -14 q 115 51 197 -14 q 33 240 33 115 q 43 331 33 283 q 174 585 78 497 q 450 672 269 672 q 645 615 578 672 q 713 457 713 557 q 704 383 713 424 l 679 264 l 203 264 q 219 181 201 210 q 283 139 238 151 q 410 126 328 126 q 519 136 463 126 q 618 161 576 146 l 590 28 q 340 -14 490 -14 m 540 379 l 547 415 q 551 450 551 435 q 428 538 551 538 q 291 501 336 538 q 228 379 246 464 l 540 379 z "},"ē":{"ha":753,"x_min":33,"x_max":722,"o":"m 296 888 l 722 888 l 699 772 l 272 772 l 296 888 m 340 -14 q 115 51 197 -14 q 33 240 33 115 q 43 331 33 283 q 174 585 78 497 q 450 672 269 672 q 645 615 578 672 q 713 457 713 557 q 704 383 713 424 l 679 264 l 203 264 q 219 181 201 210 q 283 139 238 151 q 410 126 328 126 q 519 136 463 126 q 618 161 576 146 l 590 28 q 340 -14 490 -14 m 540 379 l 547 415 q 551 450 551 435 q 428 538 551 538 q 291 501 336 538 q 228 379 246 464 l 540 379 z "},"ę":{"ha":753,"x_min":33,"x_max":713,"o":"m 450 672 q 645 615 578 672 q 713 457 713 557 q 704 383 713 424 l 679 264 l 203 264 q 219 181 201 210 q 283 139 238 151 q 410 126 328 126 q 519 136 463 126 q 618 161 576 146 l 590 28 q 490 -1 549 10 q 368 -144 383 -69 q 367 -158 367 -150 q 421 -196 367 -196 q 490 -181 460 -196 l 468 -286 q 414 -300 447 -294 q 347 -306 381 -306 q 249 -280 288 -306 q 211 -207 211 -254 q 214 -179 211 -199 q 256 -89 225 -132 q 332 -14 286 -46 q 113 53 193 -11 q 33 239 33 117 q 43 331 33 283 q 174 585 78 497 q 450 672 269 672 m 547 415 q 551 450 551 435 q 428 538 551 538 q 291 501 336 538 q 228 379 246 464 l 540 379 l 547 415 z "},"ẽ":{"ha":753,"x_min":33,"x_max":742,"o":"m 593 742 q 540 749 565 742 q 476 771 515 756 q 381 797 415 797 q 244 746 304 797 l 274 879 q 332 910 297 899 q 403 922 367 922 q 458 915 432 922 q 514 893 483 907 q 570 873 550 879 q 615 867 590 867 q 742 919 693 867 l 713 786 q 663 754 696 767 q 593 742 631 742 m 340 -14 q 115 51 197 -14 q 33 240 33 115 q 43 331 33 283 q 174 585 78 497 q 450 672 269 672 q 645 615 578 672 q 713 457 713 557 q 704 383 713 424 l 679 264 l 203 264 q 219 181 201 210 q 283 139 238 151 q 410 126 328 126 q 519 136 463 126 q 618 161 576 146 l 590 28 q 340 -14 490 -14 m 540 379 l 547 415 q 551 450 551 435 q 428 538 551 538 q 291 501 336 538 q 228 379 246 464 l 540 379 z "},"f":{"ha":492,"x_min":38,"x_max":614,"o":"m 146 514 l 54 514 l 85 658 l 176 658 l 190 725 q 281 896 213 833 q 471 958 349 958 q 614 932 554 958 l 586 803 q 507 818 547 818 q 418 797 447 818 q 378 722 389 775 l 364 658 l 531 658 l 492 514 l 333 514 l 225 0 l 38 0 l 146 514 z "},"g":{"ha":821,"x_min":29,"x_max":801,"o":"m 229 -244 q 137 -240 193 -244 q 54 -229 81 -235 l 85 -86 q 154 -99 111 -94 q 229 -104 197 -104 q 400 -76 336 -104 q 478 15 464 -49 l 485 50 q 286 0 400 0 q 99 55 168 0 q 29 224 29 110 q 39 313 29 268 q 174 581 75 490 q 428 672 274 672 q 537 654 494 672 q 617 597 579 636 l 640 658 l 801 658 l 672 46 q 536 -167 643 -89 q 229 -244 429 -244 m 356 138 q 514 188 444 138 l 575 475 q 519 520 550 506 q 443 535 488 535 q 305 479 356 535 q 231 314 254 424 q 221 236 221 271 q 252 160 221 182 q 356 138 283 138 z "},"ğ":{"ha":821,"x_min":29,"x_max":801,"o":"m 450 725 q 321 767 368 725 q 274 885 274 810 q 281 943 274 908 l 397 943 q 393 903 393 922 q 467 833 393 833 q 544 865 513 833 q 586 943 576 897 l 718 943 q 628 782 696 839 q 450 725 560 725 m 229 -244 q 137 -240 193 -244 q 54 -229 81 -235 l 85 -86 q 154 -99 111 -94 q 229 -104 197 -104 q 400 -76 336 -104 q 478 15 464 -49 l 485 50 q 286 0 400 0 q 99 55 168 0 q 29 224 29 110 q 39 313 29 268 q 174 581 75 490 q 428 672 274 672 q 537 654 494 672 q 617 597 579 636 l 640 658 l 801 658 l 672 46 q 536 -167 643 -89 q 229 -244 429 -244 m 356 138 q 514 188 444 138 l 575 475 q 519 520 550 506 q 443 535 488 535 q 305 479 356 535 q 231 314 254 424 q 221 236 221 271 q 252 160 221 182 q 356 138 283 138 z "},"ǧ":{"ha":821,"x_min":29,"x_max":801,"o":"m 286 967 l 425 967 l 494 828 l 628 967 l 779 967 l 540 725 l 421 725 l 286 967 m 229 -244 q 137 -240 193 -244 q 54 -229 81 -235 l 85 -86 q 154 -99 111 -94 q 229 -104 197 -104 q 400 -76 336 -104 q 478 15 464 -49 l 485 50 q 286 0 400 0 q 99 55 168 0 q 29 224 29 110 q 39 313 29 268 q 174 581 75 490 q 428 672 274 672 q 537 654 494 672 q 617 597 579 636 l 640 658 l 801 658 l 672 46 q 536 -167 643 -89 q 229 -244 429 -244 m 356 138 q 514 188 444 138 l 575 475 q 519 520 550 506 q 443 535 488 535 q 305 479 356 535 q 231 314 254 424 q 221 236 221 271 q 252 160 221 182 q 356 138 283 138 z "},"ĝ":{"ha":821,"x_min":29,"x_max":801,"o":"m 449 967 l 568 967 l 704 725 l 567 725 l 493 864 l 364 725 l 211 725 l 449 967 m 229 -244 q 137 -240 193 -244 q 54 -229 81 -235 l 85 -86 q 154 -99 111 -94 q 229 -104 197 -104 q 400 -76 336 -104 q 478 15 464 -49 l 485 50 q 286 0 400 0 q 99 55 168 0 q 29 224 29 110 q 39 313 29 268 q 174 581 75 490 q 428 672 274 672 q 537 654 494 672 q 617 597 579 636 l 640 658 l 801 658 l 672 46 q 536 -167 643 -89 q 229 -244 429 -244 m 356 138 q 514 188 444 138 l 575 475 q 519 520 550 506 q 443 535 488 535 q 305 479 356 535 q 231 314 254 424 q 221 236 221 271 q 252 160 221 182 q 356 138 283 138 z "},"ģ":{"ha":821,"x_min":29,"x_max":801,"o":"m 501 1004 l 621 1004 l 519 725 l 372 725 l 501 1004 m 229 -244 q 137 -240 193 -244 q 54 -229 81 -235 l 85 -86 q 154 -99 111 -94 q 229 -104 197 -104 q 400 -76 336 -104 q 478 15 464 -49 l 485 50 q 286 0 400 0 q 99 55 168 0 q 29 224 29 110 q 39 313 29 268 q 174 581 75 490 q 428 672 274 672 q 537 654 494 672 q 617 597 579 636 l 640 658 l 801 658 l 672 46 q 536 -167 643 -89 q 229 -244 429 -244 m 356 138 q 514 188 444 138 l 575 475 q 519 520 550 506 q 443 535 488 535 q 305 479 356 535 q 231 314 254 424 q 221 236 221 271 q 252 160 221 182 q 356 138 283 138 z "},"ġ":{"ha":821,"x_min":29,"x_max":801,"o":"m 401 882 l 547 882 l 518 746 l 372 746 l 401 882 m 229 -244 q 137 -240 193 -244 q 54 -229 81 -235 l 85 -86 q 154 -99 111 -94 q 229 -104 197 -104 q 400 -76 336 -104 q 478 15 464 -49 l 485 50 q 286 0 400 0 q 99 55 168 0 q 29 224 29 110 q 39 313 29 268 q 174 581 75 490 q 428 672 274 672 q 537 654 494 672 q 617 597 579 636 l 640 658 l 801 658 l 672 46 q 536 -167 643 -89 q 229 -244 429 -244 m 356 138 q 514 188 444 138 l 575 475 q 519 520 550 506 q 443 535 488 535 q 305 479 356 535 q 231 314 254 424 q 221 236 221 271 q 252 160 221 182 q 356 138 283 138 z "},"ḡ":{"ha":821,"x_min":29,"x_max":801,"o":"m 290 881 l 717 881 l 693 765 l 267 765 l 290 881 m 229 -244 q 137 -240 193 -244 q 54 -229 81 -235 l 85 -86 q 154 -99 111 -94 q 229 -104 197 -104 q 400 -76 336 -104 q 478 15 464 -49 l 485 50 q 286 0 400 0 q 99 55 168 0 q 29 224 29 110 q 39 313 29 268 q 174 581 75 490 q 428 672 274 672 q 537 654 494 672 q 617 597 579 636 l 640 658 l 801 658 l 672 46 q 536 -167 643 -89 q 229 -244 429 -244 m 356 138 q 514 188 444 138 l 575 475 q 519 520 550 506 q 443 535 488 535 q 305 479 356 535 q 231 314 254 424 q 221 236 221 271 q 252 160 221 182 q 356 138 283 138 z "},"h":{"ha":815,"x_min":1,"x_max":761,"o":"m 200 936 l 388 936 l 317 603 q 428 653 367 635 q 556 672 489 672 q 709 628 657 672 q 761 499 761 585 q 753 422 761 464 l 664 0 l 476 0 l 564 413 q 569 463 569 439 q 544 518 569 501 q 461 535 519 535 q 371 516 418 535 q 288 467 324 497 l 189 0 l 1 0 l 200 936 z "},"ħ":{"ha":815,"x_min":1,"x_max":761,"o":"m 157 735 l 88 735 l 114 863 l 183 863 l 200 936 l 388 936 l 371 863 l 557 863 l 531 735 l 344 735 l 317 603 q 428 653 367 635 q 556 672 489 672 q 709 628 657 672 q 761 499 761 585 q 753 422 761 464 l 664 0 l 476 0 l 564 413 q 569 463 569 439 q 544 518 569 501 q 461 535 519 535 q 371 516 418 535 q 288 467 324 497 l 189 0 l 1 0 l 157 735 z "},"ḫ":{"ha":815,"x_min":1,"x_max":761,"o":"m 200 936 l 388 936 l 317 603 q 428 653 367 635 q 556 672 489 672 q 709 628 657 672 q 761 499 761 585 q 753 422 761 464 l 664 0 l 476 0 l 564 413 q 569 463 569 439 q 544 518 569 501 q 461 535 519 535 q 371 516 418 535 q 288 467 324 497 l 189 0 l 1 0 l 200 936 m 279 -301 q 152 -257 201 -301 q 103 -136 103 -212 q 108 -83 103 -107 l 228 -83 q 224 -122 224 -104 q 297 -193 224 -193 q 374 -162 343 -193 q 415 -83 406 -131 l 546 -83 q 453 -244 524 -186 q 279 -301 383 -301 z "},"ĥ":{"ha":815,"x_min":1,"x_max":761,"o":"m 453 1221 l 572 1221 l 708 979 l 571 979 l 497 1118 l 368 979 l 215 979 l 453 1221 m 200 936 l 388 936 l 317 603 q 428 653 367 635 q 556 672 489 672 q 709 628 657 672 q 761 499 761 585 q 753 422 761 464 l 664 0 l 476 0 l 564 413 q 569 463 569 439 q 544 518 569 501 q 461 535 519 535 q 371 516 418 535 q 288 467 324 497 l 189 0 l 1 0 l 200 936 z "},"ḥ":{"ha":815,"x_min":1,"x_max":761,"o":"m 200 936 l 388 936 l 317 603 q 428 653 367 635 q 556 672 489 672 q 709 628 657 672 q 761 499 761 585 q 753 422 761 464 l 664 0 l 476 0 l 564 413 q 569 463 569 439 q 544 518 569 501 q 461 535 519 535 q 371 516 418 535 q 288 467 324 497 l 189 0 l 1 0 l 200 936 m 243 -114 l 392 -114 l 363 -251 l 214 -251 l 243 -114 z "},"i":{"ha":446,"x_min":100,"x_max":485,"o":"m 281 926 l 485 926 l 454 779 l 250 779 l 281 926 m 210 519 l 111 519 l 157 658 l 426 658 l 288 0 l 100 0 l 210 519 z "},"ı":{"ha":446,"x_min":100,"x_max":426,"o":"m 210 519 l 111 519 l 157 658 l 426 658 l 288 0 l 100 0 l 210 519 z "},"í":{"ha":446,"x_min":100,"x_max":582,"o":"m 419 985 l 582 985 l 404 725 l 253 725 l 419 985 m 210 519 l 111 519 l 157 658 l 426 658 l 288 0 l 100 0 l 210 519 z "},"ĭ":{"ha":446,"x_min":100,"x_max":575,"o":"m 307 725 q 177 767 225 725 q 129 885 129 810 q 136 943 129 908 l 254 943 q 249 901 249 915 q 324 833 249 833 q 403 865 372 833 q 443 943 433 896 l 575 943 q 483 783 553 840 q 307 725 413 725 m 210 519 l 111 519 l 157 658 l 426 658 l 288 0 l 100 0 l 210 519 z "},"ǐ":{"ha":446,"x_min":100,"x_max":621,"o":"m 128 967 l 267 967 l 336 828 l 469 967 l 621 967 l 382 725 l 263 725 l 128 967 m 210 519 l 111 519 l 157 658 l 426 658 l 288 0 l 100 0 l 210 519 z "},"î":{"ha":446,"x_min":67,"x_max":560,"o":"m 304 967 l 424 967 l 560 725 l 422 725 l 349 864 l 219 725 l 67 725 l 304 967 m 210 519 l 111 519 l 157 658 l 426 658 l 288 0 l 100 0 l 210 519 z "},"ï":{"ha":446,"x_min":100,"x_max":550,"o":"m 132 896 l 278 896 l 249 760 l 103 760 l 132 896 m 403 896 l 550 896 l 521 760 l 374 760 l 403 896 m 210 519 l 111 519 l 157 658 l 426 658 l 288 0 l 100 0 l 210 519 z "},"ị":{"ha":446,"x_min":68,"x_max":485,"o":"m 281 926 l 485 926 l 454 779 l 250 779 l 281 926 m 210 519 l 111 519 l 157 658 l 426 658 l 288 0 l 100 0 l 210 519 m 97 -114 l 246 -114 l 217 -251 l 68 -251 l 97 -114 z "},"ì":{"ha":446,"x_min":100,"x_max":426,"o":"m 200 985 l 363 985 l 418 725 l 267 725 l 200 985 m 210 519 l 111 519 l 157 658 l 426 658 l 288 0 l 100 0 l 210 519 z "},"ỉ":{"ha":446,"x_min":100,"x_max":551,"o":"m 267 836 q 370 855 342 840 q 406 903 399 869 q 407 914 407 907 q 322 957 407 957 q 276 953 301 957 q 232 942 250 949 l 253 1035 q 394 1053 310 1053 q 511 1025 471 1053 q 551 947 551 997 q 549 919 551 939 q 502 831 536 861 q 400 788 468 800 l 386 724 l 243 724 l 267 836 m 210 519 l 111 519 l 157 658 l 426 658 l 288 0 l 100 0 l 210 519 z "},"ĳ":{"ha":808,"x_min":100,"x_max":847,"o":"m 281 926 l 485 926 l 454 779 l 250 779 l 281 926 m 643 926 l 847 926 l 817 779 l 613 779 l 643 926 m 210 519 l 111 519 l 157 658 l 426 658 l 288 0 l 100 0 l 210 519 m 354 -325 q 211 -300 267 -325 l 238 -171 q 318 -185 278 -185 q 406 -162 379 -185 q 444 -89 433 -140 l 574 519 l 475 519 l 521 658 l 790 658 l 628 -107 q 354 -325 582 -325 z "},"ī":{"ha":446,"x_min":100,"x_max":554,"o":"m 126 907 l 554 907 l 531 792 l 103 792 l 126 907 m 210 519 l 111 519 l 157 658 l 426 658 l 288 0 l 100 0 l 210 519 z "},"į":{"ha":446,"x_min":-8,"x_max":485,"o":"m 281 926 l 485 926 l 454 779 l 250 779 l 281 926 m 128 -306 q 30 -280 68 -306 q -8 -207 -8 -254 q -6 -179 -8 -199 q 42 -80 6 -126 q 133 0 78 -33 l 100 0 l 210 519 l 111 519 l 157 658 l 426 658 l 288 0 l 272 0 q 149 -144 164 -68 q 147 -158 147 -150 q 201 -196 147 -196 q 271 -181 240 -196 l 249 -286 q 194 -300 228 -294 q 128 -306 161 -306 z "},"ĩ":{"ha":446,"x_min":75,"x_max":572,"o":"m 424 740 q 371 747 396 740 q 307 769 346 754 q 211 796 246 796 q 75 744 135 796 l 104 878 q 163 909 128 897 q 233 921 197 921 q 288 913 263 921 q 344 892 314 906 q 401 872 381 878 q 446 865 421 865 q 572 918 524 865 l 543 785 q 494 753 526 765 q 424 740 461 740 m 210 519 l 111 519 l 157 658 l 426 658 l 288 0 l 100 0 l 210 519 z "},"j":{"ha":444,"x_min":-153,"x_max":483,"o":"m 279 926 l 483 926 l 453 779 l 249 779 l 279 926 m -10 -325 q -153 -300 -97 -325 l -126 -171 q -46 -185 -86 -185 q 42 -162 15 -185 q 81 -89 69 -140 l 210 519 l 111 519 l 157 658 l 426 658 l 264 -107 q -10 -325 218 -325 z "},"ȷ":{"ha":443,"x_min":-153,"x_max":426,"o":"m -10 -325 q -153 -300 -97 -325 l -126 -171 q -46 -185 -86 -185 q 44 -164 19 -185 q 81 -89 69 -143 l 210 519 l 111 519 l 157 658 l 426 658 l 264 -107 q -10 -325 218 -325 z "},"ĵ":{"ha":443,"x_min":-153,"x_max":558,"o":"m 303 967 l 422 967 l 558 725 l 421 725 l 347 864 l 218 725 l 65 725 l 303 967 m -10 -325 q -153 -300 -97 -325 l -126 -171 q -46 -185 -86 -185 q 44 -164 19 -185 q 81 -89 69 -143 l 210 519 l 111 519 l 157 658 l 426 658 l 264 -107 q -10 -325 218 -325 z "},"k":{"ha":793,"x_min":1,"x_max":788,"o":"m 200 936 l 388 936 l 278 421 l 574 658 l 788 658 l 465 389 l 664 0 l 465 0 l 326 290 l 235 217 l 189 0 l 1 0 l 200 936 z "},"ķ":{"ha":793,"x_min":1,"x_max":788,"o":"m 200 936 l 388 936 l 278 421 l 574 658 l 788 658 l 465 389 l 664 0 l 465 0 l 326 290 l 235 217 l 189 0 l 1 0 l 200 936 m 222 -51 l 369 -51 l 240 -331 l 121 -331 l 222 -51 z "},"ĸ":{"ha":793,"x_min":1,"x_max":788,"o":"m 140 658 l 328 658 l 274 399 l 574 658 l 788 658 l 461 372 l 664 0 l 465 0 l 324 272 l 229 192 l 189 0 l 1 0 l 140 658 z "},"l":{"ha":414,"x_min":31,"x_max":388,"o":"m 181 -14 q 31 114 31 -14 q 38 172 31 138 l 200 936 l 388 936 l 228 188 q 225 160 225 176 q 235 134 225 142 q 269 126 246 126 q 336 136 306 126 l 310 7 q 249 -9 278 -4 q 181 -14 219 -14 z "},"ĺ":{"ha":414,"x_min":31,"x_max":569,"o":"m 407 1283 l 569 1283 l 392 1024 l 240 1024 l 407 1283 m 181 -14 q 31 114 31 -14 q 38 172 31 138 l 200 936 l 388 936 l 228 188 q 225 160 225 176 q 235 134 225 142 q 269 126 246 126 q 336 136 306 126 l 310 7 q 249 -9 278 -4 q 181 -14 219 -14 z "},"ľ":{"ha":414,"x_min":31,"x_max":710,"o":"m 563 1196 l 710 1196 l 581 917 l 461 917 l 563 1196 m 181 -14 q 31 114 31 -14 q 38 172 31 138 l 200 936 l 388 936 l 228 188 q 225 160 225 176 q 235 134 225 142 q 269 126 246 126 q 336 136 306 126 l 310 7 q 249 -9 278 -4 q 181 -14 219 -14 z "},"ļ":{"ha":414,"x_min":-4,"x_max":388,"o":"m 181 -14 q 31 114 31 -14 q 38 172 31 138 l 200 936 l 388 936 l 228 188 q 225 160 225 176 q 235 134 225 142 q 269 126 246 126 q 336 136 306 126 l 310 7 q 249 -9 278 -4 q 181 -14 219 -14 m 97 -51 l 244 -51 l 115 -331 l -4 -331 l 97 -51 z "},"ŀ":{"ha":500,"x_min":31,"x_max":517,"o":"m 181 -14 q 31 114 31 -14 q 38 172 31 138 l 200 936 l 388 936 l 228 188 q 225 160 225 176 q 235 134 225 142 q 269 126 246 126 q 336 136 306 126 l 310 7 q 249 -9 278 -4 q 181 -14 219 -14 m 371 526 l 517 526 l 488 390 l 342 390 l 371 526 z "},"ḷ":{"ha":414,"x_min":18,"x_max":388,"o":"m 181 -14 q 31 114 31 -14 q 38 172 31 138 l 200 936 l 388 936 l 228 188 q 225 160 225 176 q 235 134 225 142 q 269 126 246 126 q 336 136 306 126 l 310 7 q 249 -9 278 -4 q 181 -14 219 -14 m 47 -114 l 196 -114 l 167 -251 l 18 -251 l 47 -114 z "},"ḹ":{"ha":414,"x_min":18,"x_max":546,"o":"m 119 1121 l 546 1121 l 522 1006 l 96 1006 l 119 1121 m 181 -14 q 31 114 31 -14 q 38 172 31 138 l 200 936 l 388 936 l 228 188 q 225 160 225 176 q 235 134 225 142 q 269 126 246 126 q 336 136 306 126 l 310 7 q 249 -9 278 -4 q 181 -14 219 -14 m 47 -114 l 196 -114 l 167 -251 l 18 -251 l 47 -114 z "},"ḻ":{"ha":414,"x_min":-124,"x_max":388,"o":"m 181 -14 q 31 114 31 -14 q 38 172 31 138 l 200 936 l 388 936 l 228 188 q 225 160 225 176 q 235 134 225 142 q 269 126 246 126 q 336 136 306 126 l 310 7 q 249 -9 278 -4 q 181 -14 219 -14 m -100 -104 l 326 -104 l 303 -219 l -124 -219 l -100 -104 z "},"ł":{"ha":414,"x_min":-50,"x_max":453,"o":"m 228 188 q 225 160 225 176 q 235 134 225 142 q 269 126 246 126 q 336 136 306 126 l 310 7 q 249 -9 278 -4 q 181 -14 219 -14 q 31 114 31 -14 q 38 172 31 138 l 81 372 l -50 321 l -22 456 l 108 508 l 200 936 l 388 936 l 314 589 l 453 644 l 425 510 l 285 454 l 228 188 z "},"m":{"ha":1192,"x_min":1,"x_max":1140,"o":"m 140 658 l 314 658 l 307 594 q 549 672 428 672 q 651 652 615 672 q 699 592 686 632 q 960 672 819 672 q 1094 632 1049 672 q 1140 510 1140 592 q 1132 433 1140 475 l 1040 0 l 856 0 l 943 413 q 949 463 949 439 q 926 517 949 500 q 851 535 904 535 q 772 519 813 535 q 700 475 732 503 q 694 418 701 451 l 607 0 l 432 0 l 519 413 q 525 464 525 439 q 506 517 525 500 q 443 535 488 535 q 283 464 372 535 l 186 0 l 1 0 l 140 658 z "},"ṃ":{"ha":1192,"x_min":1,"x_max":1140,"o":"m 140 658 l 314 658 l 307 594 q 549 672 428 672 q 651 652 615 672 q 699 592 686 632 q 960 672 819 672 q 1094 632 1049 672 q 1140 510 1140 592 q 1132 433 1140 475 l 1040 0 l 856 0 l 943 413 q 949 463 949 439 q 926 517 949 500 q 851 535 904 535 q 772 519 813 535 q 700 475 732 503 q 694 418 701 451 l 607 0 l 432 0 l 519 413 q 525 464 525 439 q 506 517 525 500 q 443 535 488 535 q 283 464 372 535 l 186 0 l 1 0 l 140 658 m 440 -114 l 589 -114 l 560 -251 l 411 -251 l 440 -114 z "},"n":{"ha":815,"x_min":1,"x_max":761,"o":"m 140 658 l 314 658 l 308 596 q 425 651 360 629 q 556 672 490 672 q 710 628 658 672 q 761 500 761 585 q 753 422 761 464 l 664 0 l 476 0 l 564 413 q 569 463 569 439 q 547 518 569 501 q 469 535 524 535 q 372 516 419 535 q 288 467 325 497 l 189 0 l 1 0 l 140 658 z "},"ń":{"ha":815,"x_min":1,"x_max":761,"o":"m 553 985 l 715 985 l 538 725 l 386 725 l 553 985 m 140 658 l 314 658 l 308 596 q 425 651 360 629 q 556 672 490 672 q 710 628 658 672 q 761 500 761 585 q 753 422 761 464 l 664 0 l 476 0 l 564 413 q 569 463 569 439 q 547 518 569 501 q 469 535 524 535 q 372 516 419 535 q 288 467 325 497 l 189 0 l 1 0 l 140 658 z "},"ŉ":{"ha":850,"x_min":-39,"x_max":796,"o":"m 63 897 l 210 897 l 81 618 l -39 618 l 63 897 m 175 658 l 349 658 l 343 596 q 460 651 394 629 q 590 672 525 672 q 744 628 693 672 q 796 500 796 585 q 788 422 796 464 l 699 0 l 511 0 l 599 413 q 604 463 604 439 q 581 518 604 501 q 504 535 558 535 q 407 516 454 535 q 322 467 360 497 l 224 0 l 36 0 l 175 658 z "},"ň":{"ha":815,"x_min":1,"x_max":771,"o":"m 278 967 l 417 967 l 486 828 l 619 967 l 771 967 l 532 725 l 413 725 l 278 967 m 140 658 l 314 658 l 308 596 q 425 651 360 629 q 556 672 490 672 q 710 628 658 672 q 761 500 761 585 q 753 422 761 464 l 664 0 l 476 0 l 564 413 q 569 463 569 439 q 547 518 569 501 q 469 535 524 535 q 372 516 419 535 q 288 467 325 497 l 189 0 l 1 0 l 140 658 z "},"ņ":{"ha":815,"x_min":1,"x_max":761,"o":"m 140 658 l 314 658 l 308 596 q 425 651 360 629 q 556 672 490 672 q 710 628 658 672 q 761 500 761 585 q 753 422 761 464 l 664 0 l 476 0 l 564 413 q 569 463 569 439 q 547 518 569 501 q 469 535 524 535 q 372 516 419 535 q 288 467 325 497 l 189 0 l 1 0 l 140 658 m 264 -51 l 411 -51 l 282 -331 l 163 -331 l 264 -51 z "},"ṅ":{"ha":815,"x_min":1,"x_max":761,"o":"m 450 896 l 596 896 l 567 760 l 421 760 l 450 896 m 140 658 l 314 658 l 308 596 q 425 651 360 629 q 556 672 490 672 q 710 628 658 672 q 761 500 761 585 q 753 422 761 464 l 664 0 l 476 0 l 564 413 q 569 463 569 439 q 547 518 569 501 q 469 535 524 535 q 372 516 419 535 q 288 467 325 497 l 189 0 l 1 0 l 140 658 z "},"ṇ":{"ha":815,"x_min":1,"x_max":761,"o":"m 140 658 l 314 658 l 308 596 q 425 651 360 629 q 556 672 490 672 q 710 628 658 672 q 761 500 761 585 q 753 422 761 464 l 664 0 l 476 0 l 564 413 q 569 463 569 439 q 547 518 569 501 q 469 535 524 535 q 372 516 419 535 q 288 467 325 497 l 189 0 l 1 0 l 140 658 m 244 -114 l 393 -114 l 364 -251 l 215 -251 l 244 -114 z "},"ŋ":{"ha":815,"x_min":1,"x_max":763,"o":"m 367 -325 q 222 -300 279 -325 l 249 -171 q 329 -185 289 -185 q 417 -162 386 -185 q 457 -89 447 -139 l 564 413 q 569 460 569 436 q 544 517 569 500 q 461 535 519 535 q 371 516 418 535 q 288 467 324 497 l 189 0 l 1 0 l 140 658 l 314 658 l 308 596 q 425 651 360 629 q 556 672 490 672 q 712 632 661 672 q 763 508 763 592 q 753 422 763 467 l 640 -107 q 549 -267 618 -208 q 367 -325 479 -325 z "},"ṉ":{"ha":815,"x_min":1,"x_max":761,"o":"m 140 658 l 314 658 l 308 596 q 425 651 360 629 q 556 672 490 672 q 710 628 658 672 q 761 500 761 585 q 753 422 761 464 l 664 0 l 476 0 l 564 413 q 569 463 569 439 q 547 518 569 501 q 469 535 524 535 q 372 516 419 535 q 288 467 325 497 l 189 0 l 1 0 l 140 658 m 107 -100 l 533 -100 l 510 -215 l 83 -215 l 107 -100 z "},"ñ":{"ha":815,"x_min":1,"x_max":764,"o":"m 615 742 q 563 749 588 742 q 499 771 538 756 q 403 797 438 797 q 267 746 326 797 l 296 879 q 354 910 319 899 q 425 922 389 922 q 480 915 454 922 q 536 893 506 907 q 592 873 572 879 q 638 867 613 867 q 764 919 715 867 l 735 786 q 685 754 718 767 q 615 742 653 742 m 140 658 l 314 658 l 308 596 q 425 651 360 629 q 556 672 490 672 q 710 628 658 672 q 761 500 761 585 q 753 422 761 464 l 664 0 l 476 0 l 564 413 q 569 463 569 439 q 547 518 569 501 q 469 535 524 535 q 372 516 419 535 q 288 467 325 497 l 189 0 l 1 0 l 140 658 z "},"o":{"ha":818,"x_min":31,"x_max":769,"o":"m 326 -14 q 106 48 181 -14 q 32 228 32 110 q 43 329 31 272 q 183 585 79 499 q 472 672 286 672 q 695 610 621 672 q 769 429 769 547 q 758 329 769 388 q 619 72 722 158 q 326 -14 517 -14 m 361 146 q 499 188 453 146 q 568 329 546 229 q 578 408 578 372 q 546 489 578 465 q 439 513 514 513 q 301 471 349 513 q 233 329 254 429 q 222 249 222 278 q 255 169 222 193 q 361 146 288 146 z "},"ó":{"ha":818,"x_min":31,"x_max":769,"o":"m 565 985 l 728 985 l 550 725 l 399 725 l 565 985 m 326 -14 q 106 48 181 -14 q 32 228 32 110 q 43 329 31 272 q 183 585 79 499 q 472 672 286 672 q 695 610 621 672 q 769 429 769 547 q 758 329 769 388 q 619 72 722 158 q 326 -14 517 -14 m 361 146 q 499 188 453 146 q 568 329 546 229 q 578 408 578 372 q 546 489 578 465 q 439 513 514 513 q 301 471 349 513 q 233 329 254 429 q 222 249 222 278 q 255 169 222 193 q 361 146 288 146 z "},"ŏ":{"ha":818,"x_min":31,"x_max":769,"o":"m 483 725 q 354 767 401 725 q 307 885 307 810 q 314 943 307 908 l 431 943 q 426 903 426 922 q 500 833 426 833 q 578 865 546 833 q 619 943 610 897 l 751 943 q 661 782 729 839 q 483 725 593 725 m 326 -14 q 106 48 181 -14 q 32 228 32 110 q 43 329 31 272 q 183 585 79 499 q 472 672 286 672 q 695 610 621 672 q 769 429 769 547 q 758 329 769 388 q 619 72 722 158 q 326 -14 517 -14 m 361 146 q 499 188 453 146 q 568 329 546 229 q 578 408 578 372 q 546 489 578 465 q 439 513 514 513 q 301 471 349 513 q 233 329 254 429 q 222 249 222 278 q 255 169 222 193 q 361 146 288 146 z "},"ǒ":{"ha":818,"x_min":31,"x_max":782,"o":"m 289 967 l 428 967 l 497 828 l 631 967 l 782 967 l 543 725 l 424 725 l 289 967 m 326 -14 q 106 48 181 -14 q 32 228 32 110 q 43 329 31 272 q 183 585 79 499 q 472 672 286 672 q 695 610 621 672 q 769 429 769 547 q 758 329 769 388 q 619 72 722 158 q 326 -14 517 -14 m 361 146 q 499 188 453 146 q 568 329 546 229 q 578 408 578 372 q 546 489 578 465 q 439 513 514 513 q 301 471 349 513 q 233 329 254 429 q 222 249 222 278 q 255 169 222 193 q 361 146 288 146 z "},"ô":{"ha":818,"x_min":31,"x_max":769,"o":"m 475 967 l 594 967 l 731 725 l 593 725 l 519 864 l 390 725 l 238 725 l 475 967 m 326 -14 q 106 48 181 -14 q 32 228 32 110 q 43 329 31 272 q 183 585 79 499 q 472 672 286 672 q 695 610 621 672 q 769 429 769 547 q 758 329 769 388 q 619 72 722 158 q 326 -14 517 -14 m 361 146 q 499 188 453 146 q 568 329 546 229 q 578 408 578 372 q 546 489 578 465 q 439 513 514 513 q 301 471 349 513 q 233 329 254 429 q 222 249 222 278 q 255 169 222 193 q 361 146 288 146 z "},"ố":{"ha":818,"x_min":31,"x_max":940,"o":"m 799 1082 l 940 1082 l 797 886 l 667 886 l 799 1082 m 458 911 l 601 911 l 738 724 l 593 724 l 522 836 l 406 724 l 244 724 l 458 911 m 326 -14 q 106 48 181 -14 q 32 228 32 110 q 43 329 31 272 q 183 585 79 499 q 472 672 286 672 q 695 610 621 672 q 769 429 769 547 q 758 329 769 388 q 619 72 722 158 q 326 -14 517 -14 m 361 146 q 499 188 453 146 q 568 329 546 229 q 578 408 578 372 q 546 489 578 465 q 439 513 514 513 q 301 471 349 513 q 233 329 254 429 q 222 249 222 278 q 255 169 222 193 q 361 146 288 146 z "},"ộ":{"ha":818,"x_min":31,"x_max":769,"o":"m 475 967 l 594 967 l 731 725 l 593 725 l 519 864 l 390 725 l 238 725 l 475 967 m 326 -14 q 106 48 181 -14 q 32 228 32 110 q 43 329 31 272 q 183 585 79 499 q 472 672 286 672 q 695 610 621 672 q 769 429 769 547 q 758 329 769 388 q 619 72 722 158 q 326 -14 517 -14 m 361 146 q 499 188 453 146 q 568 329 546 229 q 578 408 578 372 q 546 489 578 465 q 439 513 514 513 q 301 471 349 513 q 233 329 254 429 q 222 249 222 278 q 255 169 222 193 q 361 146 288 146 m 233 -114 l 382 -114 l 353 -251 l 204 -251 l 233 -114 z "},"ồ":{"ha":818,"x_min":31,"x_max":769,"o":"m 188 1082 l 329 1082 l 379 886 l 247 886 l 188 1082 m 453 911 l 596 911 l 732 724 l 588 724 l 517 836 l 400 724 l 239 724 l 453 911 m 326 -14 q 106 48 181 -14 q 32 228 32 110 q 43 329 31 272 q 183 585 79 499 q 472 672 286 672 q 695 610 621 672 q 769 429 769 547 q 758 329 769 388 q 619 72 722 158 q 326 -14 517 -14 m 361 146 q 499 188 453 146 q 568 329 546 229 q 578 408 578 372 q 546 489 578 465 q 439 513 514 513 q 301 471 349 513 q 233 329 254 429 q 222 249 222 278 q 255 169 222 193 q 361 146 288 146 z "},"ổ":{"ha":818,"x_min":31,"x_max":946,"o":"m 697 953 q 782 967 758 956 q 810 1001 806 978 q 801 1031 814 1022 q 756 1039 788 1039 q 678 1022 718 1039 l 697 1108 q 814 1125 750 1125 q 912 1101 878 1125 q 946 1035 946 1076 q 943 1013 946 1029 q 814 903 924 919 l 804 856 l 676 856 l 697 953 m 463 911 l 606 911 l 742 724 l 597 724 l 526 836 l 410 724 l 249 724 l 463 911 m 326 -14 q 106 48 181 -14 q 32 228 32 110 q 43 329 31 272 q 183 585 79 499 q 472 672 286 672 q 695 610 621 672 q 769 429 769 547 q 758 329 769 388 q 619 72 722 158 q 326 -14 517 -14 m 361 146 q 499 188 453 146 q 568 329 546 229 q 578 408 578 372 q 546 489 578 465 q 439 513 514 513 q 301 471 349 513 q 233 329 254 429 q 222 249 222 278 q 255 169 222 193 q 361 146 288 146 z "},"ỗ":{"ha":818,"x_min":31,"x_max":800,"o":"m 656 971 q 601 978 626 971 q 540 1000 576 986 q 444 1026 479 1026 q 308 975 365 1026 l 333 1094 q 392 1126 357 1114 q 464 1138 428 1138 q 574 1108 513 1138 q 630 1088 610 1094 q 675 1082 650 1082 q 800 1135 754 1082 l 776 1015 q 726 983 758 996 q 656 971 693 971 m 485 725 q 347 764 400 725 q 294 883 294 803 q 301 942 294 907 l 408 942 q 403 899 403 919 q 426 842 403 861 q 501 824 450 824 q 643 942 617 824 l 758 942 q 665 777 733 829 q 485 725 596 725 m 326 -14 q 106 48 181 -14 q 32 228 32 110 q 43 329 31 272 q 183 585 79 499 q 472 672 286 672 q 695 610 621 672 q 769 429 769 547 q 758 329 769 388 q 619 72 722 158 q 326 -14 517 -14 m 361 146 q 499 188 453 146 q 568 329 546 229 q 578 408 578 372 q 546 489 578 465 q 439 513 514 513 q 301 471 349 513 q 233 329 254 429 q 222 249 222 278 q 255 169 222 193 q 361 146 288 146 z "},"ö":{"ha":818,"x_min":31,"x_max":769,"o":"m 311 896 l 457 896 l 428 760 l 282 760 l 311 896 m 582 896 l 729 896 l 700 760 l 553 760 l 582 896 m 326 -14 q 106 48 181 -14 q 32 228 32 110 q 43 329 31 272 q 183 585 79 499 q 472 672 286 672 q 695 610 621 672 q 769 429 769 547 q 758 329 769 388 q 619 72 722 158 q 326 -14 517 -14 m 361 146 q 499 188 453 146 q 568 329 546 229 q 578 408 578 372 q 546 489 578 465 q 439 513 514 513 q 301 471 349 513 q 233 329 254 429 q 222 249 222 278 q 255 169 222 193 q 361 146 288 146 z "},"ọ":{"ha":818,"x_min":31,"x_max":769,"o":"m 326 -14 q 106 48 181 -14 q 32 228 32 110 q 43 329 31 272 q 183 585 79 499 q 472 672 286 672 q 695 610 621 672 q 769 429 769 547 q 758 329 769 388 q 619 72 722 158 q 326 -14 517 -14 m 361 146 q 499 188 453 146 q 568 329 546 229 q 578 408 578 372 q 546 489 578 465 q 439 513 514 513 q 301 471 349 513 q 233 329 254 429 q 222 249 222 278 q 255 169 222 193 q 361 146 288 146 m 233 -114 l 382 -114 l 353 -251 l 204 -251 l 233 -114 z "},"ò":{"ha":818,"x_min":31,"x_max":769,"o":"m 347 985 l 510 985 l 565 725 l 414 725 l 347 985 m 326 -14 q 106 48 181 -14 q 32 228 32 110 q 43 329 31 272 q 183 585 79 499 q 472 672 286 672 q 695 610 621 672 q 769 429 769 547 q 758 329 769 388 q 619 72 722 158 q 326 -14 517 -14 m 361 146 q 499 188 453 146 q 568 329 546 229 q 578 408 578 372 q 546 489 578 465 q 439 513 514 513 q 301 471 349 513 q 233 329 254 429 q 222 249 222 278 q 255 169 222 193 q 361 146 288 146 z "},"ỏ":{"ha":818,"x_min":31,"x_max":769,"o":"m 440 836 q 544 855 515 840 q 579 903 572 869 q 581 914 581 907 q 496 957 581 957 q 449 953 475 957 q 406 942 424 949 l 426 1035 q 568 1053 483 1053 q 685 1025 644 1053 q 725 947 725 997 q 722 919 725 939 q 676 831 710 861 q 574 788 642 800 l 560 724 l 417 724 l 440 836 m 326 -14 q 106 48 181 -14 q 32 228 32 110 q 43 329 31 272 q 183 585 79 499 q 472 672 286 672 q 695 610 621 672 q 769 429 769 547 q 758 329 769 388 q 619 72 722 158 q 326 -14 517 -14 m 361 146 q 499 188 453 146 q 568 329 546 229 q 578 408 578 372 q 546 489 578 465 q 439 513 514 513 q 301 471 349 513 q 233 329 254 429 q 222 249 222 278 q 255 169 222 193 q 361 146 288 146 z "},"ơ":{"ha":964,"x_min":31,"x_max":1025,"o":"m 326 -14 q 106 48 181 -14 q 32 228 32 110 q 43 329 31 272 q 183 585 79 499 q 472 672 286 672 q 718 588 644 672 q 834 624 796 589 q 890 744 872 660 l 1025 744 q 936 549 997 613 q 768 468 875 485 l 767 469 q 769 426 769 442 q 758 329 769 385 q 619 72 722 158 q 326 -14 517 -14 m 361 146 q 499 188 453 146 q 568 329 546 229 q 578 408 578 372 q 546 489 578 465 q 439 513 514 513 q 301 471 349 513 q 233 329 254 429 q 222 249 222 278 q 255 169 222 193 q 361 146 288 146 z "},"ớ":{"ha":964,"x_min":31,"x_max":1025,"o":"m 583 985 l 746 985 l 568 725 l 417 725 l 583 985 m 326 -14 q 106 48 181 -14 q 32 228 32 110 q 43 329 31 272 q 183 585 79 499 q 472 672 286 672 q 718 588 644 672 q 834 624 796 589 q 890 744 872 660 l 1025 744 q 936 549 997 613 q 768 468 875 485 l 767 469 q 769 426 769 442 q 758 329 769 385 q 619 72 722 158 q 326 -14 517 -14 m 361 146 q 499 188 453 146 q 568 329 546 229 q 578 408 578 372 q 546 489 578 465 q 439 513 514 513 q 301 471 349 513 q 233 329 254 429 q 222 249 222 278 q 255 169 222 193 q 361 146 288 146 z "},"ợ":{"ha":964,"x_min":31,"x_max":1025,"o":"m 326 -14 q 106 48 181 -14 q 32 228 32 110 q 43 329 31 272 q 183 585 79 499 q 472 672 286 672 q 718 588 644 672 q 834 624 796 589 q 890 744 872 660 l 1025 744 q 936 549 997 613 q 768 468 875 485 l 767 469 q 769 426 769 442 q 758 329 769 385 q 619 72 722 158 q 326 -14 517 -14 m 361 146 q 499 188 453 146 q 568 329 546 229 q 578 408 578 372 q 546 489 578 465 q 439 513 514 513 q 301 471 349 513 q 233 329 254 429 q 222 249 222 278 q 255 169 222 193 q 361 146 288 146 m 244 -114 l 393 -114 l 364 -251 l 215 -251 l 244 -114 z "},"ờ":{"ha":964,"x_min":31,"x_max":1025,"o":"m 368 985 l 531 985 l 586 725 l 435 725 l 368 985 m 326 -14 q 106 48 181 -14 q 32 228 32 110 q 43 329 31 272 q 183 585 79 499 q 472 672 286 672 q 718 588 644 672 q 834 624 796 589 q 890 744 872 660 l 1025 744 q 936 549 997 613 q 768 468 875 485 l 767 469 q 769 426 769 442 q 758 329 769 385 q 619 72 722 158 q 326 -14 517 -14 m 361 146 q 499 188 453 146 q 568 329 546 229 q 578 408 578 372 q 546 489 578 465 q 439 513 514 513 q 301 471 349 513 q 233 329 254 429 q 222 249 222 278 q 255 169 222 193 q 361 146 288 146 z "},"ở":{"ha":964,"x_min":31,"x_max":1025,"o":"m 435 836 q 538 855 510 840 q 574 903 567 869 q 575 914 575 907 q 490 957 575 957 q 444 953 469 957 q 400 942 418 949 l 421 1035 q 563 1053 478 1053 q 679 1025 639 1053 q 719 947 719 997 q 717 919 719 939 q 670 831 704 861 q 568 788 636 800 l 554 724 l 411 724 l 435 836 m 326 -14 q 106 48 181 -14 q 32 228 32 110 q 43 329 31 272 q 183 585 79 499 q 472 672 286 672 q 718 588 644 672 q 834 624 796 589 q 890 744 872 660 l 1025 744 q 936 549 997 613 q 768 468 875 485 l 767 469 q 769 426 769 442 q 758 329 769 385 q 619 72 722 158 q 326 -14 517 -14 m 361 146 q 499 188 453 146 q 568 329 546 229 q 578 408 578 372 q 546 489 578 465 q 439 513 514 513 q 301 471 349 513 q 233 329 254 429 q 222 249 222 278 q 255 169 222 193 q 361 146 288 146 z "},"ỡ":{"ha":964,"x_min":31,"x_max":1025,"o":"m 615 738 q 563 744 588 738 q 499 767 538 751 q 403 793 438 793 q 267 742 326 793 l 296 875 q 354 906 319 894 q 425 918 389 918 q 480 910 454 918 q 536 889 506 903 q 592 869 572 875 q 638 863 613 863 q 764 915 715 863 l 735 782 q 685 750 718 763 q 615 738 653 738 m 326 -14 q 106 48 181 -14 q 32 228 32 110 q 43 329 31 272 q 183 585 79 499 q 472 672 286 672 q 718 588 644 672 q 834 624 796 589 q 890 744 872 660 l 1025 744 q 936 549 997 613 q 768 468 875 485 l 767 469 q 769 426 769 442 q 758 329 769 385 q 619 72 722 158 q 326 -14 517 -14 m 361 146 q 499 188 453 146 q 568 329 546 229 q 578 408 578 372 q 546 489 578 465 q 439 513 514 513 q 301 471 349 513 q 233 329 254 429 q 222 249 222 278 q 255 169 222 193 q 361 146 288 146 z "},"ő":{"ha":818,"x_min":31,"x_max":886,"o":"m 404 968 l 569 968 l 390 724 l 242 724 l 404 968 m 719 968 l 886 968 l 706 724 l 557 724 l 719 968 m 326 -14 q 106 48 181 -14 q 32 228 32 110 q 43 329 31 272 q 183 585 79 499 q 472 672 286 672 q 695 610 621 672 q 769 429 769 547 q 758 329 769 388 q 619 72 722 158 q 326 -14 517 -14 m 361 146 q 499 188 453 146 q 568 329 546 229 q 578 408 578 372 q 546 489 578 465 q 439 513 514 513 q 301 471 349 513 q 233 329 254 429 q 222 249 222 278 q 255 169 222 193 q 361 146 288 146 z "},"ō":{"ha":818,"x_min":31,"x_max":769,"o":"m 297 888 l 724 888 l 700 772 l 274 772 l 297 888 m 326 -14 q 106 48 181 -14 q 32 228 32 110 q 43 329 31 272 q 183 585 79 499 q 472 672 286 672 q 695 610 621 672 q 769 429 769 547 q 758 329 769 388 q 619 72 722 158 q 326 -14 517 -14 m 361 146 q 499 188 453 146 q 568 329 546 229 q 578 408 578 372 q 546 489 578 465 q 439 513 514 513 q 301 471 349 513 q 233 329 254 429 q 222 249 222 278 q 255 169 222 193 q 361 146 288 146 z "},"ø":{"ha":818,"x_min":32,"x_max":769,"o":"m 156 17 q 32 228 32 72 q 43 329 32 281 q 183 585 79 499 q 472 672 286 672 q 543 668 510 672 l 582 733 l 689 733 l 636 644 q 769 429 769 589 q 758 329 769 388 q 619 72 722 158 q 326 -14 517 -14 q 247 -8 281 -14 l 210 -74 l 103 -74 l 156 17 m 450 513 l 439 513 q 301 471 349 513 q 233 329 254 429 q 222 247 222 278 q 249 174 222 196 l 450 513 m 361 146 q 499 188 453 146 q 568 329 546 229 q 578 407 578 383 q 544 489 578 465 l 340 146 l 361 146 z "},"ǿ":{"ha":818,"x_min":32,"x_max":769,"o":"m 542 985 l 704 985 l 526 725 l 375 725 l 542 985 m 156 17 q 32 228 32 72 q 43 329 32 281 q 183 585 79 499 q 472 672 286 672 q 543 668 510 672 l 582 733 l 689 733 l 636 644 q 769 429 769 589 q 758 329 769 388 q 619 72 722 158 q 326 -14 517 -14 q 247 -8 281 -14 l 210 -74 l 103 -74 l 156 17 m 450 513 l 439 513 q 301 471 349 513 q 233 329 254 429 q 222 247 222 278 q 249 174 222 196 l 450 513 m 361 146 q 499 188 453 146 q 568 329 546 229 q 578 407 578 383 q 544 489 578 465 l 340 146 l 361 146 z "},"õ":{"ha":818,"x_min":31,"x_max":769,"o":"m 611 756 q 558 763 583 756 q 494 785 533 769 q 399 811 433 811 q 263 760 322 811 l 292 893 q 350 924 315 913 q 421 936 385 936 q 476 928 450 936 q 532 907 501 921 q 588 887 568 893 q 633 881 608 881 q 760 933 711 881 l 731 800 q 681 768 714 781 q 611 756 649 756 m 326 -14 q 106 48 181 -14 q 32 228 32 110 q 43 329 31 272 q 183 585 79 499 q 472 672 286 672 q 695 610 621 672 q 769 429 769 547 q 758 329 769 388 q 619 72 722 158 q 326 -14 517 -14 m 361 146 q 499 188 453 146 q 568 329 546 229 q 578 408 578 372 q 546 489 578 465 q 439 513 514 513 q 301 471 349 513 q 233 329 254 429 q 222 249 222 278 q 255 169 222 193 q 361 146 288 146 z "},"œ":{"ha":1292,"x_min":31,"x_max":1251,"o":"m 989 672 q 1184 615 1117 672 q 1251 457 1251 557 q 1243 383 1251 424 l 1218 264 l 742 264 q 758 181 740 210 q 822 139 776 151 q 949 126 867 126 q 1058 136 1001 126 q 1157 161 1115 146 l 1129 28 q 879 -14 1029 -14 q 730 9 794 -14 q 626 78 665 32 q 326 -14 519 -14 q 106 48 181 -14 q 32 228 32 110 q 43 329 31 272 q 183 585 79 499 q 472 672 286 672 q 717 589 644 672 q 989 672 818 672 m 1086 415 q 1090 450 1090 435 q 967 538 1090 538 q 830 501 875 538 q 767 379 785 464 l 1079 379 l 1086 415 m 361 146 q 499 188 453 146 q 568 329 546 229 q 578 408 578 372 q 546 489 578 465 q 439 513 514 513 q 301 471 349 513 q 233 329 254 429 q 222 249 222 278 q 255 169 222 193 q 361 146 288 146 z "},"p":{"ha":819,"x_min":-62,"x_max":772,"o":"m 140 658 l 303 658 l 300 597 q 407 653 351 635 q 531 672 463 672 q 710 616 647 672 q 772 444 772 560 q 760 331 772 393 q 627 70 722 154 q 374 -14 532 -14 q 196 36 263 -14 l 125 -300 l -62 -300 l 140 658 m 356 124 q 494 174 440 124 q 571 333 547 225 q 582 424 582 389 q 551 508 582 482 q 449 535 519 535 q 289 475 363 535 l 225 174 q 281 136 251 149 q 356 124 311 124 z "},"þ":{"ha":819,"x_min":-62,"x_max":772,"o":"m 207 972 l 394 972 l 321 622 q 526 672 408 672 q 707 614 642 672 q 772 439 772 556 q 760 331 772 392 q 626 70 722 154 q 374 -14 529 -14 q 196 36 263 -14 l 125 -300 l -62 -300 l 207 972 m 356 124 q 494 174 440 124 q 571 333 547 225 q 582 421 582 386 q 551 508 582 481 q 449 535 519 535 q 289 475 363 535 l 225 174 q 281 136 251 149 q 356 124 311 124 z "},"q":{"ha":904,"x_min":32,"x_max":801,"o":"m 594 -336 q 436 -207 436 -336 q 444 -142 436 -178 l 482 36 q 282 -14 394 -14 q 100 47 168 -14 q 32 226 32 107 q 43 331 32 281 q 174 589 81 506 q 419 672 267 672 q 533 653 488 672 q 617 597 579 635 l 640 658 l 801 658 l 636 -124 q 632 -156 632 -143 q 646 -187 632 -178 q 690 -196 660 -196 q 749 -186 715 -196 l 721 -315 q 661 -331 689 -326 q 594 -336 633 -336 m 358 124 q 440 136 404 124 q 511 174 475 149 l 575 475 q 519 520 550 506 q 443 535 488 535 q 304 488 351 535 q 235 333 257 440 q 224 244 224 278 q 256 153 224 182 q 358 124 289 124 z "},"r":{"ha":525,"x_min":1,"x_max":565,"o":"m 140 658 l 314 658 l 308 590 q 430 642 360 619 q 565 672 500 664 l 536 531 q 403 502 475 522 q 286 460 331 482 l 189 0 l 1 0 l 140 658 z "},"ŕ":{"ha":525,"x_min":1,"x_max":565,"o":"m 390 985 l 553 985 l 375 725 l 224 725 l 390 985 m 140 658 l 314 658 l 308 590 q 430 642 360 619 q 565 672 500 664 l 536 531 q 403 502 475 522 q 286 460 331 482 l 189 0 l 1 0 l 140 658 z "},"ř":{"ha":525,"x_min":1,"x_max":592,"o":"m 99 967 l 238 967 l 307 828 l 440 967 l 592 967 l 353 725 l 233 725 l 99 967 m 140 658 l 314 658 l 308 590 q 430 642 360 619 q 565 672 500 664 l 536 531 q 403 502 475 522 q 286 460 331 482 l 189 0 l 1 0 l 140 658 z "},"ŗ":{"ha":525,"x_min":-93,"x_max":565,"o":"m 140 658 l 314 658 l 308 590 q 430 642 360 619 q 565 672 500 664 l 536 531 q 403 502 475 522 q 286 460 331 482 l 189 0 l 1 0 l 140 658 m 8 -51 l 156 -51 l 26 -331 l -93 -331 l 8 -51 z "},"ṛ":{"ha":525,"x_min":-43,"x_max":565,"o":"m 140 658 l 314 658 l 308 590 q 430 642 360 619 q 565 672 500 664 l 536 531 q 403 502 475 522 q 286 460 331 482 l 189 0 l 1 0 l 140 658 m -14 -114 l 135 -114 l 106 -251 l -43 -251 l -14 -114 z "},"ṝ":{"ha":536,"x_min":-22,"x_max":576,"o":"m 139 881 l 565 881 l 542 765 l 115 765 l 139 881 m 151 658 l 325 658 l 319 590 q 441 642 371 619 q 576 672 511 664 l 547 531 q 414 502 486 522 q 297 460 342 482 l 200 0 l 13 0 l 151 658 m 7 -114 l 156 -114 l 126 -251 l -22 -251 l 7 -114 z "},"ṟ":{"ha":525,"x_min":-157,"x_max":565,"o":"m 140 658 l 314 658 l 308 590 q 430 642 360 619 q 565 672 500 664 l 536 531 q 403 502 475 522 q 286 460 331 482 l 189 0 l 1 0 l 140 658 m -133 -100 l 293 -100 l 269 -215 l -157 -215 l -133 -100 z "},"s":{"ha":654,"x_min":-10,"x_max":607,"o":"m 229 -14 q 93 -4 157 -14 q -10 22 29 6 l 24 178 q 124 148 65 158 q 238 138 183 138 q 339 147 310 138 q 374 183 368 156 q 356 222 378 208 q 268 258 333 236 q 247 266 258 263 q 219 275 235 269 q 106 339 143 303 q 68 431 68 375 q 74 476 68 454 q 173 624 96 575 q 406 672 250 672 q 516 664 463 672 q 607 642 569 656 l 574 488 q 495 514 542 504 q 406 524 449 524 q 299 513 335 524 q 264 471 264 501 q 285 440 264 451 q 364 411 307 429 q 406 399 382 407 q 532 331 494 368 q 569 239 569 294 q 564 186 569 213 q 463 35 543 85 q 229 -14 383 -14 z "},"ś":{"ha":654,"x_min":-10,"x_max":644,"o":"m 482 985 l 644 985 l 467 725 l 315 725 l 482 985 m 229 -14 q 93 -4 157 -14 q -10 22 29 6 l 24 178 q 124 148 65 158 q 238 138 183 138 q 339 147 310 138 q 374 183 368 156 q 356 222 378 208 q 268 258 333 236 q 247 266 258 263 q 219 275 235 269 q 106 339 143 303 q 68 431 68 375 q 74 476 68 454 q 173 624 96 575 q 406 672 250 672 q 516 664 463 672 q 607 642 569 656 l 574 488 q 495 514 542 504 q 406 524 449 524 q 299 513 335 524 q 264 471 264 501 q 285 440 264 451 q 364 411 307 429 q 406 399 382 407 q 532 331 494 368 q 569 239 569 294 q 564 186 569 213 q 463 35 543 85 q 229 -14 383 -14 z "},"š":{"ha":654,"x_min":-10,"x_max":697,"o":"m 204 967 l 343 967 l 413 828 l 546 967 l 697 967 l 458 725 l 339 725 l 204 967 m 229 -14 q 93 -4 157 -14 q -10 22 29 6 l 24 178 q 124 148 65 158 q 238 138 183 138 q 339 147 310 138 q 374 183 368 156 q 356 222 378 208 q 268 258 333 236 q 247 266 258 263 q 219 275 235 269 q 106 339 143 303 q 68 431 68 375 q 74 476 68 454 q 173 624 96 575 q 406 672 250 672 q 516 664 463 672 q 607 642 569 656 l 574 488 q 495 514 542 504 q 406 524 449 524 q 299 513 335 524 q 264 471 264 501 q 285 440 264 451 q 364 411 307 429 q 406 399 382 407 q 532 331 494 368 q 569 239 569 294 q 564 186 569 213 q 463 35 543 85 q 229 -14 383 -14 z "},"ş":{"ha":654,"x_min":-10,"x_max":607,"o":"m 151 -333 q 96 -330 128 -333 q 49 -322 64 -326 l 69 -228 q 151 -239 107 -239 q 241 -229 215 -239 q 272 -187 267 -219 q 274 -174 274 -182 q 251 -143 274 -150 q 178 -136 229 -136 l 117 -136 l 178 -12 q -10 22 53 -6 l 24 178 q 124 148 65 158 q 238 138 183 138 q 339 147 310 138 q 374 183 368 156 q 356 222 378 208 q 268 258 333 236 q 247 266 258 263 q 219 275 235 269 q 106 339 143 303 q 68 431 68 375 q 74 476 68 454 q 173 624 96 575 q 406 672 250 672 q 516 664 463 672 q 607 642 569 656 l 574 488 q 495 514 542 504 q 406 524 449 524 q 299 513 335 524 q 264 471 264 501 q 285 440 264 451 q 364 411 307 429 q 406 399 382 407 q 532 331 494 368 q 569 239 569 294 q 564 186 569 213 q 482 49 544 97 q 301 -10 419 0 l 272 -62 q 365 -87 335 -62 q 396 -157 396 -112 q 393 -189 396 -178 q 318 -296 378 -258 q 151 -333 258 -333 z "},"ŝ":{"ha":654,"x_min":-10,"x_max":658,"o":"m 403 981 l 522 981 l 658 739 l 521 739 l 447 878 l 318 739 l 165 739 l 403 981 m 229 -14 q 93 -4 157 -14 q -10 22 29 6 l 24 178 q 124 148 65 158 q 238 138 183 138 q 339 147 310 138 q 374 183 368 156 q 356 222 378 208 q 268 258 333 236 q 247 266 258 263 q 219 275 235 269 q 106 339 143 303 q 68 431 68 375 q 74 476 68 454 q 173 624 96 575 q 406 672 250 672 q 516 664 463 672 q 607 642 569 656 l 574 488 q 495 514 542 504 q 406 524 449 524 q 299 513 335 524 q 264 471 264 501 q 285 440 264 451 q 364 411 307 429 q 406 399 382 407 q 532 331 494 368 q 569 239 569 294 q 564 186 569 213 q 463 35 543 85 q 229 -14 383 -14 z "},"ș":{"ha":654,"x_min":-10,"x_max":607,"o":"m 229 -14 q 93 -4 157 -14 q -10 22 29 6 l 24 178 q 124 148 65 158 q 238 138 183 138 q 339 147 310 138 q 374 183 368 156 q 356 222 378 208 q 268 258 333 236 q 247 266 258 263 q 219 275 235 269 q 106 339 143 303 q 68 431 68 375 q 74 476 68 454 q 173 624 96 575 q 406 672 250 672 q 516 664 463 672 q 607 642 569 656 l 574 488 q 495 514 542 504 q 406 524 449 524 q 299 513 335 524 q 264 471 264 501 q 285 440 264 451 q 364 411 307 429 q 406 399 382 407 q 532 331 494 368 q 569 239 569 294 q 564 186 569 213 q 463 35 543 85 q 229 -14 383 -14 m 165 -65 l 326 -65 l 215 -314 l 72 -314 l 165 -65 z "},"ṡ":{"ha":654,"x_min":-10,"x_max":607,"o":"m 360 896 l 506 896 l 476 760 l 331 760 l 360 896 m 229 -14 q 93 -4 157 -14 q -10 22 29 6 l 24 178 q 124 148 65 158 q 238 138 183 138 q 339 147 310 138 q 374 183 368 156 q 356 222 378 208 q 268 258 333 236 q 247 266 258 263 q 219 275 235 269 q 106 339 143 303 q 68 431 68 375 q 74 476 68 454 q 173 624 96 575 q 406 672 250 672 q 516 664 463 672 q 607 642 569 656 l 574 488 q 495 514 542 504 q 406 524 449 524 q 299 513 335 524 q 264 471 264 501 q 285 440 264 451 q 364 411 307 429 q 406 399 382 407 q 532 331 494 368 q 569 239 569 294 q 564 186 569 213 q 463 35 543 85 q 229 -14 383 -14 z "},"ṣ":{"ha":654,"x_min":-10,"x_max":607,"o":"m 229 -14 q 93 -4 157 -14 q -10 22 29 6 l 24 178 q 124 148 65 158 q 238 138 183 138 q 339 147 310 138 q 374 183 368 156 q 356 222 378 208 q 268 258 333 236 q 247 266 258 263 q 219 275 235 269 q 106 339 143 303 q 68 431 68 375 q 74 476 68 454 q 173 624 96 575 q 406 672 250 672 q 516 664 463 672 q 607 642 569 656 l 574 488 q 495 514 542 504 q 406 524 449 524 q 299 513 335 524 q 264 471 264 501 q 285 440 264 451 q 364 411 307 429 q 406 399 382 407 q 532 331 494 368 q 569 239 569 294 q 564 186 569 213 q 463 35 543 85 q 229 -14 383 -14 m 168 -114 l 317 -114 l 288 -251 l 139 -251 l 168 -114 z "},"ß":{"ha":881,"x_min":-6,"x_max":868,"o":"m 457 -14 q 264 18 344 -14 l 297 176 q 454 146 363 146 q 560 178 517 146 q 618 269 604 210 q 622 311 622 293 q 591 381 622 358 q 493 403 560 403 l 392 403 l 422 547 l 519 547 q 631 581 590 547 q 688 682 672 615 q 692 715 692 699 q 532 813 692 813 q 383 765 443 813 q 303 619 324 718 l 172 0 l -6 0 l 126 622 q 269 877 160 782 q 565 972 378 972 q 791 907 714 972 q 868 740 868 842 q 863 682 868 708 q 811 549 846 603 q 713 463 776 494 q 813 317 813 425 q 806 260 813 294 q 687 58 778 131 q 457 -14 596 -14 z "},"ə":{"ha":753,"x_min":24,"x_max":704,"o":"m 285 -14 q 94 42 164 -14 q 24 203 24 99 q 32 275 24 236 l 57 394 l 533 394 q 519 478 535 450 q 458 519 503 507 q 326 532 414 532 q 217 522 275 532 q 118 497 160 513 l 146 631 q 394 672 246 672 q 626 611 547 672 q 704 428 704 550 q 693 328 704 386 q 559 77 658 168 q 285 -14 460 -14 m 308 121 q 445 158 400 121 q 508 279 490 194 l 196 279 l 189 243 q 185 203 185 221 q 213 141 185 161 q 308 121 240 121 z "},"t":{"ha":511,"x_min":54,"x_max":532,"o":"m 258 -14 q 122 28 168 -14 q 75 144 75 69 q 82 208 75 171 l 147 514 l 54 514 l 85 658 l 178 658 l 208 800 l 407 856 l 365 658 l 532 658 l 490 514 l 335 514 l 272 221 q 268 182 268 199 q 288 139 268 151 q 356 126 308 126 q 439 140 393 126 l 411 11 q 258 -14 344 -14 z "},"ŧ":{"ha":511,"x_min":3,"x_max":532,"o":"m 258 -14 q 122 28 168 -14 q 75 144 75 69 q 82 208 75 171 l 94 271 l 3 271 l 29 397 l 122 397 l 147 514 l 54 514 l 85 658 l 178 658 l 208 800 l 407 856 l 365 658 l 532 658 l 490 514 l 335 514 l 310 397 l 478 397 l 451 271 l 282 271 l 272 221 q 268 182 268 199 q 288 139 268 151 q 356 126 308 126 q 439 140 393 126 l 411 11 q 258 -14 344 -14 z "},"ť":{"ha":676,"x_min":54,"x_max":786,"o":"m 639 1056 l 786 1056 l 657 776 l 538 776 l 639 1056 m 258 -14 q 122 28 168 -14 q 75 144 75 69 q 82 208 75 171 l 147 514 l 54 514 l 85 658 l 178 658 l 208 800 l 407 856 l 365 658 l 532 658 l 490 514 l 335 514 l 272 221 q 268 182 268 199 q 288 139 268 151 q 356 126 308 126 q 439 140 393 126 l 411 11 q 258 -14 344 -14 z "},"ţ":{"ha":543,"x_min":54,"x_max":532,"o":"m 160 -333 q 103 -330 136 -333 q 57 -322 71 -326 l 78 -228 q 160 -239 115 -239 q 249 -229 224 -239 q 281 -187 275 -219 q 282 -174 282 -182 q 260 -143 282 -150 q 186 -136 238 -136 l 125 -136 l 189 -6 q 104 47 133 8 q 75 144 75 85 q 82 208 75 179 l 147 514 l 54 514 l 85 658 l 178 658 l 208 800 l 407 856 l 365 658 l 532 658 l 490 514 l 335 514 l 272 221 q 268 182 268 199 q 288 139 268 151 q 356 126 308 126 q 439 140 393 126 l 411 11 q 308 -11 358 -7 l 281 -62 q 374 -87 343 -62 q 404 -157 404 -112 q 401 -189 404 -178 q 326 -296 386 -258 q 160 -333 267 -333 z "},"ț":{"ha":511,"x_min":53,"x_max":532,"o":"m 258 -14 q 122 28 168 -14 q 75 144 75 69 q 82 208 75 171 l 147 514 l 54 514 l 85 658 l 178 658 l 208 800 l 407 856 l 365 658 l 532 658 l 490 514 l 335 514 l 272 221 q 268 182 268 199 q 288 139 268 151 q 356 126 308 126 q 439 140 393 126 l 411 11 q 258 -14 344 -14 m 154 -65 l 301 -65 l 172 -344 l 53 -344 l 154 -65 z "},"ẗ":{"ha":513,"x_min":54,"x_max":585,"o":"m 167 1028 l 313 1028 l 283 892 l 138 892 l 167 1028 m 438 1028 l 585 1028 l 556 892 l 408 892 l 438 1028 m 258 -14 q 122 28 168 -14 q 75 144 75 69 q 82 208 75 171 l 147 514 l 54 514 l 85 658 l 178 658 l 208 800 l 407 856 l 365 658 l 532 658 l 490 514 l 335 514 l 272 221 q 268 182 268 199 q 288 139 268 151 q 356 126 308 126 q 439 140 393 126 l 411 11 q 258 -14 344 -14 z "},"ṭ":{"ha":511,"x_min":54,"x_max":532,"o":"m 258 -14 q 122 28 168 -14 q 75 144 75 69 q 82 208 75 171 l 147 514 l 54 514 l 85 658 l 178 658 l 208 800 l 407 856 l 365 658 l 532 658 l 490 514 l 335 514 l 272 221 q 268 182 268 199 q 288 139 268 151 q 356 126 308 126 q 439 140 393 126 l 411 11 q 258 -14 344 -14 m 144 -100 l 293 -100 l 264 -237 l 115 -237 l 144 -100 z "},"ṯ":{"ha":522,"x_min":-49,"x_max":532,"o":"m 258 -14 q 122 28 168 -14 q 75 144 75 69 q 82 208 75 171 l 147 514 l 54 514 l 85 658 l 178 658 l 208 800 l 407 856 l 365 658 l 532 658 l 490 514 l 335 514 l 272 221 q 268 182 268 199 q 288 139 268 151 q 356 126 308 126 q 439 140 393 126 l 411 11 q 258 -14 344 -14 m -25 -86 l 401 -86 l 378 -201 l -49 -201 l -25 -86 z "},"u":{"ha":815,"x_min":38,"x_max":796,"o":"m 240 -14 q 91 33 144 -14 q 38 169 38 81 q 46 246 38 204 l 133 658 l 321 658 l 235 250 q 229 203 229 226 q 254 142 229 161 q 335 124 279 124 q 427 142 382 124 q 510 192 472 161 l 608 658 l 796 658 l 657 0 l 483 0 l 489 63 q 240 -14 376 -14 z "},"ú":{"ha":815,"x_min":38,"x_max":796,"o":"m 549 985 l 711 985 l 533 725 l 382 725 l 549 985 m 240 -14 q 91 33 144 -14 q 38 169 38 81 q 46 246 38 204 l 133 658 l 321 658 l 235 250 q 229 203 229 226 q 254 142 229 161 q 335 124 279 124 q 427 142 382 124 q 510 192 472 161 l 608 658 l 796 658 l 657 0 l 483 0 l 489 63 q 240 -14 376 -14 z "},"ŭ":{"ha":815,"x_min":38,"x_max":796,"o":"m 489 725 q 360 767 407 725 q 313 885 313 810 q 319 943 313 908 l 436 943 q 432 903 432 922 q 506 833 432 833 q 583 865 551 833 q 625 943 615 897 l 757 943 q 667 782 735 839 q 489 725 599 725 m 240 -14 q 91 33 144 -14 q 38 169 38 81 q 46 246 38 204 l 133 658 l 321 658 l 235 250 q 229 203 229 226 q 254 142 229 161 q 335 124 279 124 q 427 142 382 124 q 510 192 472 161 l 608 658 l 796 658 l 657 0 l 483 0 l 489 63 q 240 -14 376 -14 z "},"ǔ":{"ha":815,"x_min":38,"x_max":796,"o":"m 285 967 l 424 967 l 493 828 l 626 967 l 778 967 l 539 725 l 419 725 l 285 967 m 240 -14 q 91 33 144 -14 q 38 169 38 81 q 46 246 38 204 l 133 658 l 321 658 l 235 250 q 229 203 229 226 q 254 142 229 161 q 335 124 279 124 q 427 142 382 124 q 510 192 472 161 l 608 658 l 796 658 l 657 0 l 483 0 l 489 63 q 240 -14 376 -14 z "},"û":{"ha":815,"x_min":38,"x_max":796,"o":"m 469 967 l 589 967 l 725 725 l 588 725 l 514 864 l 385 725 l 232 725 l 469 967 m 240 -14 q 91 33 144 -14 q 38 169 38 81 q 46 246 38 204 l 133 658 l 321 658 l 235 250 q 229 203 229 226 q 254 142 229 161 q 335 124 279 124 q 427 142 382 124 q 510 192 472 161 l 608 658 l 796 658 l 657 0 l 483 0 l 489 63 q 240 -14 376 -14 z "},"ü":{"ha":815,"x_min":38,"x_max":796,"o":"m 306 896 l 451 896 l 422 760 l 276 760 l 306 896 m 576 896 l 724 896 l 694 760 l 547 760 l 576 896 m 240 -14 q 91 33 144 -14 q 38 169 38 81 q 46 246 38 204 l 133 658 l 321 658 l 235 250 q 229 203 229 226 q 254 142 229 161 q 335 124 279 124 q 427 142 382 124 q 510 192 472 161 l 608 658 l 796 658 l 657 0 l 483 0 l 489 63 q 240 -14 376 -14 z "},"ǘ":{"ha":815,"x_min":38,"x_max":796,"o":"m 551 1061 l 693 1061 l 564 882 l 432 882 l 551 1061 m 288 854 l 426 854 l 399 725 l 260 725 l 288 854 m 565 854 l 706 854 l 678 725 l 538 725 l 565 854 m 240 -14 q 91 33 144 -14 q 38 169 38 81 q 46 246 38 204 l 133 658 l 321 658 l 235 250 q 229 203 229 226 q 254 142 229 161 q 335 124 279 124 q 427 142 382 124 q 510 192 472 161 l 608 658 l 796 658 l 657 0 l 483 0 l 489 63 q 240 -14 376 -14 z "},"ǚ":{"ha":815,"x_min":38,"x_max":796,"o":"m 332 1044 l 464 1044 l 525 943 l 631 1044 l 774 1044 l 582 876 l 453 876 l 332 1044 m 303 853 l 443 853 l 415 724 l 275 724 l 303 853 m 582 853 l 721 853 l 693 724 l 554 724 l 582 853 m 240 -14 q 91 33 144 -14 q 38 169 38 81 q 46 246 38 204 l 133 658 l 321 658 l 235 250 q 229 203 229 226 q 254 142 229 161 q 335 124 279 124 q 427 142 382 124 q 510 192 472 161 l 608 658 l 796 658 l 657 0 l 483 0 l 489 63 q 240 -14 376 -14 z "},"ǜ":{"ha":815,"x_min":38,"x_max":796,"o":"m 406 1061 l 547 1061 l 592 882 l 460 882 l 406 1061 m 308 854 l 447 854 l 419 725 l 281 725 l 308 854 m 586 854 l 726 854 l 699 725 l 558 725 l 586 854 m 240 -14 q 91 33 144 -14 q 38 169 38 81 q 46 246 38 204 l 133 658 l 321 658 l 235 250 q 229 203 229 226 q 254 142 229 161 q 335 124 279 124 q 427 142 382 124 q 510 192 472 161 l 608 658 l 796 658 l 657 0 l 483 0 l 489 63 q 240 -14 376 -14 z "},"ǖ":{"ha":815,"x_min":38,"x_max":796,"o":"m 349 1067 l 775 1067 l 751 951 l 325 951 l 349 1067 m 310 882 l 456 882 l 426 746 l 281 746 l 310 882 m 581 882 l 728 882 l 699 746 l 551 746 l 581 882 m 240 -14 q 91 33 144 -14 q 38 169 38 81 q 46 246 38 204 l 133 658 l 321 658 l 235 250 q 229 203 229 226 q 254 142 229 161 q 335 124 279 124 q 427 142 382 124 q 510 192 472 161 l 608 658 l 796 658 l 657 0 l 483 0 l 489 63 q 240 -14 376 -14 z "},"ụ":{"ha":815,"x_min":38,"x_max":796,"o":"m 240 -14 q 91 33 144 -14 q 38 169 38 81 q 46 246 38 204 l 133 658 l 321 658 l 235 250 q 229 203 229 226 q 254 142 229 161 q 335 124 279 124 q 427 142 382 124 q 510 192 472 161 l 608 658 l 796 658 l 657 0 l 483 0 l 489 63 q 240 -14 376 -14 m 222 -114 l 371 -114 l 342 -251 l 193 -251 l 222 -114 z "},"ù":{"ha":815,"x_min":38,"x_max":796,"o":"m 357 985 l 519 985 l 575 725 l 424 725 l 357 985 m 240 -14 q 91 33 144 -14 q 38 169 38 81 q 46 246 38 204 l 133 658 l 321 658 l 235 250 q 229 203 229 226 q 254 142 229 161 q 335 124 279 124 q 427 142 382 124 q 510 192 472 161 l 608 658 l 796 658 l 657 0 l 483 0 l 489 63 q 240 -14 376 -14 z "},"ủ":{"ha":815,"x_min":38,"x_max":796,"o":"m 432 836 q 535 855 507 840 q 571 903 564 869 q 572 914 572 907 q 488 957 572 957 q 441 953 467 957 q 397 942 415 949 l 418 1035 q 560 1053 475 1053 q 676 1025 636 1053 q 717 947 717 997 q 714 919 717 939 q 667 831 701 861 q 565 788 633 800 l 551 724 l 408 724 l 432 836 m 240 -14 q 91 33 144 -14 q 38 169 38 81 q 46 246 38 204 l 133 658 l 321 658 l 235 250 q 229 203 229 226 q 254 142 229 161 q 335 124 279 124 q 427 142 382 124 q 510 192 472 161 l 608 658 l 796 658 l 657 0 l 483 0 l 489 63 q 240 -14 376 -14 z "},"ư":{"ha":1008,"x_min":38,"x_max":1063,"o":"m 240 -14 q 91 33 144 -14 q 38 169 38 81 q 46 246 38 204 l 133 658 l 321 658 l 235 250 q 229 203 229 226 q 254 142 229 161 q 335 124 279 124 q 427 142 382 124 q 510 192 472 161 l 608 658 l 796 658 l 781 589 q 878 630 846 594 q 928 744 911 665 l 1063 744 q 960 534 1032 597 q 754 464 889 471 l 657 0 l 483 0 l 489 63 q 240 -14 376 -14 z "},"ứ":{"ha":1008,"x_min":38,"x_max":1063,"o":"m 575 985 l 738 985 l 560 725 l 408 725 l 575 985 m 240 -14 q 91 33 144 -14 q 38 169 38 81 q 46 246 38 204 l 133 658 l 321 658 l 235 250 q 229 203 229 226 q 254 142 229 161 q 335 124 279 124 q 427 142 382 124 q 510 192 472 161 l 608 658 l 796 658 l 781 589 q 878 630 846 594 q 928 744 911 665 l 1063 744 q 960 534 1032 597 q 754 464 889 471 l 657 0 l 483 0 l 489 63 q 240 -14 376 -14 z "},"ự":{"ha":1008,"x_min":38,"x_max":1063,"o":"m 240 -14 q 91 33 144 -14 q 38 169 38 81 q 46 246 38 204 l 133 658 l 321 658 l 235 250 q 229 203 229 226 q 254 142 229 161 q 335 124 279 124 q 427 142 382 124 q 510 192 472 161 l 608 658 l 796 658 l 781 589 q 878 630 846 594 q 928 744 911 665 l 1063 744 q 960 534 1032 597 q 754 464 889 471 l 657 0 l 483 0 l 489 63 q 240 -14 376 -14 m 228 -114 l 376 -114 l 347 -251 l 199 -251 l 228 -114 z "},"ừ":{"ha":1008,"x_min":38,"x_max":1063,"o":"m 353 985 l 515 985 l 571 725 l 419 725 l 353 985 m 240 -14 q 91 33 144 -14 q 38 169 38 81 q 46 246 38 204 l 133 658 l 321 658 l 235 250 q 229 203 229 226 q 254 142 229 161 q 335 124 279 124 q 427 142 382 124 q 510 192 472 161 l 608 658 l 796 658 l 781 589 q 878 630 846 594 q 928 744 911 665 l 1063 744 q 960 534 1032 597 q 754 464 889 471 l 657 0 l 483 0 l 489 63 q 240 -14 376 -14 z "},"ử":{"ha":1008,"x_min":38,"x_max":1063,"o":"m 439 836 q 542 855 514 840 q 578 903 571 869 q 579 914 579 907 q 494 957 579 957 q 448 953 474 957 q 404 942 422 949 l 425 1035 q 567 1053 482 1053 q 683 1025 643 1053 q 724 947 724 997 q 721 919 724 939 q 674 831 708 861 q 572 788 640 800 l 558 724 l 415 724 l 439 836 m 240 -14 q 91 33 144 -14 q 38 169 38 81 q 46 246 38 204 l 133 658 l 321 658 l 235 250 q 229 203 229 226 q 254 142 229 161 q 335 124 279 124 q 427 142 382 124 q 510 192 472 161 l 608 658 l 796 658 l 781 589 q 878 630 846 594 q 928 744 911 665 l 1063 744 q 960 534 1032 597 q 754 464 889 471 l 657 0 l 483 0 l 489 63 q 240 -14 376 -14 z "},"ữ":{"ha":1008,"x_min":38,"x_max":1063,"o":"m 611 738 q 558 744 583 738 q 494 767 533 751 q 399 793 433 793 q 263 742 322 793 l 292 875 q 350 906 315 894 q 421 918 385 918 q 476 910 450 918 q 532 889 501 903 q 588 869 568 875 q 633 863 608 863 q 760 915 711 863 l 731 782 q 681 750 714 763 q 611 738 649 738 m 240 -14 q 91 33 144 -14 q 38 169 38 81 q 46 246 38 204 l 133 658 l 321 658 l 235 250 q 229 203 229 226 q 254 142 229 161 q 335 124 279 124 q 427 142 382 124 q 510 192 472 161 l 608 658 l 796 658 l 781 589 q 878 630 846 594 q 928 744 911 665 l 1063 744 q 960 534 1032 597 q 754 464 889 471 l 657 0 l 483 0 l 489 63 q 240 -14 376 -14 z "},"ű":{"ha":815,"x_min":38,"x_max":857,"o":"m 375 968 l 540 968 l 361 724 l 213 724 l 375 968 m 690 968 l 857 968 l 676 724 l 528 724 l 690 968 m 240 -14 q 91 33 144 -14 q 38 169 38 81 q 46 246 38 204 l 133 658 l 321 658 l 235 250 q 229 203 229 226 q 254 142 229 161 q 335 124 279 124 q 427 142 382 124 q 510 192 472 161 l 608 658 l 796 658 l 657 0 l 483 0 l 489 63 q 240 -14 376 -14 z "},"ū":{"ha":815,"x_min":38,"x_max":796,"o":"m 307 888 l 733 888 l 710 772 l 283 772 l 307 888 m 240 -14 q 91 33 144 -14 q 38 169 38 81 q 46 246 38 204 l 133 658 l 321 658 l 235 250 q 229 203 229 226 q 254 142 229 161 q 335 124 279 124 q 427 142 382 124 q 510 192 472 161 l 608 658 l 796 658 l 657 0 l 483 0 l 489 63 q 240 -14 376 -14 z "},"ų":{"ha":822,"x_min":38,"x_max":796,"o":"m 513 -306 q 415 -280 453 -306 q 376 -206 376 -254 q 379 -179 376 -199 q 496 0 399 -78 l 489 63 q 240 -14 376 -14 q 91 33 144 -14 q 38 169 38 81 q 46 246 38 204 l 133 658 l 321 658 l 235 250 q 229 203 229 226 q 254 142 229 161 q 335 124 279 124 q 427 142 382 124 q 510 192 472 161 l 608 658 l 796 658 l 657 0 q 573 -65 604 -28 q 533 -144 542 -103 q 532 -158 532 -150 q 586 -196 532 -196 q 656 -181 625 -196 l 633 -286 q 579 -300 613 -294 q 513 -306 546 -306 z "},"ů":{"ha":815,"x_min":38,"x_max":796,"o":"m 481 725 q 377 760 414 725 q 340 851 340 794 q 367 954 340 907 q 442 1029 394 1001 q 550 1057 490 1057 q 656 1022 618 1057 q 693 929 693 986 q 689 890 693 910 q 619 772 674 818 q 481 725 564 725 m 499 811 q 565 833 540 811 q 597 890 589 854 q 600 910 600 904 q 582 953 600 936 q 532 969 564 969 q 468 947 493 969 q 435 890 443 925 q 433 872 433 883 q 451 828 433 844 q 499 811 468 811 m 240 -14 q 91 33 144 -14 q 38 169 38 81 q 46 246 38 204 l 133 658 l 321 658 l 235 250 q 229 203 229 226 q 254 142 229 161 q 335 124 279 124 q 427 142 382 124 q 510 192 472 161 l 608 658 l 796 658 l 657 0 l 483 0 l 489 63 q 240 -14 376 -14 z "},"ũ":{"ha":815,"x_min":38,"x_max":796,"o":"m 608 742 q 556 749 581 742 q 492 771 531 756 q 396 797 431 797 q 260 746 319 797 l 289 879 q 347 910 313 899 q 418 922 382 922 q 473 915 447 922 q 529 893 499 907 q 585 873 565 879 q 631 867 606 867 q 757 919 708 867 l 728 786 q 678 754 711 767 q 608 742 646 742 m 240 -14 q 91 33 144 -14 q 38 169 38 81 q 46 246 38 204 l 133 658 l 321 658 l 235 250 q 229 203 229 226 q 254 142 229 161 q 335 124 279 124 q 427 142 382 124 q 510 192 472 161 l 608 658 l 796 658 l 657 0 l 483 0 l 489 63 q 240 -14 376 -14 z "},"v":{"ha":824,"x_min":113,"x_max":832,"o":"m 113 658 l 301 658 l 365 189 l 631 658 l 832 658 l 435 0 l 233 0 l 113 658 z "},"w":{"ha":1051,"x_min":113,"x_max":1061,"o":"m 113 658 l 300 658 l 310 231 l 492 574 l 510 658 l 653 658 l 688 231 l 875 658 l 1061 658 l 750 0 l 585 0 l 539 385 l 329 0 l 147 0 l 113 658 z "},"ẃ":{"ha":1051,"x_min":113,"x_max":1061,"o":"m 688 985 l 850 985 l 672 725 l 521 725 l 688 985 m 113 658 l 300 658 l 310 231 l 492 574 l 510 658 l 653 658 l 688 231 l 875 658 l 1061 658 l 750 0 l 585 0 l 539 385 l 329 0 l 147 0 l 113 658 z "},"ŵ":{"ha":1051,"x_min":113,"x_max":1061,"o":"m 596 967 l 715 967 l 851 725 l 714 725 l 640 864 l 511 725 l 358 725 l 596 967 m 113 658 l 300 658 l 310 231 l 492 574 l 510 658 l 653 658 l 688 231 l 875 658 l 1061 658 l 750 0 l 585 0 l 539 385 l 329 0 l 147 0 l 113 658 z "},"ẅ":{"ha":1051,"x_min":113,"x_max":1061,"o":"m 432 896 l 578 896 l 549 760 l 403 760 l 432 896 m 703 896 l 850 896 l 821 760 l 674 760 l 703 896 m 113 658 l 300 658 l 310 231 l 492 574 l 510 658 l 653 658 l 688 231 l 875 658 l 1061 658 l 750 0 l 585 0 l 539 385 l 329 0 l 147 0 l 113 658 z "},"ẁ":{"ha":1051,"x_min":113,"x_max":1061,"o":"m 453 985 l 615 985 l 671 725 l 519 725 l 453 985 m 113 658 l 300 658 l 310 231 l 492 574 l 510 658 l 653 658 l 688 231 l 875 658 l 1061 658 l 750 0 l 585 0 l 539 385 l 329 0 l 147 0 l 113 658 z "},"x":{"ha":813,"x_min":-26,"x_max":811,"o":"m 297 335 l 122 658 l 325 658 l 426 467 l 608 658 l 811 658 l 501 335 l 682 0 l 478 0 l 369 201 l 178 0 l -26 0 l 297 335 z "},"y":{"ha":833,"x_min":36,"x_max":797,"o":"m 211 -244 q 119 -240 175 -244 q 36 -229 63 -235 l 67 -86 q 136 -99 93 -94 q 211 -104 179 -104 q 481 21 453 -104 l 489 63 q 242 -14 376 -14 q 96 40 151 -14 q 40 183 40 93 q 47 246 40 208 l 135 658 l 322 658 l 236 250 q 229 196 229 215 q 253 141 229 158 q 336 124 278 124 q 428 142 383 124 q 511 192 474 161 l 610 658 l 797 658 l 668 46 q 532 -169 639 -93 q 211 -244 425 -244 z "},"ý":{"ha":833,"x_min":35,"x_max":796,"o":"m 596 985 l 758 985 l 581 725 l 429 725 l 596 985 m 210 -244 q 117 -240 174 -244 q 35 -229 61 -235 l 65 -86 q 135 -99 92 -94 q 210 -104 178 -104 q 479 21 451 -104 l 488 63 q 240 -14 375 -14 q 94 40 150 -14 q 39 183 39 93 q 46 246 39 208 l 133 658 l 321 658 l 235 250 q 228 196 228 215 q 252 141 228 158 q 335 124 276 124 q 427 142 382 124 q 510 192 472 161 l 608 658 l 796 658 l 667 46 q 531 -169 638 -93 q 210 -244 424 -244 z "},"ŷ":{"ha":833,"x_min":35,"x_max":796,"o":"m 508 967 l 628 967 l 764 725 l 626 725 l 553 864 l 424 725 l 271 725 l 508 967 m 210 -244 q 117 -240 174 -244 q 35 -229 61 -235 l 65 -86 q 135 -99 92 -94 q 210 -104 178 -104 q 479 21 451 -104 l 488 63 q 240 -14 375 -14 q 94 40 150 -14 q 39 183 39 93 q 46 246 39 208 l 133 658 l 321 658 l 235 250 q 228 196 228 215 q 252 141 228 158 q 335 124 276 124 q 427 142 382 124 q 510 192 472 161 l 608 658 l 796 658 l 667 46 q 531 -169 638 -93 q 210 -244 424 -244 z "},"ÿ":{"ha":833,"x_min":35,"x_max":796,"o":"m 350 915 l 496 915 l 467 779 l 321 779 l 350 915 m 621 915 l 768 915 l 739 779 l 592 779 l 621 915 m 210 -244 q 117 -240 174 -244 q 35 -229 61 -235 l 65 -86 q 135 -99 92 -94 q 210 -104 178 -104 q 479 21 451 -104 l 488 63 q 240 -14 375 -14 q 94 40 150 -14 q 39 183 39 93 q 46 246 39 208 l 133 658 l 321 658 l 235 250 q 228 196 228 215 q 252 141 228 158 q 335 124 276 124 q 427 142 382 124 q 510 192 472 161 l 608 658 l 796 658 l 667 46 q 531 -169 638 -93 q 210 -244 424 -244 z "},"ẏ":{"ha":833,"x_min":35,"x_max":796,"o":"m 478 896 l 624 896 l 594 760 l 449 760 l 478 896 m 210 -244 q 117 -240 174 -244 q 35 -229 61 -235 l 65 -86 q 135 -99 92 -94 q 210 -104 178 -104 q 479 21 451 -104 l 488 63 q 240 -14 375 -14 q 94 40 150 -14 q 39 183 39 93 q 46 246 39 208 l 133 658 l 321 658 l 235 250 q 228 196 228 215 q 252 141 228 158 q 335 124 276 124 q 427 142 382 124 q 510 192 472 161 l 608 658 l 796 658 l 667 46 q 531 -169 638 -93 q 210 -244 424 -244 z "},"ỵ":{"ha":833,"x_min":35,"x_max":796,"o":"m 210 -244 q 117 -240 174 -244 q 35 -229 61 -235 l 65 -86 q 135 -99 92 -94 q 210 -104 178 -104 q 479 21 451 -104 l 488 63 q 240 -14 375 -14 q 94 40 150 -14 q 39 183 39 93 q 46 246 39 208 l 133 658 l 321 658 l 235 250 q 228 196 228 215 q 252 141 228 158 q 335 124 276 124 q 427 142 382 124 q 510 192 472 161 l 608 658 l 796 658 l 667 46 q 531 -169 638 -93 q 210 -244 424 -244 m 638 -100 l 786 -100 l 757 -237 l 608 -237 l 638 -100 z "},"ỳ":{"ha":833,"x_min":35,"x_max":796,"o":"m 378 985 l 540 985 l 596 725 l 444 725 l 378 985 m 210 -244 q 117 -240 174 -244 q 35 -229 61 -235 l 65 -86 q 135 -99 92 -94 q 210 -104 178 -104 q 479 21 451 -104 l 488 63 q 240 -14 375 -14 q 94 40 150 -14 q 39 183 39 93 q 46 246 39 208 l 133 658 l 321 658 l 235 250 q 228 196 228 215 q 252 141 228 158 q 335 124 276 124 q 427 142 382 124 q 510 192 472 161 l 608 658 l 796 658 l 667 46 q 531 -169 638 -93 q 210 -244 424 -244 z "},"ỷ":{"ha":833,"x_min":35,"x_max":796,"o":"m 471 836 q 574 855 546 840 q 610 903 603 869 q 611 914 611 907 q 526 957 611 957 q 480 953 506 957 q 436 942 454 949 l 457 1035 q 599 1053 514 1053 q 715 1025 675 1053 q 756 947 756 997 q 753 919 756 939 q 706 831 740 861 q 604 788 672 800 l 590 724 l 447 724 l 471 836 m 210 -244 q 117 -240 174 -244 q 35 -229 61 -235 l 65 -86 q 135 -99 92 -94 q 210 -104 178 -104 q 479 21 451 -104 l 488 63 q 240 -14 375 -14 q 94 40 150 -14 q 39 183 39 93 q 46 246 39 208 l 133 658 l 321 658 l 235 250 q 228 196 228 215 q 252 141 228 158 q 335 124 276 124 q 427 142 382 124 q 510 192 472 161 l 608 658 l 796 658 l 667 46 q 531 -169 638 -93 q 210 -244 424 -244 z "},"ỹ":{"ha":833,"x_min":35,"x_max":796,"o":"m 638 742 q 585 749 610 742 q 521 771 560 756 q 425 797 460 797 q 289 746 349 797 l 318 879 q 376 910 342 899 q 447 922 411 922 q 502 915 476 922 q 558 893 528 907 q 615 873 594 879 q 660 867 635 867 q 786 919 738 867 l 757 786 q 708 754 740 767 q 638 742 675 742 m 210 -244 q 117 -240 174 -244 q 35 -229 61 -235 l 65 -86 q 135 -99 92 -94 q 210 -104 178 -104 q 479 21 451 -104 l 488 63 q 240 -14 375 -14 q 94 40 150 -14 q 39 183 39 93 q 46 246 39 208 l 133 658 l 321 658 l 235 250 q 228 196 228 215 q 252 141 228 158 q 335 124 276 124 q 427 142 382 124 q 510 192 472 161 l 608 658 l 796 658 l 667 46 q 531 -169 638 -93 q 210 -244 424 -244 z "},"z":{"ha":679,"x_min":-26,"x_max":679,"o":"m -7 97 l 411 503 l 93 503 l 126 658 l 679 658 l 656 544 l 246 144 l 581 144 l 550 0 l -26 0 l -7 97 z "},"ź":{"ha":679,"x_min":-26,"x_max":679,"o":"m 511 985 l 674 985 l 496 725 l 344 725 l 511 985 m -7 97 l 411 503 l 93 503 l 126 658 l 679 658 l 656 544 l 246 144 l 581 144 l 550 0 l -26 0 l -7 97 z "},"ž":{"ha":679,"x_min":-26,"x_max":715,"o":"m 222 967 l 361 967 l 431 828 l 564 967 l 715 967 l 476 725 l 357 725 l 222 967 m -7 97 l 411 503 l 93 503 l 126 658 l 679 658 l 656 544 l 246 144 l 581 144 l 550 0 l -26 0 l -7 97 z "},"ż":{"ha":679,"x_min":-26,"x_max":679,"o":"m 386 896 l 532 896 l 503 760 l 357 760 l 386 896 m -7 97 l 411 503 l 93 503 l 126 658 l 679 658 l 656 544 l 246 144 l 581 144 l 550 0 l -26 0 l -7 97 z "},"ẓ":{"ha":679,"x_min":-26,"x_max":679,"o":"m -7 97 l 411 503 l 93 503 l 126 658 l 679 658 l 656 544 l 246 144 l 581 144 l 550 0 l -26 0 l -7 97 m 165 -114 l 314 -114 l 285 -251 l 136 -251 l 165 -114 z "},"ﬁ":{"ha":760,"x_min":38,"x_max":742,"o":"m 146 514 l 54 514 l 85 658 l 176 658 l 190 724 q 521 958 240 958 q 692 931 632 958 l 663 792 q 613 806 647 800 q 549 811 579 811 q 426 792 464 811 q 376 718 389 774 l 364 658 l 742 658 l 603 0 l 415 0 l 524 514 l 333 514 l 225 0 l 38 0 l 146 514 z "},"ﬂ":{"ha":760,"x_min":38,"x_max":801,"o":"m 146 514 l 54 514 l 85 658 l 176 658 l 190 724 q 281 893 213 828 q 465 958 350 958 q 632 938 568 958 l 801 938 l 603 0 l 415 0 l 524 514 l 333 514 l 225 0 l 38 0 l 146 514 m 554 658 l 586 807 q 547 815 571 813 q 503 818 522 818 q 419 793 450 818 q 376 717 388 768 l 364 658 l 554 658 z "},"ª":{"ha":472,"x_min":106,"x_max":508,"o":"m 215 528 q 135 549 165 528 q 106 613 106 569 q 108 640 106 631 q 285 763 136 763 l 393 763 l 394 769 q 397 790 397 786 q 380 816 397 808 q 315 824 363 824 q 192 804 253 824 l 208 885 q 278 902 238 896 q 357 908 318 908 q 467 881 426 908 q 508 801 508 854 q 504 767 508 786 l 456 536 l 357 536 l 356 568 q 294 538 326 547 q 215 528 261 528 m 268 603 q 368 646 329 603 l 378 692 l 293 692 q 238 682 256 692 q 214 646 219 672 q 213 635 213 642 q 226 610 213 617 q 268 603 240 603 z "},"º":{"ha":501,"x_min":118,"x_max":531,"o":"m 283 528 q 118 660 118 528 q 125 718 118 683 q 202 862 146 815 q 365 908 258 908 q 531 778 531 908 q 524 718 531 756 q 446 575 503 622 q 283 528 389 528 m 301 611 q 373 637 347 611 q 410 718 399 663 q 417 767 417 750 q 401 810 417 796 q 347 824 385 824 q 275 798 301 824 q 238 718 249 772 q 231 667 231 686 q 247 624 231 638 q 301 611 263 611 z "},"ⁿ":{"ha":492,"x_min":94,"x_max":531,"o":"m 171 900 l 275 900 l 271 867 q 422 907 339 907 q 502 881 474 907 q 531 808 531 856 q 526 775 531 794 l 476 536 l 365 536 l 411 756 q 415 785 415 772 q 403 813 415 804 q 364 822 392 822 q 308 812 338 822 q 258 786 278 801 l 206 536 l 94 536 l 171 900 z "},"Δ":{"ha":894,"x_min":-26,"x_max":786,"o":"m -6 101 l 475 894 l 639 894 l 786 100 l 765 0 l -26 0 l -6 101 m 619 144 l 521 688 l 190 144 l 619 144 z "},"Ω":{"ha":1054,"x_min":-17,"x_max":1042,"o":"m 13 139 l 190 139 q 102 255 135 183 q 69 411 69 326 q 81 508 69 456 q 269 843 126 721 q 653 965 413 965 q 863 920 775 965 q 997 795 951 875 q 1042 613 1042 715 q 1031 508 1042 567 q 937 291 1004 385 q 765 139 869 197 l 943 139 l 914 0 l 517 0 l 546 143 q 839 497 790 264 q 851 607 851 558 q 796 755 851 704 q 619 806 740 806 q 387 724 474 806 q 269 497 300 642 q 258 404 258 446 q 410 143 258 239 l 381 0 l -17 0 l 13 139 z "},"μ":{"ha":822,"x_min":-42,"x_max":803,"o":"m 140 658 l 328 658 l 242 250 q 236 206 236 228 q 262 144 236 164 q 342 124 288 124 q 434 142 389 124 q 517 192 479 161 l 615 658 l 803 658 l 664 0 l 490 0 l 496 63 q 247 -14 383 -14 q 188 -3 213 -14 l 146 -199 l -42 -199 l 140 658 z "},"π":{"ha":939,"x_min":50,"x_max":875,"o":"m 679 -14 q 544 29 592 -14 q 496 149 496 72 q 503 208 496 174 l 568 514 l 346 514 l 238 0 l 50 0 l 158 514 l 68 514 l 99 658 l 875 658 l 844 514 l 756 514 l 693 221 q 688 178 688 199 q 707 138 688 149 q 776 126 726 126 q 860 140 814 126 l 832 11 q 679 -14 765 -14 z "},"ก":{"ha":864,"x_min":8,"x_max":807,"o":"m 58 239 q 107 356 74 310 q 204 421 140 403 l 71 458 l 108 638 q 288 728 185 692 q 504 764 390 764 q 730 711 653 764 q 807 544 807 658 q 796 453 807 506 l 700 0 l 513 0 l 608 457 q 617 519 617 493 q 581 595 617 572 q 464 618 546 618 q 347 600 404 618 q 251 554 290 582 l 247 535 l 393 493 l 369 379 q 286 334 313 365 q 246 238 260 303 l 196 0 l 8 0 l 58 239 z "},"ถ":{"ha":864,"x_min":35,"x_max":806,"o":"m 151 0 q 66 31 97 0 q 35 111 35 61 q 39 147 35 129 l 58 239 q 107 356 74 310 q 204 421 140 403 l 71 458 l 108 638 q 288 728 185 692 q 504 764 390 764 q 726 710 647 764 q 806 540 806 656 q 796 453 806 497 l 700 0 l 513 0 l 608 457 q 617 522 617 494 q 582 596 617 574 q 464 618 547 618 q 347 600 404 618 q 251 554 290 582 l 247 535 l 393 493 l 369 379 q 286 334 313 365 q 246 238 260 303 l 238 197 q 233 172 233 183 q 242 152 233 158 q 275 146 251 146 l 351 146 l 321 0 l 151 0 z "},"ภ":{"ha":875,"x_min":-12,"x_max":854,"o":"m 18 146 l 64 146 q 103 157 90 146 q 121 196 115 168 l 131 239 q 176 355 146 311 q 269 421 206 399 l 136 458 l 174 638 q 353 728 250 692 q 569 764 456 764 q 778 705 703 764 q 854 533 854 646 q 844 453 854 504 l 749 0 l 561 0 l 657 457 q 665 524 665 497 q 634 597 665 575 q 529 618 603 618 q 413 600 469 618 q 317 554 356 582 l 313 535 l 458 493 l 435 379 q 357 333 379 363 q 321 238 335 304 l 310 186 q 238 43 289 86 q 88 0 186 0 l -12 0 l 18 146 z "},"ฤ":{"ha":825,"x_min":35,"x_max":806,"o":"m 608 457 q 617 524 617 494 q 582 596 617 574 q 464 618 547 618 q 347 600 404 618 q 251 554 290 582 l 247 535 l 393 493 l 369 379 q 286 334 313 365 q 246 238 260 303 l 238 197 q 235 174 235 188 q 244 152 235 158 q 275 146 253 146 l 351 146 l 321 0 l 151 0 q 66 31 97 0 q 35 111 35 61 q 39 147 35 129 l 58 239 q 107 356 74 310 q 204 421 140 403 l 71 458 l 108 638 q 288 728 185 692 q 504 764 390 764 q 727 709 649 764 q 806 540 806 654 q 796 453 806 497 l 651 -222 l 464 -222 l 608 457 z "},"ฦ":{"ha":914,"x_min":-12,"x_max":854,"o":"m 657 457 q 665 524 665 497 q 634 597 665 575 q 529 618 603 618 q 413 600 469 618 q 317 554 356 582 l 313 535 l 458 493 l 435 379 q 357 333 379 363 q 321 238 335 304 l 310 186 q 233 44 289 89 q 88 0 178 0 l -12 0 l 18 146 l 64 146 q 103 157 90 146 q 121 196 115 168 l 131 239 q 176 355 146 311 q 269 421 206 399 l 136 458 l 174 638 q 353 728 250 692 q 569 764 456 764 q 778 706 703 764 q 854 538 854 649 q 844 453 854 496 l 700 -222 l 513 -222 l 657 457 z "},"ฎ":{"ha":914,"x_min":-12,"x_max":854,"o":"m 122 -131 q 368 -82 233 -82 q 465 -92 421 -82 q 536 -117 510 -101 l 657 457 q 665 524 665 494 q 633 596 665 574 q 529 618 601 618 q 413 600 469 618 q 317 554 356 582 l 313 535 l 458 493 l 435 379 q 357 333 379 363 q 321 238 335 304 l 310 186 q 238 43 289 86 q 88 0 186 0 l -12 0 l 18 146 l 64 146 q 103 157 90 146 q 121 196 115 168 l 131 239 q 176 355 146 311 q 269 421 206 399 l 136 458 l 174 638 q 353 728 250 692 q 569 764 456 764 q 779 708 704 764 q 854 539 854 651 q 844 453 854 496 l 690 -269 l 503 -269 q 315 -228 438 -228 q 200 -241 263 -228 q 92 -274 138 -254 l 122 -131 z "},"ฏ":{"ha":914,"x_min":-12,"x_max":854,"o":"m 468 -271 q 376 -253 417 -271 q 319 -204 336 -235 q 179 -269 268 -269 l 35 -269 l 74 -128 l 175 -128 q 240 -114 215 -128 q 283 -67 264 -100 l 403 -67 q 419 -117 406 -100 q 465 -133 432 -133 q 547 -62 532 -133 l 657 457 q 665 525 665 497 q 635 597 665 575 q 529 618 604 618 q 413 600 469 618 q 317 554 356 582 l 313 535 l 458 493 l 435 379 q 357 333 379 363 q 321 238 335 304 l 310 186 q 234 43 289 86 q 88 0 179 0 l -12 0 l 18 146 l 64 146 q 103 157 90 146 q 121 196 115 168 l 131 239 q 176 355 146 311 q 269 421 206 399 l 136 458 l 174 638 q 353 728 250 692 q 569 764 456 764 q 778 706 701 764 q 854 535 854 649 q 844 453 854 504 l 735 -65 q 651 -219 713 -167 q 468 -271 589 -271 z "},"ญ":{"ha":1357,"x_min":35,"x_max":1350,"o":"m 831 -99 q 557 -39 678 -99 l 588 106 q 856 46 690 46 q 998 64 942 46 q 1061 114 1054 82 q 1063 124 1063 117 q 1057 142 1063 133 q 1044 156 1051 151 q 865 111 969 111 q 658 169 733 111 q 582 347 582 226 q 589 426 582 390 l 594 457 q 604 529 604 506 q 572 597 604 576 q 464 618 540 618 q 347 600 404 618 q 251 554 290 582 l 247 535 l 393 493 l 369 379 q 286 334 313 365 q 246 238 260 303 l 238 197 q 233 169 233 181 q 242 151 233 156 q 269 146 250 146 l 351 146 l 321 0 l 151 0 q 66 31 97 0 q 35 111 35 61 q 39 147 35 129 l 58 239 q 107 356 74 310 q 204 421 140 403 l 71 458 l 108 638 q 288 728 185 692 q 504 764 390 764 q 708 706 631 764 q 786 538 786 649 q 775 453 786 501 l 768 424 q 757 350 757 376 q 789 278 757 300 q 896 257 821 257 q 1025 299 975 257 q 1093 424 1075 342 l 1163 750 l 1350 750 l 1282 426 q 1243 313 1268 360 q 1175 231 1218 265 q 1218 129 1218 190 q 1215 99 1218 108 q 1100 -50 1193 -1 q 831 -99 1007 -99 z "},"ข":{"ha":826,"x_min":36,"x_max":821,"o":"m 318 -14 q 110 49 183 -14 q 36 214 36 111 q 43 276 36 242 l 53 324 q 91 412 63 374 q 165 496 119 450 q 208 543 194 526 q 225 576 221 560 q 226 589 226 581 q 218 606 226 601 q 188 611 210 611 l 97 611 l 142 750 l 336 750 q 433 675 433 750 q 429 643 433 660 q 398 567 421 601 q 335 485 375 532 q 273 403 296 439 q 240 325 250 368 l 228 265 q 222 218 222 242 q 252 152 222 172 q 350 132 282 132 q 532 271 503 132 l 633 750 l 821 750 l 721 279 q 592 60 690 135 q 318 -14 493 -14 z "},"ฃ":{"ha":826,"x_min":33,"x_max":821,"o":"m 318 -14 q 108 49 183 -14 q 33 208 33 111 q 40 267 33 235 l 44 285 q 93 383 56 335 q 190 492 131 432 q 244 551 226 529 q 267 589 263 574 l 268 597 q 250 615 267 615 q 211 600 233 615 l 200 543 l 82 543 l 125 750 l 249 750 l 240 711 q 297 740 268 731 q 361 750 325 750 q 453 674 453 750 q 449 636 453 657 q 412 548 439 588 q 336 454 385 508 q 267 371 292 406 q 235 296 243 336 l 228 265 q 222 218 222 242 q 252 152 222 172 q 350 132 282 132 q 532 271 503 132 l 633 750 l 821 750 l 721 279 q 592 60 690 135 q 318 -14 493 -14 z "},"ช":{"ha":831,"x_min":38,"x_max":826,"o":"m 321 -14 q 111 44 185 -14 q 38 206 38 101 q 46 276 38 239 l 56 324 q 96 417 67 376 q 169 500 125 457 q 210 544 197 528 q 228 576 224 561 q 229 589 229 581 q 221 606 229 601 q 190 611 213 611 l 100 611 l 144 750 l 339 750 q 436 675 436 750 q 432 643 436 660 q 401 567 424 601 q 338 485 378 532 q 276 403 299 439 q 243 325 253 368 l 231 265 q 225 218 225 242 q 255 152 225 172 q 353 132 285 132 q 535 271 506 132 l 553 358 q 558 401 558 381 q 543 443 558 431 q 492 456 528 456 l 453 456 l 489 586 l 514 586 q 587 608 564 586 q 622 685 610 631 l 639 764 l 826 764 l 811 689 q 769 585 799 624 q 679 521 739 546 q 744 401 744 482 q 739 351 744 374 l 724 279 q 321 -14 663 -14 z "},"ซ":{"ha":831,"x_min":36,"x_max":826,"o":"m 321 -14 q 110 43 185 -14 q 36 200 36 100 q 42 258 36 231 l 49 293 q 94 392 58 346 q 194 499 131 438 q 249 554 232 535 q 269 589 265 574 l 271 597 q 253 615 269 615 q 214 600 236 615 l 203 543 l 85 543 l 128 750 l 251 750 l 243 711 q 364 750 301 750 q 456 672 456 750 q 451 636 456 656 q 415 552 442 590 q 340 458 389 514 q 270 372 294 407 q 238 296 246 336 l 231 265 q 225 218 225 242 q 255 153 225 174 q 353 132 285 132 q 476 166 433 132 q 535 271 519 200 l 553 358 q 558 401 558 381 q 543 443 558 431 q 492 456 528 456 l 453 456 l 489 586 l 514 586 q 587 608 564 586 q 622 685 610 631 l 639 764 l 826 764 l 811 689 q 769 585 799 624 q 679 521 739 546 q 744 397 744 478 q 739 351 744 382 l 724 279 q 321 -14 663 -14 z "},"ค":{"ha":874,"x_min":1,"x_max":814,"o":"m 100 465 q 230 692 133 619 q 517 764 326 764 q 736 701 658 764 q 814 533 814 639 q 807 465 814 494 l 708 0 l 521 0 l 622 479 q 628 528 628 503 q 595 597 628 576 q 486 618 563 618 q 350 585 394 618 q 290 479 306 553 l 261 344 q 401 389 329 389 l 492 389 l 465 240 l 365 240 q 231 200 292 240 l 189 0 l 1 0 l 100 465 z "},"ฅ":{"ha":874,"x_min":1,"x_max":832,"o":"m 115 536 q 197 703 138 642 q 354 764 257 764 q 497 693 450 764 q 579 747 529 729 q 685 764 629 764 q 795 726 758 764 q 832 615 832 688 q 822 536 832 588 l 708 0 l 522 0 l 633 526 q 638 561 638 547 q 592 604 638 604 q 510 554 539 604 l 433 554 q 419 591 431 578 q 386 604 408 604 q 327 585 347 604 q 299 526 307 565 l 260 344 q 400 389 328 389 l 492 389 l 465 240 l 364 240 q 229 200 290 240 l 188 0 l 1 0 l 115 536 z "},"ศ":{"ha":899,"x_min":1,"x_max":938,"o":"m 100 465 q 230 692 133 619 q 517 764 326 764 q 636 750 578 764 l 938 750 l 897 607 l 793 607 q 813 515 813 565 q 807 465 813 488 l 708 0 l 521 0 l 622 479 q 628 528 628 503 q 595 597 628 576 q 486 618 563 618 q 350 585 394 618 q 290 479 306 553 l 261 344 q 401 389 329 389 l 492 389 l 465 240 l 365 240 q 231 200 292 240 l 189 0 l 1 0 l 100 465 z "},"ด":{"ha":908,"x_min":36,"x_max":844,"o":"m 283 -14 q 103 49 171 -14 q 36 236 36 111 q 50 360 36 294 q 206 661 92 558 q 526 764 321 764 q 706 728 635 764 q 811 633 778 692 q 844 507 844 574 q 839 453 844 476 l 743 0 l 556 0 l 649 440 q 657 506 657 476 q 619 590 657 563 q 493 618 582 618 q 323 553 392 618 q 228 360 254 488 q 214 251 214 299 q 246 160 214 188 q 349 132 278 132 q 446 143 413 132 l 417 6 q 283 -14 361 -14 z "},"ต":{"ha":917,"x_min":36,"x_max":875,"o":"m 283 -14 q 103 49 171 -14 q 36 238 36 111 q 50 360 36 296 q 394 764 135 764 q 478 746 450 764 q 525 693 507 728 q 611 745 561 726 q 721 764 661 764 q 835 726 796 764 q 875 617 875 688 q 867 547 875 585 l 751 0 l 564 0 l 674 518 q 681 568 681 550 q 669 606 681 593 q 631 618 657 618 q 581 602 604 618 q 543 554 558 586 l 453 554 q 433 603 444 589 q 393 618 421 618 q 294 551 333 618 q 228 360 254 483 q 213 249 213 290 q 244 158 213 185 q 349 132 276 132 q 446 143 413 132 l 417 6 q 283 -14 361 -14 z "},"ท":{"ha":860,"x_min":1,"x_max":807,"o":"m 160 750 l 332 750 l 325 676 q 453 742 388 719 q 603 764 519 764 q 753 710 699 764 q 807 567 807 657 q 799 493 807 533 l 694 0 l 507 0 l 608 482 q 615 540 615 510 q 592 600 615 582 q 515 618 569 618 q 399 596 458 618 q 303 540 340 574 l 189 0 l 1 0 l 160 750 z "},"ฑ":{"ha":851,"x_min":25,"x_max":803,"o":"m 82 274 q 122 368 92 321 q 197 472 151 415 q 248 542 231 517 q 269 589 265 568 l 271 597 q 253 615 269 615 q 214 600 236 615 l 203 543 l 85 543 l 128 750 l 251 750 l 243 711 q 297 740 272 731 q 358 750 322 750 q 433 710 413 750 q 520 749 472 733 q 617 764 568 764 q 803 593 803 764 q 793 507 803 551 l 686 0 l 499 0 l 604 501 q 611 557 611 539 q 594 603 611 589 q 538 618 576 618 q 483 608 514 618 q 432 583 451 597 q 406 515 424 546 q 357 440 388 483 q 301 355 322 393 q 269 268 279 317 l 213 0 l 25 0 l 82 274 z "},"น":{"ha":860,"x_min":49,"x_max":853,"o":"m 257 -14 q 106 40 164 -14 q 49 190 49 94 q 57 263 49 224 l 160 750 l 347 750 l 246 274 q 239 218 239 239 q 266 151 239 171 q 351 132 293 132 q 458 154 403 132 q 551 210 513 176 l 665 750 l 853 750 l 694 0 l 522 0 l 529 74 q 257 -14 401 -14 z "},"ม":{"ha":860,"x_min":1,"x_max":853,"o":"m 431 -14 q 197 74 285 -14 l 174 0 l 1 0 l 160 750 l 347 750 l 233 210 q 301 153 257 175 q 400 132 344 132 q 510 165 471 132 q 564 274 549 199 l 665 750 l 853 750 l 750 263 q 640 58 722 131 q 431 -14 557 -14 z "},"ฌ":{"ha":1336,"x_min":35,"x_max":1329,"o":"m 914 -14 q 785 8 839 -14 q 688 74 731 31 l 664 0 l 499 0 l 594 457 q 603 519 603 493 q 570 595 603 572 q 464 618 538 618 q 347 600 404 618 q 251 554 290 582 l 247 535 l 393 493 l 369 379 q 286 334 313 365 q 246 238 260 303 l 238 197 q 233 169 233 181 q 242 151 233 156 q 269 146 250 146 l 351 146 l 321 0 l 151 0 q 66 31 97 0 q 35 111 35 61 q 39 147 35 129 l 58 239 q 107 356 74 310 q 204 421 140 403 l 71 458 l 108 638 q 288 728 185 692 q 504 764 390 764 q 785 544 785 764 q 775 453 785 500 l 724 210 q 790 153 747 175 q 883 132 833 132 q 964 144 935 132 q 1010 187 993 157 q 1040 274 1028 217 l 1142 750 l 1329 750 l 1226 263 q 1120 55 1197 124 q 914 -14 1043 -14 z "},"ณ":{"ha":1343,"x_min":35,"x_max":1336,"o":"m 747 -14 q 601 40 657 -14 q 546 189 546 93 q 554 263 546 224 l 594 457 q 603 521 603 493 q 570 595 603 572 q 464 618 538 618 q 347 600 404 618 q 251 554 290 582 l 247 535 l 393 493 l 369 379 q 286 334 313 365 q 246 238 260 303 l 238 197 l 235 175 q 244 153 235 160 q 278 146 254 146 l 351 146 l 321 0 l 151 0 q 66 31 97 0 q 35 111 35 61 q 39 147 35 129 l 58 239 q 107 356 74 310 q 204 421 140 403 l 71 458 l 108 638 q 288 728 185 692 q 504 764 390 764 q 711 710 636 764 q 786 544 786 656 q 775 453 786 506 l 736 274 q 728 208 728 235 q 753 148 728 164 q 842 132 779 132 q 944 153 892 132 q 1035 210 996 175 l 1149 750 l 1336 750 l 1178 0 l 1006 0 l 1013 74 q 747 -14 899 -14 z "},"ฒ":{"ha":1381,"x_min":38,"x_max":1374,"o":"m 283 -14 q 106 52 174 -14 q 38 246 38 118 q 50 360 38 297 q 172 663 92 561 q 381 764 253 764 q 465 746 436 764 q 513 693 494 728 q 595 744 546 725 q 700 764 644 764 q 811 726 775 764 q 847 622 847 689 q 839 547 847 588 l 768 210 q 835 153 792 175 q 928 132 878 132 q 1035 164 1000 132 q 1085 274 1069 196 l 1186 750 l 1374 750 l 1271 263 q 1163 58 1242 129 q 958 -14 1085 -14 q 829 8 883 -14 q 732 74 775 31 l 708 0 l 543 0 l 653 518 q 661 574 661 563 q 651 607 661 596 q 617 618 640 618 q 567 602 590 618 q 529 554 544 586 l 439 554 q 419 603 431 589 q 379 618 407 618 q 288 553 322 618 q 228 360 254 488 q 214 253 214 300 q 246 160 214 188 q 349 132 278 132 q 446 143 413 132 l 417 6 q 283 -14 361 -14 z "},"ฆ":{"ha":860,"x_min":1,"x_max":853,"o":"m 431 -14 q 197 74 285 -14 l 174 0 l 1 0 l 57 267 q 109 377 69 324 q 210 493 149 431 q 262 552 244 531 q 283 589 279 574 l 285 597 q 267 615 283 615 q 228 600 250 615 l 217 543 l 99 543 l 142 750 l 265 750 l 257 711 q 313 740 285 731 q 378 750 342 750 q 446 730 422 750 q 469 671 469 710 q 465 636 469 656 q 426 543 454 585 q 349 443 399 501 q 280 356 304 393 q 247 278 256 319 l 233 210 q 303 154 257 176 q 400 132 349 132 q 513 164 476 132 q 564 274 549 196 l 665 750 l 853 750 l 750 263 q 641 58 721 129 q 431 -14 561 -14 z "},"ธ":{"ha":747,"x_min":-4,"x_max":735,"o":"m 299 -14 q 129 3 208 -14 q -4 44 50 19 l 56 324 l 228 324 l 192 153 q 319 132 238 132 q 443 153 406 132 q 493 232 481 175 q 494 250 494 239 q 458 307 494 289 q 332 349 421 325 l 290 360 q 140 420 192 385 q 88 521 88 456 q 92 556 88 538 q 204 711 113 658 q 469 764 296 764 q 622 753 549 764 q 735 729 694 743 l 703 579 q 597 608 663 597 q 464 618 532 618 q 268 551 268 618 q 296 515 268 528 q 392 485 324 501 q 478 463 440 475 q 623 392 574 435 q 672 279 672 349 q 667 232 672 265 q 551 49 643 111 q 299 -14 458 -14 z "},"ร":{"ha":699,"x_min":-6,"x_max":678,"o":"m 250 -14 q 103 -3 172 -14 q -6 26 33 8 l 26 178 q 133 144 72 157 q 247 132 194 132 q 383 147 342 132 q 435 203 425 161 q 436 219 436 208 q 410 265 436 249 q 313 306 383 282 l 258 325 q 125 397 168 358 q 82 496 82 435 q 88 540 82 507 q 199 705 111 646 q 447 764 288 764 q 574 754 511 764 q 678 731 638 744 l 646 581 q 549 608 606 599 q 443 618 493 618 q 322 602 368 618 q 267 544 275 586 q 265 532 265 540 q 292 492 265 507 q 385 454 319 476 q 444 433 408 447 q 578 360 538 399 q 619 261 619 322 q 613 203 619 238 q 501 40 589 93 q 250 -14 413 -14 z "},"จ":{"ha":778,"x_min":21,"x_max":743,"o":"m 297 -14 q 229 -8 267 -14 q 169 7 192 -1 l 124 289 l 21 289 l 57 422 l 269 422 l 317 129 q 463 190 403 129 q 551 382 524 251 q 565 489 565 451 q 517 590 565 561 q 349 618 469 618 q 227 609 292 618 q 103 582 163 600 l 132 721 q 428 764 276 764 q 665 696 586 764 q 743 500 743 628 q 729 382 743 442 q 574 88 688 190 q 297 -14 460 -14 z "},"ว":{"ha":682,"x_min":-43,"x_max":658,"o":"m 186 -14 q -43 31 53 -14 l -12 174 q 174 132 74 132 q 372 187 304 132 q 468 375 439 242 q 482 481 482 444 q 435 587 482 556 q 276 618 389 618 q 74 576 178 618 l 104 719 q 351 764 217 764 q 578 692 499 764 q 658 488 658 619 q 646 375 658 436 q 498 81 604 176 q 186 -14 392 -14 z "},"ง":{"ha":761,"x_min":28,"x_max":739,"o":"m 279 -14 q 199 -8 240 -14 q 131 7 158 -3 l 28 521 l 210 521 l 290 119 q 455 188 393 119 q 547 399 517 257 q 561 510 561 463 q 531 593 561 569 q 425 617 500 617 l 368 617 l 396 750 l 479 750 q 739 518 739 750 q 725 399 739 463 q 567 85 679 185 q 279 -14 456 -14 z "},"ฐ":{"ha":832,"x_min":-67,"x_max":882,"o":"m 297 -14 q 229 -8 267 -14 q 169 7 192 -1 l 124 289 l 21 289 l 57 422 l 269 422 l 317 129 q 463 190 403 129 q 551 382 524 251 q 565 489 565 451 q 517 590 565 561 q 349 618 469 618 q 227 609 292 618 q 103 582 163 600 l 132 721 q 428 764 276 764 q 553 750 493 764 l 882 750 l 842 607 l 717 607 q 742 486 742 557 q 729 382 742 436 q 574 88 688 190 q 297 -14 460 -14 m 342 -290 q 199 -224 235 -290 q 58 -289 147 -289 l -67 -289 l -28 -147 l 54 -147 q 119 -133 94 -147 q 163 -86 143 -119 l 282 -86 q 301 -136 285 -119 q 354 -153 317 -153 q 446 -82 431 -153 l 453 -50 l 608 -50 l 601 -85 q 342 -290 556 -290 z "},"ฉ":{"ha":828,"x_min":25,"x_max":767,"o":"m 221 -14 q 78 33 131 -14 q 25 171 25 81 q 33 246 25 204 l 69 417 l 257 417 l 226 274 q 218 211 218 236 q 243 150 218 168 q 329 132 268 132 q 519 211 433 132 l 568 443 q 576 511 576 483 q 532 594 576 571 q 378 618 488 618 q 239 606 321 618 q 96 576 157 594 l 125 715 q 283 751 194 738 q 457 764 372 764 q 767 536 767 764 q 756 442 767 497 l 663 0 l 490 0 l 497 75 q 221 -14 372 -14 z "},"ล":{"ha":835,"x_min":14,"x_max":778,"o":"m 231 -14 q 76 31 138 -14 q 14 164 14 75 q 21 222 14 188 q 126 397 44 339 q 365 456 207 456 l 578 456 l 586 492 q 593 540 593 522 q 558 601 593 583 q 436 618 524 618 q 179 581 307 618 l 210 721 q 350 752 272 740 q 497 764 428 764 q 707 709 636 764 q 778 550 778 654 q 769 472 778 514 l 669 0 l 482 0 l 549 318 l 347 318 q 247 296 283 318 q 199 222 210 274 q 194 189 194 204 q 220 144 194 157 q 308 132 246 132 q 410 143 376 132 l 381 6 q 231 -14 315 -14 z "}}}
